<svg width="20" height="20" viewBox="0 0 20 20" fill="none" xmlns="http://www.w3.org/2000/svg">
<mask id="mask0_69_1149" style="mask-type:alpha" maskUnits="userSpaceOnUse" x="0" y="0" width="20" height="20">
<rect width="20" height="20" fill="#444444"/>
</mask>
<g mask="url(#mask0_69_1149)">
<path d="M4.42296 17.0827C4.00199 17.0827 3.64567 16.9368 3.354 16.6452C3.06234 16.3535 2.9165 15.9972 2.9165 15.5762V4.42247C2.9165 4.0015 3.06234 3.64518 3.354 3.35352C3.64567 3.06185 4.00199 2.91602 4.42296 2.91602H9.05421C9.23157 2.91602 9.38012 2.97588 9.49984 3.0956C9.61942 3.21518 9.67921 3.36365 9.67921 3.54102C9.67921 3.71838 9.61942 3.86685 9.49984 3.98643C9.38012 4.10615 9.23157 4.16602 9.05421 4.16602H4.42296C4.3588 4.16602 4.30005 4.19275 4.24671 4.24622C4.19324 4.29956 4.1665 4.35831 4.1665 4.42247V15.5762C4.1665 15.6404 4.19324 15.6991 4.24671 15.7525C4.30005 15.8059 4.3588 15.8327 4.42296 15.8327H15.5767C15.6409 15.8327 15.6996 15.8059 15.753 15.7525C15.8064 15.6991 15.8332 15.6404 15.8332 15.5762V10.945C15.8332 10.7676 15.893 10.6191 16.0128 10.4993C16.1323 10.3798 16.2808 10.32 16.4582 10.32C16.6355 10.32 16.784 10.3798 16.9036 10.4993C17.0233 10.6191 17.0832 10.7676 17.0832 10.945V15.5762C17.0832 15.9972 16.9373 16.3535 16.6457 16.6452C16.354 16.9368 15.9977 17.0827 15.5767 17.0827H4.42296ZM15.8332 5.04414L8.53838 12.3391C8.42296 12.4544 8.27789 12.5134 8.10317 12.5162C7.92859 12.5189 7.78088 12.4598 7.66005 12.3391C7.53935 12.2183 7.479 12.0719 7.479 11.9C7.479 11.728 7.53935 11.5816 7.66005 11.4608L14.955 4.16602H12.2915C12.1141 4.16602 11.9657 4.10615 11.8461 3.98643C11.7264 3.86685 11.6665 3.71838 11.6665 3.54102C11.6665 3.36365 11.7264 3.21518 11.8461 3.0956C11.9657 2.97588 12.1141 2.91602 12.2915 2.91602H16.3298C16.5447 2.91602 16.7239 2.98789 16.8675 3.13164C17.0113 3.27525 17.0832 3.45449 17.0832 3.66935V7.70768C17.0832 7.88504 17.0233 8.03352 16.9036 8.1531C16.784 8.27282 16.6355 8.33268 16.4582 8.33268C16.2808 8.33268 16.1323 8.27282 16.0128 8.1531C15.893 8.03352 15.8332 7.88504 15.8332 7.70768V5.04414Z" fill="#444444"/>
</g>
</svg>
