<svg width="26" height="29" viewBox="0 0 26 29" fill="none" xmlns="http://www.w3.org/2000/svg">
<path d="M5.30792 23.5508H6.84625V21.2433H19.1537V23.5508H20.6921V17.3971C20.6921 16.5509 20.3908 15.8266 19.7883 15.2241C19.1858 14.6214 18.4615 14.32 17.6154 14.32H12.2308V19.7046H6.84625V12.7816H5.30792V23.5508ZM9.54083 18.9354C10.08 18.9354 10.5349 18.7493 10.9054 18.3771C11.2762 18.0048 11.4617 17.5491 11.4617 17.01C11.4617 16.4711 11.2756 16.0162 10.9033 15.6454C10.5311 15.2746 10.0754 15.0891 9.53625 15.0891C8.99708 15.0891 8.54222 15.2753 8.17167 15.6475C7.80083 16.0197 7.61542 16.4754 7.61542 17.0146C7.61542 17.5537 7.80153 18.0087 8.17375 18.3796C8.54597 18.7501 9.00167 18.9354 9.54083 18.9354ZM0.5 28.1662V9.41622L13 0.0253906L25.5 9.41622V28.1662H0.5ZM3 25.6662H23V10.6662L13 3.16622L3 10.6662V25.6662Z" fill="white" fill-opacity="0.8"/>
</svg>
