<svg width="32" height="35" viewBox="0 0 32 35" fill="none" xmlns="http://www.w3.org/2000/svg">
<path d="M6.15413 29.2596H8.1232V26.3897H23.8768V29.2596H25.8459V21.6059C25.8459 20.5536 25.4603 19.6527 24.6891 18.9034C23.9179 18.1537 22.9908 17.7788 21.9077 17.7788H15.0155V24.4759H8.1232V15.8655H6.15413V29.2596ZM11.5723 23.5192C12.2624 23.5192 12.8446 23.2877 13.3189 22.8248C13.7936 22.3618 14.0309 21.7951 14.0309 21.1245C14.0309 20.4542 13.7927 19.8885 13.3163 19.4273C12.8398 18.9661 12.2565 18.7355 11.5664 18.7355C10.8763 18.7355 10.294 18.9669 9.81973 19.4299C9.34507 19.8928 9.10773 20.4596 9.10773 21.1302C9.10773 21.8008 9.34596 22.3667 9.8224 22.8279C10.2988 23.2888 10.8821 23.5192 11.5723 23.5192ZM0 35V11.6798L16 0L32 11.6798V35H0ZM3.2 31.8906H28.8V13.2345L16 3.90639L3.2 13.2345V31.8906Z" fill="#FFD493"/>
</svg>
