<svg width="31" height="32" viewBox="0 0 31 32" fill="none" xmlns="http://www.w3.org/2000/svg">
<path d="M8.99992 27.4362C9.51492 27.7225 10.0149 27.9817 10.4999 28.2137C10.9849 28.4453 11.4806 28.6392 11.987 28.7953V31.4457C11.4914 31.3069 10.9926 31.1477 10.4903 30.9682C9.98811 30.7888 9.47422 30.5719 8.94867 30.3174C7.78422 30.8282 6.60158 31.2087 5.40075 31.4587C4.19992 31.7087 2.97228 31.8337 1.71784 31.8337H0.833252V29.3337H1.71784C2.96561 29.3337 4.167 29.1771 5.322 28.8641C6.477 28.551 7.70297 28.0751 8.99992 27.4362ZM11.362 0.166992H18.5737V3.50033H23.1891C24.0174 3.50033 24.7267 3.79533 25.317 4.38533C25.907 4.97533 26.202 5.68463 26.202 6.51324V10.1737C25.8195 10.1287 25.4263 10.0949 25.0224 10.0724C24.6185 10.0499 24.1784 10.0387 23.702 10.0387V6.44908C23.702 6.32074 23.6566 6.21394 23.5658 6.12866C23.4749 6.0431 23.3653 6.00033 23.237 6.00033H6.69867C6.57033 6.00033 6.46075 6.0431 6.36992 6.12866C6.27909 6.21394 6.23367 6.32074 6.23367 6.44908V12.1191L14.9678 9.62241L18.2308 10.5228C17.5127 10.6467 16.7916 10.8513 16.0674 11.1366C15.343 11.4219 14.687 11.8594 14.0995 12.4491L3.22409 15.5774L5.06075 21.9941C5.49464 21.6949 5.90061 21.3653 6.27867 21.0053C6.657 20.645 7.03103 20.2641 7.40075 19.8624L8.82034 18.3528C9.32478 18.9234 9.83659 19.4923 10.3558 20.0595C10.8749 20.627 11.4187 21.1714 11.987 21.6928V24.8078C11.2328 24.3828 10.5716 23.9037 10.0033 23.3703C9.43492 22.8373 9.00645 22.3998 8.71784 22.0578C7.87589 22.9253 7.03936 23.6337 6.20825 24.1828C5.37714 24.732 4.46589 25.1498 3.4745 25.4362L0.461585 15.3274C0.344085 14.9194 0.382141 14.5389 0.575752 14.1862C0.769641 13.8337 1.07242 13.5944 1.48408 13.4682L3.73409 12.8016V6.51324C3.73409 5.68463 4.02909 4.97533 4.61909 4.38533C5.20909 3.79533 5.91825 3.50033 6.74659 3.50033H11.362V0.166992ZM17.9487 31.8337C17.737 31.8337 17.5559 31.7584 17.4053 31.6078C17.2548 31.457 17.1795 31.2759 17.1795 31.0645V29.1637C16.6945 28.8903 16.3169 28.5196 16.0466 28.0516C15.7763 27.5835 15.6412 27.0707 15.6412 26.5132V17.5387C15.6412 16.2053 16.2489 15.231 17.4645 14.6157C18.6803 14.0005 20.5991 13.6928 23.2208 13.6928C25.9433 13.6928 27.8926 13.9877 29.0687 14.5774C30.2451 15.1671 30.8333 16.1542 30.8333 17.5387V26.5132C30.8333 27.051 30.6987 27.5567 30.4295 28.0303C30.1601 28.5042 29.7819 28.882 29.2949 29.1637V31.0645C29.2949 31.2759 29.2195 31.457 29.0687 31.6078C28.9181 31.7584 28.737 31.8337 28.5253 31.8337H27.1795C26.9678 31.8337 26.7867 31.7584 26.6362 31.6078C26.4856 31.457 26.4103 31.2759 26.4103 31.0645V29.5899H20.0641V31.0645C20.0641 31.2759 19.9888 31.457 19.8383 31.6078C19.6874 31.7584 19.5063 31.8337 19.2949 31.8337H17.9487ZM19.897 26.8657C20.2742 26.8657 20.5887 26.7407 20.8403 26.4907C21.092 26.2407 21.2178 25.9282 21.2178 25.5532C21.2178 25.1782 21.0928 24.8652 20.8428 24.6141C20.5928 24.363 20.2803 24.2374 19.9053 24.2374C19.5303 24.2374 19.2173 24.3632 18.9662 24.6149C18.7151 24.8666 18.5895 25.1812 18.5895 25.5587C18.5895 25.9109 18.7194 26.2167 18.9791 26.4762C19.2388 26.7359 19.5448 26.8657 19.897 26.8657ZM26.5637 26.8657C26.9409 26.8657 27.2553 26.7407 27.507 26.4907C27.7587 26.2407 27.8845 25.9282 27.8845 25.5532C27.8845 25.1782 27.7595 24.8652 27.5095 24.6141C27.2595 24.363 26.947 24.2374 26.572 24.2374C26.197 24.2374 25.8839 24.3632 25.6328 24.6149C25.3817 24.8666 25.2562 25.1812 25.2562 25.5587C25.2562 25.9109 25.386 26.2167 25.6458 26.4762C25.9055 26.7359 26.2114 26.8657 26.5637 26.8657ZM17.6283 21.0645H28.8462V18.0516H17.6283V21.0645Z" fill="white" fill-opacity="0.8"/>
</svg>
