<svg width="36" height="34" viewBox="0 0 36 34" fill="none" xmlns="http://www.w3.org/2000/svg">
<path d="M1.91034 33.2504C2.65172 31.1949 3.14367 29.0928 3.38617 26.9442C3.62867 24.7958 3.7777 22.6352 3.83325 20.4621C2.74992 20.0879 1.85409 19.4121 1.14575 18.4346C0.437419 17.4571 0.083252 16.2846 0.083252 14.9171V12.2888C3.21353 11.2546 6.40367 9.68099 9.65367 7.56793C12.9037 5.4546 15.6858 3.21418 17.9999 0.84668C20.3141 3.21418 23.0962 5.4546 26.3462 7.56793C29.5962 9.68099 32.7863 11.2546 35.9166 12.2888V14.9171C35.9166 16.2846 35.5624 17.4571 34.8541 18.4346C34.1458 19.4121 33.2499 20.0879 32.1666 20.4621C32.2221 22.6352 32.3712 24.7958 32.6137 26.9442C32.8562 29.0928 33.3481 31.1949 34.0895 33.2504H1.91034ZM6.03825 12.4171H29.9616C27.5813 11.2377 25.3814 9.93265 23.362 8.5021C21.3428 7.07154 19.5555 5.6564 17.9999 4.25668C16.4444 5.6564 14.657 7.07154 12.6378 8.5021C10.6184 9.93265 8.41853 11.2377 6.03825 12.4171ZM22.1666 18.2504C23.0213 18.2504 23.7212 17.9192 24.2662 17.2567C24.8109 16.5945 25.0833 15.8146 25.0833 14.9171H19.2499C19.2499 15.8146 19.5223 16.5945 20.067 17.2567C20.612 17.9192 21.3119 18.2504 22.1666 18.2504ZM13.8333 18.2504C14.688 18.2504 15.3878 17.9192 15.9328 17.2567C16.4776 16.5945 16.7499 15.8146 16.7499 14.9171H10.9166C10.9166 15.8146 11.1889 16.5945 11.7337 17.2567C12.2787 17.9192 12.9785 18.2504 13.8333 18.2504ZM5.49992 18.2504C6.35464 18.2504 7.0545 17.9192 7.5995 17.2567C8.14422 16.5945 8.41658 15.8146 8.41658 14.9171H2.58325C2.58325 15.8146 2.85561 16.5945 3.40034 17.2567C3.94534 17.9192 4.6452 18.2504 5.49992 18.2504ZM5.20492 30.7504H10.577C10.8484 28.9768 11.0562 27.2146 11.2003 25.4638C11.3445 23.7127 11.453 21.945 11.5258 20.1608C11.1794 19.9897 10.8464 19.7797 10.527 19.5308C10.2076 19.282 9.92075 18.9663 9.66658 18.5838C9.26047 19.1607 8.77436 19.6265 8.20825 19.9813C7.64186 20.336 7.01686 20.5667 6.33325 20.6733C6.2777 22.385 6.17506 24.0785 6.02534 25.7538C5.87589 27.429 5.60242 29.0946 5.20492 30.7504ZM13.1024 30.7504H22.8974C22.6433 29.0838 22.4483 27.4197 22.3124 25.7583C22.1769 24.097 22.0727 22.419 21.9999 20.7246C21.1708 20.7227 20.4069 20.5278 19.7083 20.14C19.0096 19.752 18.4402 19.2204 17.9999 18.5454C17.5596 19.2204 16.9816 19.752 16.2658 20.14C15.5499 20.5278 14.7946 20.7227 13.9999 20.7246C13.9271 22.419 13.823 24.097 13.6874 25.7583C13.5516 27.4197 13.3566 29.0838 13.1024 30.7504ZM25.4228 30.7504H30.7949C30.3974 29.0946 30.1239 27.429 29.9745 25.7538C29.8248 24.0785 29.7221 22.385 29.6666 20.6733C28.983 20.5667 28.3484 20.336 27.7628 19.9813C27.1773 19.6265 26.7008 19.15 26.3333 18.5517C26.1005 18.9447 25.8189 19.2685 25.4887 19.5229C25.1587 19.7771 24.8205 19.9897 24.4741 20.1608C24.5469 21.945 24.6596 23.7127 24.8124 25.4638C24.9652 27.2146 25.1687 28.9768 25.4228 30.7504ZM30.4999 18.2504C31.3546 18.2504 32.0545 17.9192 32.5995 17.2567C33.1442 16.5945 33.4166 15.8146 33.4166 14.9171H27.5833C27.5833 15.8146 27.8556 16.5945 28.4003 17.2567C28.9453 17.9192 29.6452 18.2504 30.4999 18.2504Z" fill="white" fill-opacity="0.8"/>
</svg>
