<svg width="30" height="30" viewBox="0 0 30 30" fill="none" xmlns="http://www.w3.org/2000/svg">
<path d="M2.22745 29.4231L0.471202 27.6668L17.4583 10.6798C16.9263 9.42753 16.8302 8.11072 17.17 6.72933C17.5097 5.34795 18.264 4.08989 19.4329 2.95517C20.7126 1.67544 22.2125 0.867807 23.9325 0.532251C25.6527 0.196696 27.0716 0.587666 28.1891 1.70517C29.3066 2.82267 29.6976 4.24156 29.362 5.96183C29.0265 7.68184 28.2188 9.18184 26.9391 10.4618C25.8044 11.6304 24.5463 12.3846 23.165 12.7243C21.7836 13.0641 20.4668 12.9679 19.2145 12.436L16.6504 15.0002L29.317 27.6668L27.5608 29.4231L14.8941 16.8398L2.22745 29.4231ZM7.24037 15.2693L2.43287 10.4618C1.06092 9.08989 0.350924 7.4585 0.302868 5.56767C0.254813 3.67656 0.879257 2.01308 2.1762 0.577249L12.0287 10.481L7.24037 15.2693Z" fill="white" fill-opacity="0.8"/>
</svg>
