<svg width="15" height="18" viewBox="0 0 15 18" fill="none" xmlns="http://www.w3.org/2000/svg">
<path d="M3.5063 16.2612V9.54975H0.928299C0.543133 9.54975 0.267883 9.3815 0.102549 9.045C-0.0627839 8.7085 -0.0282007 8.38958 0.206299 8.08825L6.29855 0.35575C6.48172 0.118583 6.71822 0 7.00805 0C7.29788 0 7.53322 0.118583 7.71405 0.35575L13.8063 8.08825C14.0408 8.38958 14.0754 8.7085 13.91 9.045C13.7447 9.3815 13.4695 9.54975 13.0843 9.54975H10.5063V16.2612C10.5063 16.5174 10.4196 16.7321 10.2463 16.9053C10.0731 17.0786 9.85847 17.1653 9.6023 17.1653H4.4103C4.15413 17.1653 3.93947 17.0786 3.7663 16.9053C3.59297 16.7321 3.5063 16.5174 3.5063 16.2612Z" fill="#FFD493"/>
</svg>
