<svg width="24" height="14" viewBox="0 0 24 14" fill="none" xmlns="http://www.w3.org/2000/svg">
<path d="M3.82469 11.7933C3.22052 11.7933 2.77094 11.9195 2.47594 12.172C2.18115 12.4243 1.82615 12.6106 1.41094 12.7308C1.0601 12.8189 0.758125 12.7881 0.505 12.6383C0.251667 12.4885 0.125 12.2597 0.125 11.952C0.125 11.7197 0.218333 11.4978 0.405 11.2861C0.591667 11.0746 0.884583 10.8671 1.28375 10.6636C1.43604 10.569 1.74208 10.4212 2.20188 10.2202C2.66188 10.0191 3.2324 9.91859 3.91344 9.91859C4.98719 9.91859 5.72802 10.1269 6.13594 10.5436C6.54365 10.9603 7.145 11.1686 7.94 11.1686C8.73479 11.1686 9.33094 10.9603 9.72844 10.5436C10.1259 10.1269 10.8807 9.91859 11.9928 9.91859C13.1049 9.91859 13.8725 10.1269 14.2956 10.5436C14.7188 10.9603 15.3277 11.1686 16.1225 11.1686C16.9175 11.1686 17.5041 10.9603 17.8822 10.5436C18.2603 10.1269 18.9991 9.91859 20.0984 9.91859C20.6257 9.91859 21.1214 10.0019 21.5853 10.1686C22.0493 10.3353 22.4664 10.5171 22.8366 10.7142C23.1891 10.8969 23.4502 11.094 23.62 11.3055C23.79 11.5169 23.875 11.7324 23.875 11.952C23.875 12.2518 23.7504 12.4786 23.5013 12.6323C23.2521 12.7861 22.952 12.8189 22.6009 12.7308C22.1939 12.6187 21.8317 12.4344 21.5144 12.178C21.1971 11.9215 20.7468 11.7933 20.1634 11.7933C19.3766 11.7933 18.7804 12.0016 18.375 12.4183C17.9696 12.8349 17.2148 13.0433 16.1106 13.0433C15.0065 13.0433 14.2428 12.8349 13.8197 12.4183C13.3966 12.0016 12.7876 11.7933 11.9928 11.7933C11.198 11.7933 10.5999 12.0016 10.1984 12.4183C9.79698 12.8349 9.03771 13.0433 7.92062 13.0433C6.80375 13.0433 6.04375 12.8349 5.64062 12.4183C5.2375 12.0016 4.63219 11.7933 3.82469 11.7933ZM3.82469 6.93766C3.23323 6.93766 2.78687 7.0638 2.48562 7.31609C2.18437 7.56859 1.82615 7.75495 1.41094 7.87516C1.0601 7.96328 0.758125 7.93245 0.505 7.78266C0.251667 7.63287 0.125 7.40411 0.125 7.09641C0.125 6.86391 0.218333 6.64193 0.405 6.43047C0.591667 6.21901 0.884583 6.01151 1.28375 5.80797C1.43604 5.71339 1.74208 5.56547 2.20188 5.36422C2.66188 5.16318 3.2324 5.06266 3.91344 5.06266C4.98719 5.06266 5.72802 5.27099 6.13594 5.68766C6.54365 6.10432 7.145 6.31266 7.94 6.31266C8.73479 6.31266 9.33094 6.10432 9.72844 5.68766C10.1259 5.27099 10.8807 5.06266 11.9928 5.06266C13.1049 5.06266 13.8725 5.27099 14.2956 5.68766C14.7188 6.10432 15.3214 6.31266 16.1034 6.31266C16.8855 6.31266 17.4721 6.10432 17.8631 5.68766C18.254 5.27099 18.9927 5.06266 20.0794 5.06266C20.7604 5.06266 21.3329 5.16526 21.7969 5.37047C22.2608 5.57547 22.569 5.72526 22.7213 5.81984C23.125 6.02818 23.4182 6.23495 23.6009 6.44016C23.7836 6.64516 23.875 6.86391 23.875 7.09641C23.875 7.39599 23.7472 7.62276 23.4916 7.77672C23.2359 7.93047 22.9326 7.96328 22.5816 7.87516C22.1747 7.76286 21.8157 7.57859 21.5047 7.32234C21.1939 7.06589 20.7468 6.93766 20.1634 6.93766C19.3766 6.93766 18.7804 7.14599 18.375 7.56266C17.9696 7.97932 17.2148 8.18766 16.1106 8.18766C15.0065 8.18766 14.2428 7.97932 13.8197 7.56266C13.3966 7.14599 12.7876 6.93766 11.9928 6.93766C11.198 6.93766 10.6063 7.14599 10.2175 7.56266C9.82896 7.97932 9.07615 8.18766 7.95906 8.18766C6.84219 8.18766 6.0726 7.97932 5.65031 7.56266C5.22802 7.14599 4.61948 6.93766 3.82469 6.93766ZM3.83656 2.08172C3.25323 2.08172 2.8049 2.20599 2.49156 2.45453C2.17823 2.70286 1.81802 2.88318 1.41094 2.99547C1.0601 3.08359 0.758125 3.05266 0.505 2.90266C0.251667 2.75287 0.125 2.52818 0.125 2.22859C0.125 1.99609 0.218333 1.77609 0.405 1.56859C0.591667 1.36109 0.884583 1.15557 1.28375 0.952032C1.43604 0.857449 1.74208 0.709636 2.20188 0.508595C2.66188 0.307553 3.2324 0.207031 3.91344 0.207031C4.98719 0.207031 5.72802 0.415365 6.13594 0.832031C6.54365 1.2487 7.145 1.45703 7.94 1.45703C8.73479 1.45703 9.33094 1.2487 9.72844 0.832031C10.1259 0.415365 10.8807 0.207031 11.9928 0.207031C13.1049 0.207031 13.8725 0.415365 14.2956 0.832031C14.7188 1.2487 15.3214 1.45703 16.1034 1.45703C16.8855 1.45703 17.4721 1.2487 17.8631 0.832031C18.254 0.415365 18.9927 0.207031 20.0794 0.207031C20.7604 0.207031 21.3329 0.309532 21.7969 0.514532C22.2608 0.71974 22.569 0.869635 22.7213 0.964218C23.125 1.17255 23.4182 1.37922 23.6009 1.58422C23.7836 1.78943 23.875 2.00818 23.875 2.24047C23.875 2.54026 23.7472 2.76703 23.4916 2.92078C23.2359 3.07474 22.9326 3.10755 22.5816 3.01922C22.1747 2.90714 21.8157 2.72286 21.5047 2.46641C21.1939 2.20995 20.7468 2.08172 20.1634 2.08172C19.3766 2.08172 18.7804 2.29005 18.375 2.70672C17.9696 3.12339 17.2148 3.33172 16.1106 3.33172C15.0065 3.33172 14.2428 3.12339 13.8197 2.70672C13.3966 2.29005 12.7876 2.08172 11.9928 2.08172C11.198 2.08172 10.6063 2.29005 10.2175 2.70672C9.82896 3.12339 9.07615 3.33172 7.95906 3.33172C6.84219 3.33172 6.07458 3.12339 5.65625 2.70672C5.23792 2.29005 4.63135 2.08172 3.83656 2.08172Z" fill="white"/>
</svg>
