<svg width="110" height="37" viewBox="0 0 110 37" fill="none" xmlns="http://www.w3.org/2000/svg">
<g clip-path="url(#clip0_55_594)">
<path d="M87.5659 9.04826C87.5659 9.36303 87.611 9.68925 87.735 9.9983C88.2818 11.3718 89.674 12.2189 91.444 11.5035C91.8667 11.3318 103.574 6.54153 103.574 6.54153C103.574 6.54153 98.9633 18.4113 98.7886 18.852C98.1178 20.5517 98.9238 22.0913 100.294 22.6063C100.598 22.7208 100.914 22.778 101.224 22.7723C102.345 22.7666 103.332 22.097 103.816 20.7578C103.89 20.5575 109.656 4.48121 109.78 4.09776C109.853 3.86883 109.989 3.33086 109.989 2.95886C109.989 2.16334 109.701 1.41361 109.143 0.847022C108.596 0.286156 107.864 0 107.091 0C106.714 0 106.409 0.0686775 105.947 0.217479C105.671 0.309049 90.807 5.92343 89.5388 6.40418C88.2705 6.88492 87.5659 7.91508 87.5716 9.04826" fill="#ED1C24"/>
<path d="M59.7151 18.1139V17.7705H50.7021V20.1113H55.9385C54.5745 24.4952 49.6987 27.0706 49.6987 27.0706L51.0008 28.9192C51.0008 28.9192 59.7151 25.2678 59.7151 18.1082V18.1139Z" fill="white"/>
<path d="M56.8684 33.6578V29.1079H53.6724V34.2358C53.6724 35.8383 54.9293 36.9944 56.6542 36.9944H66.5578V34.6593H57.9844C57.2066 34.6593 56.8796 34.3446 56.8627 33.6578H56.8684Z" fill="white"/>
<path d="M59.3545 22.0857V24.4265H63.1593V30.0695H66.3553V17.5244H63.1593V22.0857H59.3545Z" fill="white"/>
<path d="M86.8953 26.9274H90.0913V17.427H86.8953V20.3859H83.564V22.698H86.8953V26.9274Z" fill="white"/>
<path d="M15.2079 28.9304H3.04395V34.2358C3.04395 35.8382 4.30093 36.9943 6.02575 36.9943H15.9181V29.6515C15.9181 29.2509 15.5969 28.9304 15.2079 28.9304ZM12.7221 34.6593H7.35601C6.57815 34.6593 6.24559 34.3502 6.23431 33.6577V31.2769H12.7221V34.6593Z" fill="white"/>
<path d="M16.1322 17.8048V17.696H2.86908V20.0368H12.7896C12.7896 20.1913 12.7896 20.3859 12.7896 20.5748C12.7896 22.7496 12.6826 24.1803 12.6262 24.7641H0V27.1049H19.4522V24.7641H15.4727C15.6644 24.0315 16.1378 21.7652 16.1378 17.8048H16.1322Z" fill="white"/>
<path d="M35.9959 30.1094C38.6508 29.52 40.6124 27.4997 40.6124 25.1074C40.6124 23.8197 40.0431 22.6408 39.1074 21.7308H42.5007V19.39H35.9959V17.1809H32.8056V19.39H26.3008V21.7308H29.6941C28.7584 22.6408 28.1891 23.814 28.1891 25.1074C28.1891 27.5054 30.1507 29.52 32.8112 30.1094V32.4788H24.6831V34.8196H44.1297V32.4788H36.0016V30.1094H35.9959ZM31.4697 25.033C31.4697 23.4363 32.783 22.1314 34.3951 22.1314C36.0072 22.1314 37.3206 23.4306 37.3206 25.033C37.3206 26.6355 36.0072 27.9347 34.3951 27.9347C32.783 27.9347 31.4697 26.6355 31.4697 25.033Z" fill="white"/>
<path d="M80.7851 26.727H83.8797C83.75 25.9658 82.617 19.8192 79.669 17.6902H76.101L73.356 26.8014H76.5632L78.3895 20.2427C79.9283 22.0741 80.678 26.1261 80.7795 26.727H80.7851Z" fill="white"/>
<path d="M81.4221 34.7395C80.6104 34.7395 80.4639 34.5278 80.4639 33.8296V33.5377H90.097V28.6158C90.097 28.1923 89.7926 27.8604 89.3586 27.8604H77.3242V30.1153H87.0362V31.3228H77.4088V34.2359C77.4088 35.9242 78.6037 36.9945 80.3906 36.9945H90.3055V34.7395H81.4221Z" fill="white"/>
</g>
<defs>
<clipPath id="clip0_55_594">
<rect width="110" height="37" fill="white"/>
</clipPath>
</defs>
</svg>
