<svg width="26" height="26" viewBox="0 0 26 26" fill="none" xmlns="http://www.w3.org/2000/svg">
<path d="M0 10.0265C0 10.3753 0.0508249 10.7367 0.190615 11.0792C0.806961 12.6012 2.37642 13.5398 4.37161 12.7471C4.84816 12.5568 18.0456 7.24872 18.0456 7.24872C18.0456 7.24872 12.848 20.4017 12.651 20.89C11.8948 22.7735 12.8035 24.4795 14.3475 25.0503C14.6906 25.1771 15.0465 25.2405 15.396 25.2342C16.6604 25.2278 17.7724 24.4858 18.3188 23.0019C18.4014 22.7799 24.9017 4.96566 25.0414 4.54076C25.1241 4.28708 25.2766 3.69095 25.2766 3.27873C25.2766 2.39722 24.9525 1.56643 24.3234 0.938592C23.7071 0.317092 22.8811 0 22.0106 0C21.5848 0 21.2417 0.0761021 20.7207 0.24099C20.4093 0.342459 3.6536 6.5638 2.22393 7.09652C0.794261 7.62923 -3.49026e-06 8.77077 0.0063506 10.0265" fill="#ED1C24"/>
</svg>
