<svg width="70" height="70" viewBox="0 0 70 70" fill="none" xmlns="http://www.w3.org/2000/svg">
<mask id="mask0_69_849" style="mask-type:alpha" maskUnits="userSpaceOnUse" x="0" y="0" width="70" height="70">
<rect width="70" height="70" fill="#D9D9D9"/>
</mask>
<g mask="url(#mask0_69_849)">
<path d="M20.8649 56.8751C19.4104 56.8751 18.1682 56.3601 17.1381 55.33C16.108 54.2995 15.593 53.057 15.593 51.6025V30.3276L8.74977 35.477C8.23741 35.8324 7.69515 35.9828 7.123 35.9284C6.55085 35.8739 6.07786 35.5908 5.70404 35.0789C5.33022 34.5665 5.17782 34.0243 5.24685 33.4521C5.31637 32.88 5.60706 32.407 6.11894 32.0332L31.7914 12.598C32.2703 12.2465 32.7807 11.9876 33.3227 11.8214C33.8647 11.6547 34.4237 11.5713 34.9998 11.5713C35.5758 11.5713 36.1348 11.6547 36.6769 11.8214C37.2189 11.9876 37.7293 12.2465 38.2081 12.598L47.171 19.3566V16.6871C47.171 15.6959 47.5169 14.8545 48.2086 14.1627C48.9004 13.471 49.7418 13.1251 50.733 13.1251C51.7237 13.1251 52.5649 13.471 53.2567 14.1627C53.9484 14.8545 54.2943 15.6959 54.2943 16.6871V24.775L63.9083 32.0332C64.3905 32.407 64.6737 32.88 64.7578 33.4521C64.8419 34.0243 64.697 34.5665 64.3232 35.0789C63.9494 35.5908 63.4764 35.8739 62.9043 35.9284C62.3321 35.9828 61.7898 35.8324 61.2775 35.477L54.435 30.3276V51.6025C54.435 53.057 53.9199 54.2995 52.8899 55.33C51.8593 56.3601 50.6168 56.8751 49.1624 56.8751H43.5252C42.0707 56.8751 40.8285 56.3601 39.7984 55.33C38.7683 54.2995 38.2533 53.057 38.2533 51.6025V41.3942C38.2533 41.1327 38.169 40.9178 38.0003 40.7496C37.8321 40.5809 37.6172 40.4966 37.3557 40.4966H32.6438C32.3823 40.4966 32.1674 40.5809 31.9993 40.7496C31.8306 40.9178 31.7462 41.1327 31.7462 41.3942V51.6025C31.7462 53.057 31.2312 54.2995 30.2011 55.33C29.1711 56.3601 27.9288 56.8751 26.4744 56.8751H20.8649ZM20.8649 52.5001H26.4744C26.7359 52.5001 26.9507 52.416 27.1189 52.2479C27.2876 52.0797 27.372 51.8646 27.372 51.6025V41.3942C27.372 39.9398 27.887 38.6975 28.9171 37.6674C29.9471 36.6374 31.1894 36.1223 32.6438 36.1223H37.3557C38.8102 36.1223 40.0524 36.6374 41.0825 37.6674C42.1125 38.6975 42.6276 39.9398 42.6276 41.3942V51.6025C42.6276 51.8646 42.7119 52.0797 42.8806 52.2479C43.0488 52.416 43.2637 52.5001 43.5252 52.5001H49.1624C49.4244 52.5001 49.6395 52.416 49.8077 52.2479C49.9759 52.0797 50.06 51.8646 50.06 51.6025V27.0296L35.5328 16.1147C35.3831 16.0024 35.2054 15.9463 34.9998 15.9463C34.7941 15.9463 34.6165 16.0024 34.4668 16.1147L19.968 27.0296V51.6025C19.968 51.8646 20.0521 52.0797 20.2203 52.2479C20.3885 52.416 20.6033 52.5001 20.8649 52.5001ZM29.4472 29.212H40.5524C40.5524 27.7498 39.9972 26.5484 38.887 25.6077C37.7762 24.6676 36.4805 24.1975 34.9998 24.1975C33.5191 24.1975 32.2234 24.6676 31.1126 25.6077C30.0023 26.5484 29.4472 27.7498 29.4472 29.212Z" fill="white"/>
</g>
</svg>
