<svg width="70" height="70" viewBox="0 0 70 70" fill="none" xmlns="http://www.w3.org/2000/svg">
<mask id="mask0_69_994" style="mask-type:alpha" maskUnits="userSpaceOnUse" x="0" y="0" width="70" height="70">
<rect width="70" height="70" fill="#D9D9D9"/>
</mask>
<g mask="url(#mask0_69_994)">
<path d="M20.8646 56.8751C19.4102 56.8751 18.1679 56.3601 17.1379 55.33C16.1078 54.2995 15.5928 53.057 15.5928 51.6025V30.3276L8.74953 35.477C8.23716 35.8324 7.69491 35.9828 7.12275 35.9284C6.5506 35.8739 6.07762 35.5908 5.7038 35.0789C5.32998 34.5665 5.17758 34.0243 5.24661 33.4521C5.31612 32.88 5.60682 32.407 6.11869 32.0332L31.7912 12.598C32.27 12.2465 32.7804 11.9876 33.3224 11.8214C33.8645 11.6547 34.4235 11.5713 34.9995 11.5713C35.5756 11.5713 36.1346 11.6547 36.6766 11.8214C37.2186 11.9876 37.729 12.2465 38.2079 12.598L47.1708 19.3566V16.6871C47.1708 15.6959 47.5167 14.8545 48.2084 14.1627C48.9001 13.471 49.7416 13.1251 50.7328 13.1251C51.7235 13.1251 52.5647 13.471 53.2564 14.1627C53.9481 14.8545 54.294 15.6959 54.294 16.6871V24.775L63.9081 32.0332C64.3903 32.407 64.6735 32.88 64.7576 33.4521C64.8416 34.0243 64.6968 34.5665 64.323 35.0789C63.9492 35.5908 63.4762 35.8739 62.904 35.9284C62.3319 35.9828 61.7896 35.8324 61.2772 35.477L54.4347 30.3276V51.6025C54.4347 53.057 53.9197 54.2995 52.8896 55.33C51.8591 56.3601 50.6166 56.8751 49.1621 56.8751H43.5249C42.0705 56.8751 40.8282 56.3601 39.7982 55.33C38.7681 54.2995 38.2531 53.057 38.2531 51.6025V41.3942C38.2531 41.1327 38.1687 40.9178 38.0001 40.7496C37.8319 40.5809 37.617 40.4966 37.3555 40.4966H32.6436C32.3821 40.4966 32.1672 40.5809 31.999 40.7496C31.8303 40.9178 31.746 41.1327 31.746 41.3942V51.6025C31.746 53.057 31.231 54.2995 30.2009 55.33C29.1708 56.3601 27.9286 56.8751 26.4741 56.8751H20.8646ZM20.8646 52.5001H26.4741C26.7356 52.5001 26.9505 52.416 27.1187 52.2479C27.2874 52.0797 27.3717 51.8646 27.3717 51.6025V41.3942C27.3717 39.9398 27.8868 38.6975 28.9168 37.6674C29.9469 36.6374 31.1891 36.1223 32.6436 36.1223H37.3555C38.8099 36.1223 40.0522 36.6374 41.0822 37.6674C42.1123 38.6975 42.6273 39.9398 42.6273 41.3942V51.6025C42.6273 51.8646 42.7117 52.0797 42.8804 52.2479C43.0486 52.416 43.2634 52.5001 43.5249 52.5001H49.1621C49.4241 52.5001 49.6393 52.416 49.8074 52.2479C49.9756 52.0797 50.0597 51.8646 50.0597 51.6025V27.0296L35.5326 16.1147C35.3828 16.0024 35.2052 15.9463 34.9995 15.9463C34.7939 15.9463 34.6162 16.0024 34.4665 16.1147L19.9678 27.0296V51.6025C19.9678 51.8646 20.0519 52.0797 20.22 52.2479C20.3882 52.416 20.6031 52.5001 20.8646 52.5001ZM29.4469 29.212H40.5521C40.5521 27.7498 39.997 26.5484 38.8867 25.6077C37.776 24.6676 36.4802 24.1975 34.9995 24.1975C33.5188 24.1975 32.2231 24.6676 31.1123 25.6077C30.0021 26.5484 29.4469 27.7498 29.4469 29.212Z" fill="#FFD493"/>
</g>
</svg>
