<svg width="36" height="33" viewBox="0 0 36 33" fill="none" xmlns="http://www.w3.org/2000/svg">
<path d="M1.91009 32.4038C2.65148 30.3482 3.14342 28.2461 3.38592 26.0975C3.62842 23.9492 3.77745 21.7885 3.83301 19.6154C2.74967 19.2413 1.85384 18.5654 1.14551 17.5879C0.437174 16.6104 0.0830078 15.4379 0.0830078 14.0704V11.4421C3.21329 10.4079 6.40342 8.83431 9.65342 6.72125C12.9034 4.60792 15.6855 2.3675 17.9997 0C20.3138 2.3675 23.0959 4.60792 26.3459 6.72125C29.5959 8.83431 32.7861 10.4079 35.9163 11.4421V14.0704C35.9163 15.4379 35.5622 16.6104 34.8538 17.5879C34.1455 18.5654 33.2497 19.2413 32.1663 19.6154C32.2219 21.7885 32.3709 23.9492 32.6134 26.0975C32.8559 28.2461 33.3479 30.3482 34.0893 32.4038H1.91009ZM6.03801 11.5704H29.9613C27.5811 10.391 25.3812 9.08597 23.3618 7.65542C21.3426 6.22486 19.5552 4.80972 17.9997 3.41C16.4441 4.80972 14.6568 6.22486 12.6376 7.65542C10.6181 9.08597 8.41829 10.391 6.03801 11.5704ZM22.1663 17.4038C23.0211 17.4038 23.7209 17.0725 24.2659 16.41C24.8106 15.7478 25.083 14.9679 25.083 14.0704H19.2497C19.2497 14.9679 19.522 15.7478 20.0668 16.41C20.6118 17.0725 21.3116 17.4038 22.1663 17.4038ZM13.833 17.4038C14.6877 17.4038 15.3876 17.0725 15.9326 16.41C16.4773 15.7478 16.7497 14.9679 16.7497 14.0704H10.9163C10.9163 14.9679 11.1887 15.7478 11.7334 16.41C12.2784 17.0725 12.9783 17.4038 13.833 17.4038ZM5.49967 17.4038C6.3544 17.4038 7.05426 17.0725 7.59926 16.41C8.14398 15.7478 8.41634 14.9679 8.41634 14.0704H2.58301C2.58301 14.9679 2.85537 15.7478 3.40009 16.41C3.94509 17.0725 4.64495 17.4038 5.49967 17.4038ZM5.20467 29.9038H10.5768C10.8481 28.1301 11.0559 26.3679 11.2001 24.6171C11.3443 22.866 11.4527 21.0983 11.5255 19.3142C11.1791 19.1431 10.8462 18.9331 10.5268 18.6842C10.2073 18.4353 9.92051 18.1196 9.66634 17.7371C9.26023 18.314 8.77412 18.7799 8.20801 19.1346C7.64162 19.4893 7.01662 19.72 6.33301 19.8267C6.27745 21.5383 6.17481 23.2318 6.02509 24.9071C5.87565 26.5824 5.60217 28.2479 5.20467 29.9038ZM13.1022 29.9038H22.8972C22.643 28.2371 22.448 26.5731 22.3122 24.9117C22.1766 23.2503 22.0725 21.5724 21.9997 19.8779C21.1705 19.876 20.4066 19.6811 19.708 19.2933C19.0094 18.9053 18.44 18.3738 17.9997 17.6988C17.5594 18.3738 16.9813 18.9053 16.2655 19.2933C15.5497 19.6811 14.7944 19.876 13.9997 19.8779C13.9269 21.5724 13.8227 23.2503 13.6872 24.9117C13.5513 26.5731 13.3563 28.2371 13.1022 29.9038ZM25.4226 29.9038H30.7947C30.3972 28.2479 30.1237 26.5824 29.9743 24.9071C29.8245 23.2318 29.7219 21.5383 29.6663 19.8267C28.9827 19.72 28.3481 19.4893 27.7626 19.1346C27.177 18.7799 26.7005 18.3033 26.333 17.705C26.1002 18.0981 25.8187 18.4218 25.4884 18.6763C25.1584 18.9304 24.8202 19.1431 24.4738 19.3142C24.5466 21.0983 24.6594 22.866 24.8122 24.6171C24.965 26.3679 25.1684 28.1301 25.4226 29.9038ZM30.4997 17.4038C31.3544 17.4038 32.0543 17.0725 32.5993 16.41C33.144 15.7478 33.4163 14.9679 33.4163 14.0704H27.583C27.583 14.9679 27.8554 15.7478 28.4001 16.41C28.9451 17.0725 29.645 17.4038 30.4997 17.4038Z" fill="#FFD493"/>
</svg>
