<svg width="30" height="29" viewBox="0 0 30 29" fill="none" xmlns="http://www.w3.org/2000/svg">
<path d="M2.22745 29.0071L0.471202 27.2508L17.4583 10.2637C16.9263 9.01151 16.8302 7.69471 17.17 6.31332C17.5097 4.93193 18.264 3.67387 19.4329 2.53915C20.7126 1.25943 22.2125 0.451791 23.9325 0.116235C25.6527 -0.21932 27.0716 0.171651 28.1891 1.28915C29.3066 2.40665 29.6976 3.82554 29.362 5.54582C29.0265 7.26582 28.2188 8.76582 26.9391 10.0458C25.8044 11.2144 24.5463 11.9686 23.165 12.3083C21.7836 12.648 20.4668 12.5519 19.2145 12.02L16.6504 14.5842L29.317 27.2508L27.5608 29.0071L14.8941 16.4237L2.22745 29.0071ZM7.24037 14.8533L2.43287 10.0458C1.06092 8.67388 0.350924 7.04249 0.302868 5.15165C0.254813 3.26054 0.879257 1.59707 2.1762 0.161234L12.0287 10.065L7.24037 14.8533Z" fill="#FFD493"/>
</svg>
