<svg width="31" height="32" viewBox="0 0 31 32" fill="none" xmlns="http://www.w3.org/2000/svg">
<path d="M8.6049 27.2692C9.1199 27.5556 9.6199 27.8147 10.1049 28.0467C10.5899 28.2783 11.0856 28.4722 11.592 28.6283V31.2787C11.0964 31.1399 10.5975 30.9807 10.0953 30.8012C9.59309 30.6218 9.0792 30.4049 8.55365 30.1504C7.3892 30.6612 6.20657 31.0417 5.00573 31.2917C3.8049 31.5417 2.57726 31.6667 1.32282 31.6667H0.438232V29.1667H1.32282C2.57059 29.1667 3.77198 29.0101 4.92698 28.6971C6.08198 28.384 7.30795 27.9081 8.6049 27.2692ZM10.967 0H18.1787V3.33333H22.7941C23.6224 3.33333 24.3317 3.62833 24.922 4.21833C25.512 4.80833 25.807 5.51764 25.807 6.34625V10.0067C25.4245 9.96167 25.0313 9.92792 24.6274 9.90542C24.2235 9.88292 23.7834 9.87167 23.307 9.87167V6.28208C23.307 6.15375 23.2616 6.04694 23.1707 5.96167C23.0799 5.87611 22.9703 5.83333 22.842 5.83333H6.30365C6.17532 5.83333 6.06573 5.87611 5.9749 5.96167C5.88407 6.04694 5.83865 6.15375 5.83865 6.28208V11.9521L14.5728 9.45542L17.8357 10.3558C17.1177 10.4797 16.3966 10.6843 15.6724 10.9696C14.948 11.2549 14.292 11.6924 13.7045 12.2821L2.82907 15.4104L4.66573 21.8271C5.09962 21.5279 5.50559 21.1983 5.88365 20.8383C6.26198 20.4781 6.63601 20.0971 7.00573 19.6954L8.42532 18.1858C8.92976 18.7564 9.44157 19.3253 9.96073 19.8925C10.4799 20.46 11.0236 21.0044 11.592 21.5258V24.6408C10.8378 24.2158 10.1766 23.7367 9.60823 23.2033C9.0399 22.6703 8.61143 22.2328 8.32282 21.8908C7.48087 22.7583 6.64434 23.4667 5.81323 24.0158C4.98212 24.565 4.07087 24.9828 3.07948 25.2692L0.0665658 15.1604C-0.0509342 14.7524 -0.0128784 14.3719 0.180733 14.0192C0.374622 13.6667 0.677399 13.4274 1.08907 13.3012L3.33907 12.6346V6.34625C3.33907 5.51764 3.63407 4.80833 4.22407 4.21833C4.81407 3.62833 5.52323 3.33333 6.35157 3.33333H10.967V0ZM17.5537 31.6667C17.342 31.6667 17.1609 31.5914 17.0103 31.4408C16.8598 31.29 16.7845 31.1089 16.7845 30.8975V28.9967C16.2995 28.7233 15.9218 28.3526 15.6516 27.8846C15.3813 27.4165 15.2461 26.9037 15.2461 26.3462V17.3717C15.2461 16.0383 15.8539 15.064 17.0695 14.4488C18.2853 13.8335 20.2041 13.5258 22.8257 13.5258C25.5482 13.5258 27.4975 13.8207 28.6737 14.4104C29.85 15.0001 30.4382 15.9872 30.4382 17.3717V26.3462C30.4382 26.884 30.3036 27.3897 30.0345 27.8633C29.765 28.3372 29.3868 28.715 28.8999 28.9967V30.8975C28.8999 31.1089 28.8245 31.29 28.6737 31.4408C28.5231 31.5914 28.342 31.6667 28.1303 31.6667H26.7845C26.5728 31.6667 26.3917 31.5914 26.2411 31.4408C26.0906 31.29 26.0153 31.1089 26.0153 30.8975V29.4229H19.6691V30.8975C19.6691 31.1089 19.5938 31.29 19.4432 31.4408C19.2924 31.5914 19.1113 31.6667 18.8999 31.6667H17.5537ZM19.502 26.6988C19.8792 26.6988 20.1936 26.5738 20.4453 26.3238C20.697 26.0738 20.8228 25.7613 20.8228 25.3863C20.8228 25.0113 20.6978 24.6982 20.4478 24.4471C20.1978 24.196 19.8853 24.0704 19.5103 24.0704C19.1353 24.0704 18.8223 24.1962 18.5711 24.4479C18.32 24.6996 18.1945 25.0142 18.1945 25.3917C18.1945 25.7439 18.3243 26.0497 18.5841 26.3092C18.8438 26.5689 19.1498 26.6988 19.502 26.6988ZM26.1686 26.6988C26.5459 26.6988 26.8603 26.5738 27.112 26.3238C27.3636 26.0738 27.4895 25.7613 27.4895 25.3863C27.4895 25.0113 27.3645 24.6982 27.1145 24.4471C26.8645 24.196 26.552 24.0704 26.177 24.0704C25.802 24.0704 25.4889 24.1962 25.2378 24.4479C24.9867 24.6996 24.8611 25.0142 24.8611 25.3917C24.8611 25.7439 24.991 26.0497 25.2507 26.3092C25.5105 26.5689 25.8164 26.6988 26.1686 26.6988ZM17.2332 20.8975H28.4511V17.8846H17.2332V20.8975Z" fill="#FFD493"/>
</svg>
