<svg width="26" height="22" viewBox="0 0 26 22" fill="none" xmlns="http://www.w3.org/2000/svg">
<path d="M13.0194 20.7213C12.3944 21.1379 11.7245 21.4448 11.0097 21.6419C10.2949 21.839 9.57292 21.9375 8.84375 21.9375C8.10667 21.9375 7.38594 21.8305 6.68156 21.6166C5.97719 21.4026 5.30208 21.1081 4.65625 20.7331C4.19792 21.004 3.72594 21.232 3.24031 21.4172C2.75469 21.6022 2.25146 21.7403 1.73062 21.8316C1.48562 21.8653 1.27135 21.7956 1.08781 21.6225C0.904271 21.4494 0.8125 21.2339 0.8125 20.9759C0.8125 20.7099 0.899062 20.484 1.07219 20.2981C1.24531 20.1123 1.46479 19.9857 1.73062 19.9184C2.13458 19.8222 2.51448 19.6888 2.87031 19.5181C3.22594 19.3475 3.57448 19.1476 3.91594 18.9184C4.12906 18.7676 4.3726 18.6922 4.64656 18.6922C4.92073 18.6922 5.16438 18.7676 5.3775 18.9184C5.89354 19.2645 6.44719 19.5365 7.03844 19.7344C7.6299 19.9323 8.23167 20.0312 8.84375 20.0312C9.44792 20.0312 10.0449 19.9435 10.6347 19.7681C11.2245 19.5925 11.7733 19.3356 12.2812 18.9975C12.5104 18.839 12.7689 18.7629 13.0566 18.7694C13.3443 18.7756 13.6027 18.8581 13.8319 19.0169C14.3398 19.355 14.8802 19.6086 15.4531 19.7778C16.026 19.9468 16.6146 20.0312 17.2188 20.0312C17.8598 20.0312 18.48 19.9219 19.0794 19.7031C19.6787 19.4844 20.2428 19.1979 20.7716 18.8438C20.9768 18.714 21.1883 18.6478 21.4062 18.6453C21.6242 18.643 21.8357 18.7132 22.0409 18.8559C22.3822 19.0851 22.7316 19.2914 23.0891 19.4747C23.4464 19.6582 23.8269 19.8021 24.2306 19.9062C24.4967 19.9865 24.7227 20.1182 24.9088 20.3016C25.0946 20.4851 25.1875 20.7099 25.1875 20.9759C25.1875 21.242 25.0925 21.4647 24.9025 21.6441C24.7127 21.8236 24.4848 21.8861 24.2188 21.8316C23.7188 21.7403 23.2344 21.597 22.7656 21.4016C22.2969 21.2059 21.8438 20.9831 21.4062 20.7331C20.7733 21.1081 20.1015 21.4026 19.3906 21.6166C18.6798 21.8305 17.9558 21.9375 17.2188 21.9375C16.4817 21.9375 15.7557 21.8305 15.0409 21.6166C14.3261 21.4026 13.6523 21.1042 13.0194 20.7213ZM0.8125 16.9134V14.125C0.8125 12.1763 1.18906 10.3629 1.94219 8.685C2.69552 7.00729 3.73125 5.5526 5.04938 4.32094C6.3675 3.08948 7.92198 2.12396 9.71281 1.42438C11.5036 0.724792 13.4327 0.375 15.5 0.375C15.806 0.375 16.1237 0.380208 16.4531 0.390625C16.7825 0.401042 17.1002 0.429479 17.4062 0.475937C17.7748 0.53052 18.052 0.721249 18.2378 1.04812C18.4239 1.375 18.4392 1.7099 18.2838 2.05281C18.0915 2.49031 17.944 2.91385 17.8412 3.32344C17.7388 3.73281 17.6875 4.17708 17.6875 4.65625C17.6875 5.89021 18.1238 6.94354 18.9963 7.81625C19.869 8.68875 20.9223 9.125 22.1562 9.125H24.25C24.516 9.125 24.7388 9.21479 24.9181 9.39437C25.0977 9.57375 25.1875 9.79646 25.1875 10.0625C25.1875 10.3285 25.0977 10.5513 24.9181 10.7306C24.7388 10.9102 24.516 11 24.25 11H22.1562C20.3902 11 18.8915 10.3842 17.66 9.1525C16.4283 7.92104 15.8125 6.42229 15.8125 4.65625C15.8125 4.2925 15.8474 3.9051 15.9172 3.49406C15.9868 3.08302 16.0793 2.70115 16.1947 2.34844C14.4368 2.7074 12.996 3.5424 11.8725 4.85344C10.7492 6.16427 10.1875 7.69635 10.1875 9.44969C10.1875 10.3357 10.3153 11.1654 10.5709 11.9388C10.8266 12.7121 11.2172 13.4769 11.7428 14.2331L12.3775 13.8319C12.5825 13.6892 12.794 13.6178 13.0119 13.6178C13.23 13.6178 13.4416 13.6892 13.6466 13.8319C14.1499 14.1731 14.7172 14.4583 15.3484 14.6875C15.9799 14.9167 16.6033 15.0312 17.2188 15.0312C17.8342 15.0312 18.4576 14.9127 19.0891 14.6756C19.7203 14.4383 20.2916 14.153 20.8028 13.8197C21.008 13.6899 21.2124 13.6218 21.4159 13.6153C21.6195 13.6091 21.8237 13.6708 22.0287 13.8006L22.8366 14.3175C23.0657 14.4425 23.296 14.5562 23.5275 14.6588C23.7592 14.7613 23.996 14.8438 24.2381 14.9062C24.504 14.9865 24.7286 15.1183 24.9122 15.3019C25.0957 15.4852 25.1875 15.7099 25.1875 15.9759C25.1875 16.2341 25.0925 16.4528 24.9025 16.6322C24.7127 16.8118 24.4888 16.8743 24.2306 16.8197C23.7835 16.7284 23.3277 16.5922 22.8631 16.4109C22.3983 16.2299 21.9127 15.992 21.4062 15.6972C20.7075 16.1299 20.0124 16.4448 19.3209 16.6419C18.6295 16.839 17.9287 16.9375 17.2188 16.9375C16.5248 16.9375 15.8008 16.8253 15.0469 16.6009C14.2929 16.3766 13.621 16.0753 13.0313 15.6972C12.3133 16.1411 11.6182 16.4556 10.9459 16.6406C10.2736 16.8258 9.57292 16.9248 8.84375 16.9375C8.11458 16.9504 7.4099 16.8567 6.72969 16.6562C6.04927 16.456 5.35813 16.1483 4.65625 15.7331C4.05042 16.0842 3.4226 16.3606 2.77281 16.5625C2.12302 16.7644 1.46958 16.8814 0.8125 16.9134ZM8.78125 15.0312C8.98167 15.0312 9.18198 15.0213 9.38219 15.0013C9.5826 14.9812 9.75896 14.9489 9.91125 14.9041C9.36458 14.0305 8.96146 13.153 8.70188 12.2716C8.44229 11.3903 8.3125 10.4497 8.3125 9.44969C8.3125 7.65802 8.76604 6.06177 9.67313 4.66094C10.5802 3.26031 11.8454 2.1626 13.4688 1.36781V2.44219C11.9448 2.66344 10.5377 3.10052 9.2475 3.75344C7.9575 4.40656 6.83896 5.22833 5.89187 6.21875C4.94479 7.20917 4.19313 8.34302 3.63688 9.62031C3.08083 10.8974 2.77073 12.2707 2.70656 13.7403V14.5337C2.94552 14.4456 3.17198 14.3478 3.38594 14.2403C3.5999 14.133 3.81177 14.0113 4.02156 13.875C4.22677 13.7325 4.43833 13.66 4.65625 13.6575C4.87417 13.6552 5.08167 13.7253 5.27875 13.8678C5.48229 14.0009 5.68385 14.1216 5.88344 14.2297C6.08302 14.3378 6.295 14.444 6.51937 14.5481C6.87354 14.7069 7.23812 14.8271 7.61312 14.9087C7.98812 14.9904 8.3775 15.0312 8.78125 15.0312Z" fill="white"/>
</svg>
