<svg width="30" height="30" viewBox="0 0 30 30" fill="none" xmlns="http://www.w3.org/2000/svg">
<path d="M15 5.45455C14.6136 5.45455 14.2898 5.32386 14.0284 5.0625C13.767 4.80114 13.6364 4.47727 13.6364 4.09091V1.36364C13.6364 0.977273 13.767 0.653409 14.0284 0.392045C14.2898 0.130682 14.6136 0 15 0C15.3864 0 15.7102 0.130682 15.9716 0.392045C16.233 0.653409 16.3636 0.977273 16.3636 1.36364V4.09091C16.3636 4.47727 16.233 4.80114 15.9716 5.0625C15.7102 5.32386 15.3864 5.45455 15 5.45455ZM21.75 8.25C21.5 8 21.375 7.6875 21.375 7.3125C21.375 6.9375 21.5 6.61364 21.75 6.34091L23.6591 4.39773C23.9318 4.125 24.2557 3.98864 24.6307 3.98864C25.0057 3.98864 25.3295 4.125 25.6023 4.39773C25.8523 4.64773 25.9773 4.96591 25.9773 5.35227C25.9773 5.73864 25.8523 6.05682 25.6023 6.30682L23.6591 8.25C23.4091 8.5 23.0909 8.625 22.7045 8.625C22.3182 8.625 22 8.5 21.75 8.25ZM25.9091 16.3636C25.5227 16.3636 25.1989 16.233 24.9375 15.9716C24.6761 15.7102 24.5455 15.3864 24.5455 15C24.5455 14.6136 24.6761 14.2898 24.9375 14.0284C25.1989 13.767 25.5227 13.6364 25.9091 13.6364H28.6364C29.0227 13.6364 29.3466 13.767 29.608 14.0284C29.8693 14.2898 30 14.6136 30 15C30 15.3864 29.8693 15.7102 29.608 15.9716C29.3466 16.233 29.0227 16.3636 28.6364 16.3636H25.9091ZM15 30C14.6136 30 14.2898 29.8693 14.0284 29.608C13.767 29.3466 13.6364 29.0227 13.6364 28.6364V25.9091C13.6364 25.5227 13.767 25.1989 14.0284 24.9375C14.2898 24.6761 14.6136 24.5455 15 24.5455C15.3864 24.5455 15.7102 24.6761 15.9716 24.9375C16.233 25.1989 16.3636 25.5227 16.3636 25.9091V28.6364C16.3636 29.0227 16.233 29.3466 15.9716 29.608C15.7102 29.8693 15.3864 30 15 30ZM6.34091 8.25L4.39773 6.34091C4.125 6.06818 3.98864 5.73864 3.98864 5.35227C3.98864 4.96591 4.125 4.64773 4.39773 4.39773C4.64773 4.14773 4.96591 4.02273 5.35227 4.02273C5.73864 4.02273 6.05682 4.14773 6.30682 4.39773L8.25 6.34091C8.5 6.59091 8.625 6.90909 8.625 7.29545C8.625 7.68182 8.5 8 8.25 8.25C7.97727 8.5 7.65909 8.625 7.29545 8.625C6.93182 8.625 6.61364 8.5 6.34091 8.25ZM23.6591 25.6023L21.75 23.6591C21.5 23.3864 21.375 23.0625 21.375 22.6875C21.375 22.3125 21.5 22 21.75 21.75C22 21.5 22.3125 21.375 22.6875 21.375C23.0625 21.375 23.3864 21.5 23.6591 21.75L25.6023 23.6591C25.875 23.9091 26.0057 24.2273 25.9943 24.6136C25.983 25 25.8523 25.3295 25.6023 25.6023C25.3295 25.875 25 26.0114 24.6136 26.0114C24.2273 26.0114 23.9091 25.875 23.6591 25.6023ZM1.36364 16.3636C0.977273 16.3636 0.653409 16.233 0.392045 15.9716C0.130682 15.7102 0 15.3864 0 15C0 14.6136 0.130682 14.2898 0.392045 14.0284C0.653409 13.767 0.977273 13.6364 1.36364 13.6364H4.09091C4.47727 13.6364 4.80114 13.767 5.0625 14.0284C5.32386 14.2898 5.45455 14.6136 5.45455 15C5.45455 15.3864 5.32386 15.7102 5.0625 15.9716C4.80114 16.233 4.47727 16.3636 4.09091 16.3636H1.36364ZM4.39773 25.6023C4.14773 25.3523 4.02273 25.0341 4.02273 24.6477C4.02273 24.2614 4.14773 23.9432 4.39773 23.6932L6.34091 21.75C6.59091 21.5 6.90341 21.375 7.27841 21.375C7.65341 21.375 7.97727 21.5 8.25 21.75C8.52273 22.0227 8.65909 22.3466 8.65909 22.7216C8.65909 23.0966 8.52273 23.4205 8.25 23.6932L6.34091 25.6023C6.06818 25.875 5.73864 26.0114 5.35227 26.0114C4.96591 26.0114 4.64773 25.875 4.39773 25.6023ZM15 23.1818C12.7273 23.1818 10.7955 22.3864 9.20455 20.7955C7.61364 19.2045 6.81818 17.2727 6.81818 15C6.81818 12.7273 7.61364 10.7955 9.20455 9.20455C10.7955 7.61364 12.7273 6.81818 15 6.81818C17.2727 6.81818 19.2045 7.61364 20.7955 9.20455C22.3864 10.7955 23.1818 12.7273 23.1818 15C23.1818 17.2727 22.3864 19.2045 20.7955 20.7955C19.2045 22.3864 17.2727 23.1818 15 23.1818ZM15 20.4545C16.5 20.4545 17.7841 19.9205 18.8523 18.8523C19.9205 17.7841 20.4545 16.5 20.4545 15C20.4545 13.5 19.9205 12.2159 18.8523 11.1477C17.7841 10.0795 16.5 9.54545 15 9.54545C13.5 9.54545 12.2159 10.0795 11.1477 11.1477C10.0795 12.2159 9.54545 13.5 9.54545 15C9.54545 16.5 10.0795 17.7841 11.1477 18.8523C12.2159 19.9205 13.5 20.4545 15 20.4545Z" fill="white"/>
</svg>
