<svg width="40" height="40" viewBox="0 0 40 40" fill="none" xmlns="http://www.w3.org/2000/svg">
<mask id="mask0_55_1444" style="mask-type:alpha" maskUnits="userSpaceOnUse" x="0" y="0" width="40" height="40">
<rect width="40" height="40" fill="#D9D9D9"/>
</mask>
<g mask="url(#mask0_55_1444)">
<path d="M27.1473 12.013L10.8715 28.2563C10.7157 28.4124 10.5244 28.4851 10.2977 28.4742C10.0713 28.4637 9.8801 28.3804 9.72398 28.2242C9.56815 28.0684 9.49023 27.8826 9.49023 27.6667C9.49023 27.4509 9.56815 27.2651 9.72398 27.1092L25.9677 10.8334H11.314C11.0779 10.8334 10.88 10.7534 10.7202 10.5934C10.5605 10.4334 10.4807 10.2352 10.4807 9.99883C10.4807 9.76244 10.5605 9.56466 10.7202 9.4055C10.88 9.24633 11.0779 9.16675 11.314 9.16675H27.4677C27.8491 9.16675 28.1688 9.29577 28.4269 9.55383C28.685 9.81189 28.814 10.1316 28.814 10.513V26.6667C28.814 26.9029 28.734 27.1008 28.574 27.2605C28.414 27.4202 28.2158 27.5001 27.9794 27.5001C27.743 27.5001 27.5452 27.4202 27.3861 27.2605C27.2269 27.1008 27.1473 26.9029 27.1473 26.6667V12.013Z" fill="#A8F9FF"/>
</g>
</svg>
