<svg width="26" height="26" viewBox="0 0 26 26" fill="none" xmlns="http://www.w3.org/2000/svg">
<mask id="mask0_63_1822" style="mask-type:alpha" maskUnits="userSpaceOnUse" x="0" y="0" width="26" height="26">
<rect width="26" height="26" fill="#D9D9D9"/>
</mask>
<g mask="url(#mask0_63_1822)">
<path d="M4.33333 7.58335C4.02639 7.58335 3.7691 7.47953 3.56146 7.2719C3.35382 7.06426 3.25 6.80696 3.25 6.50002C3.25 6.19308 3.35382 5.93578 3.56146 5.72815C3.7691 5.52051 4.02639 5.41669 4.33333 5.41669H21.6667C21.9736 5.41669 22.2309 5.52051 22.4385 5.72815C22.6462 5.93578 22.75 6.19308 22.75 6.50002C22.75 6.80696 22.6462 7.06426 22.4385 7.2719C22.2309 7.47953 21.9736 7.58335 21.6667 7.58335H4.33333ZM4.33333 20.5834C4.02639 20.5834 3.7691 20.4795 3.56146 20.2719C3.35382 20.0643 3.25 19.807 3.25 19.5C3.25 19.1931 3.35382 18.9358 3.56146 18.7281C3.7691 18.5205 4.02639 18.4167 4.33333 18.4167H21.6667C21.9736 18.4167 22.2309 18.5205 22.4385 18.7281C22.6462 18.9358 22.75 19.1931 22.75 19.5C22.75 19.807 22.6462 20.0643 22.4385 20.2719C22.2309 20.4795 21.9736 20.5834 21.6667 20.5834H4.33333ZM4.33333 14.0834C4.02639 14.0834 3.7691 13.9795 3.56146 13.7719C3.35382 13.5643 3.25 13.307 3.25 13C3.25 12.6931 3.35382 12.4358 3.56146 12.2281C3.7691 12.0205 4.02639 11.9167 4.33333 11.9167H21.6667C21.9736 11.9167 22.2309 12.0205 22.4385 12.2281C22.6462 12.4358 22.75 12.6931 22.75 13C22.75 13.307 22.6462 13.5643 22.4385 13.7719C22.2309 13.9795 21.9736 14.0834 21.6667 14.0834H4.33333Z" fill="white"/>
</g>
</svg>
