<svg width="300" height="102" viewBox="0 0 300 102" fill="none" xmlns="http://www.w3.org/2000/svg">
<g clip-path="url(#clip0_82_72)">
<path d="M87.759 77.558C85.709 76.8073 85.3206 76.3068 85.3206 75.4457C85.3206 74.5846 85.9104 73.9002 87.313 73.9002C88.3416 73.9002 89.0249 74.2461 89.7729 74.879L90.5066 73.959C89.6434 73.2525 88.7659 72.8403 87.3849 72.8403C85.4717 72.8403 84.177 73.8413 84.177 75.5193C84.177 77.0354 84.925 77.7714 87.1404 78.581C89.0177 79.2728 89.5859 79.8248 89.5859 80.7963C89.5859 81.9077 88.7372 82.5995 87.3778 82.5995C86.3204 82.5995 85.4285 82.099 84.6517 81.3409L83.8965 82.2094C84.7021 83.0484 85.9464 83.6667 87.3418 83.6667C89.478 83.6667 90.7367 82.386 90.7367 80.7448C90.7367 79.1036 90.039 78.4044 87.7662 77.5653L87.759 77.558Z" fill="#004289"/>
<path d="M95.3827 75.4678C94.3829 75.4678 93.4766 75.7181 92.8005 76.0934L93.2177 77.0061C93.8434 76.6307 94.5052 76.4025 95.3107 76.4025C96.4328 76.4025 96.9794 76.9693 96.9794 78.1468V79.0742C96.5263 78.8166 95.8286 78.6179 95.059 78.6179C93.5413 78.6179 92.1172 79.3686 92.1172 81.1349C92.1172 83.0338 93.3759 83.652 94.5699 83.652C95.6776 83.652 96.4328 83.1221 96.9794 82.5259V83.4901H98.0727V77.9996C98.0727 76.1744 97.037 75.4531 95.3827 75.4531V75.4678ZM96.9723 81.5692C96.5047 82.2242 95.7567 82.7467 94.7641 82.7467C93.8219 82.7467 93.1889 82.2389 93.1889 81.0687C93.1889 80.0825 93.865 79.5231 94.9943 79.5231C95.9293 79.5231 96.4688 79.6998 96.9723 79.9794V81.5765V81.5692Z" fill="#004289"/>
<path d="M109.106 78.8901V83.4974H110.199V78.7061C110.199 76.4098 109.221 75.4678 107.653 75.4678C106.401 75.4678 105.776 76.0639 105.323 76.8146C104.956 76.0639 104.301 75.4678 103.215 75.4678C102.309 75.4678 101.661 75.9167 101.266 76.5938V75.637H100.158V83.5047H101.266V78.8975C101.266 77.1532 101.92 76.4393 102.978 76.4393C104.035 76.4393 104.632 77.0943 104.632 78.8975V83.5047H105.733V78.8975C105.733 77.1532 106.401 76.4393 107.444 76.4393C108.552 76.4393 109.099 77.0943 109.099 78.8975L109.106 78.8901Z" fill="#004289"/>
<path d="M114.609 78.9196C113.307 78.3161 112.919 78.0585 112.919 77.3887C112.919 76.8147 113.379 76.4172 114.192 76.4172C115.005 76.4172 115.508 76.638 116.105 77.1238L116.716 76.2921C116.134 75.799 115.314 75.4604 114.264 75.4604C112.861 75.4604 111.861 76.27 111.861 77.4623C111.861 78.7209 112.501 79.1992 114.048 79.8764C115.407 80.4725 115.86 80.8331 115.86 81.4808C115.86 82.2462 115.364 82.6952 114.307 82.6952C113.544 82.6952 112.825 82.3787 112.214 81.8267L111.566 82.6437C112.3 83.2472 113.221 83.652 114.278 83.652C115.609 83.652 116.911 82.9822 116.911 81.4293C116.911 80.0235 116.062 79.5893 114.602 78.9122L114.609 78.9196Z" fill="#004289"/>
<path d="M123.328 80.2298C123.328 81.952 122.486 82.6806 121.429 82.6806C120.192 82.6806 119.609 81.9225 119.609 80.2298V75.6299H118.516V80.4211C118.516 82.6806 119.587 83.6595 121.206 83.6595C122.177 83.6595 122.889 83.1958 123.328 82.5334V83.4975H124.428V75.6299H123.328V80.2298Z" fill="#004289"/>
<path d="M132.195 83.4974V78.7061C132.195 76.4393 131.123 75.4678 129.498 75.4678C128.534 75.4678 127.815 75.9314 127.383 76.5938V75.637H126.275V83.5047H127.383V78.8975C127.383 77.1753 128.21 76.4393 129.275 76.4393C130.505 76.4393 131.094 77.2047 131.094 78.8975V83.5047H132.195V83.4974Z" fill="#004289"/>
<path d="M135.654 85.5287L136.007 86.3825C138.862 86.2941 139.898 85.1534 139.898 82.7835V75.6224H138.797V76.5055C138.258 75.8726 137.596 75.4604 136.632 75.4604C135.021 75.4604 133.727 76.8956 133.727 79.685C133.727 82.4744 134.949 83.652 136.481 83.652C137.524 83.652 138.258 83.122 138.797 82.5259V82.9307C138.797 84.7633 138.215 85.4551 135.647 85.5213L135.654 85.5287ZM136.769 82.6804C135.554 82.6804 134.82 81.6501 134.82 79.6703C134.82 77.558 135.446 76.4319 136.726 76.4319C137.639 76.4319 138.38 76.9545 138.805 77.6095V81.547C138.265 82.2389 137.589 82.6804 136.769 82.6804Z" fill="#004289"/>
<path d="M152.026 78.1764C152.026 74.5774 150.04 73.0024 147.35 73.0024H144.639V83.4976H147.149C149.889 83.4976 152.026 81.9814 152.026 78.1764ZM145.782 74.0623H147.264C149.623 74.0623 150.882 75.5342 150.882 78.2132C150.882 81.2307 149.501 82.4304 147.293 82.4304H145.782V74.0623Z" fill="#004289"/>
<path d="M154.954 76.6012V75.6297H153.854V83.4973H154.954V78.8753C154.954 77.3739 155.558 76.4981 156.63 76.4981C157.141 76.4981 157.471 76.6159 157.781 76.7999L158.054 75.6664C157.795 75.5487 157.428 75.4751 156.853 75.4751C156.026 75.4751 155.299 75.9829 154.954 76.6085V76.6012Z" fill="#004289"/>
<path d="M164.628 82.7466L164.11 81.937C163.405 82.4154 162.88 82.6877 161.981 82.6877C160.729 82.6877 159.945 81.6206 159.845 79.9499H164.966C165.002 79.7659 165.016 79.604 165.016 79.339C165.016 77.0943 163.923 75.4751 161.916 75.4751C160.089 75.4751 158.744 77.028 158.744 79.523C158.744 82.6215 160.456 83.6666 161.866 83.6666C163.024 83.6666 163.7 83.3501 164.628 82.754V82.7466ZM161.916 76.4392C163.261 76.4392 163.908 77.5064 163.995 79.0299H159.845C159.974 77.2709 160.772 76.4392 161.916 76.4392Z" fill="#004289"/>
<path d="M168.683 83.6593C169.784 83.6593 170.539 83.1294 171.078 82.5333V83.4974H172.179V78.007C172.179 76.1817 171.143 75.4604 169.489 75.4604C168.489 75.4604 167.583 75.7107 166.907 76.086L167.317 76.9987C167.95 76.6233 168.604 76.3952 169.41 76.3952C170.539 76.3952 171.078 76.9619 171.078 78.1394V79.0668C170.625 78.8092 169.935 78.6105 169.165 78.6105C167.64 78.6105 166.209 79.3612 166.209 81.1275C166.209 83.0264 167.475 83.6446 168.676 83.6446L168.683 83.6593ZM169.108 79.5157C170.043 79.5157 170.589 79.6924 171.086 79.972V81.5691C170.618 82.2241 169.87 82.7467 168.877 82.7467C167.942 82.7467 167.302 82.2389 167.302 81.0686C167.302 80.0824 167.986 79.5231 169.108 79.5231V79.5157Z" fill="#004289"/>
<path d="M183.214 78.8901V83.4974H184.314V78.7061C184.314 76.4098 183.336 75.4678 181.768 75.4678C180.524 75.4678 179.891 76.0639 179.445 76.8146C179.078 76.0639 178.424 75.4678 177.337 75.4678C176.424 75.4678 175.784 75.9167 175.388 76.5938V75.637H174.295V83.5047H175.388V78.8975C175.388 77.1532 176.05 76.4393 177.107 76.4393C178.165 76.4393 178.769 77.0943 178.769 78.8975V83.5047H179.862V78.8975C179.862 77.1532 180.531 76.4393 181.581 76.4393C182.689 76.4393 183.235 77.0943 183.235 78.8975L183.214 78.8901Z" fill="#004289"/>
<path d="M87.759 93.1683C85.7019 92.4176 85.3278 91.9245 85.3278 91.056C85.3278 90.1876 85.9176 89.5178 87.3202 89.5178C88.3488 89.5178 89.0393 89.8564 89.7801 90.4893L90.5138 89.5767C89.6506 88.8775 88.7659 88.458 87.3921 88.458C85.4717 88.458 84.1842 89.4442 84.1842 91.137C84.1842 92.6531 84.9322 93.3817 87.1476 94.1913C89.0249 94.8905 89.5931 95.4351 89.5931 96.414C89.5931 97.518 88.7444 98.2098 87.3778 98.2098C86.3204 98.2098 85.4285 97.7093 84.6517 96.9513L83.8965 97.8197C84.7021 98.6587 85.9464 99.2696 87.3418 99.2696C89.478 99.2696 90.7295 97.9964 90.7295 96.3478C90.7295 94.6992 90.0318 94.0073 87.7662 93.1683H87.759Z" fill="#004289"/>
<path d="M95.3982 92.0497C96.175 92.0497 96.6857 92.3293 97.2395 92.8445L97.9013 92.0055C97.2971 91.4609 96.4987 91.0708 95.4701 91.0708C93.859 91.0708 92.1543 92.2999 92.1543 95.207C92.1543 97.9523 93.7007 99.2623 95.391 99.2623C96.4699 99.2623 97.218 98.8428 97.8653 98.1657L97.2036 97.4518C96.6785 97.9743 96.1822 98.2834 95.4342 98.2834C94.0747 98.2834 93.262 97.0396 93.262 95.104C93.262 93.1684 94.1898 92.0349 95.391 92.0349L95.3982 92.0497Z" fill="#004289"/>
<path d="M102.597 91.0783C101.634 91.0783 100.907 91.542 100.468 92.2044V88.5098H99.375V99.1226H100.468V94.5154C100.468 92.7932 101.31 92.0572 102.374 92.0572C103.611 92.0572 104.194 92.8153 104.194 94.5154V99.1226H105.295V94.3167C105.295 92.0572 104.223 91.0783 102.597 91.0783Z" fill="#004289"/>
<path d="M110.201 91.0781C108.331 91.0781 106.842 92.5133 106.842 95.1849C106.842 97.8565 108.273 99.277 110.143 99.277C112.013 99.277 113.517 97.7977 113.517 95.126C113.517 92.4544 112.071 91.0781 110.201 91.0781ZM110.179 98.2981C108.841 98.2981 107.942 97.2236 107.942 95.1555C107.942 93.0874 108.841 92.057 110.179 92.057C111.517 92.057 112.416 93.0874 112.416 95.1555C112.416 97.2236 111.51 98.2981 110.179 98.2981Z" fill="#004289"/>
<path d="M116.27 88.5024H115.17V99.1153H116.27V88.5024Z" fill="#004289"/>
<path d="M121.299 91.0781C120.3 91.0781 119.393 91.3357 118.724 91.7111L119.134 92.6311C119.767 92.2557 120.429 92.0275 121.235 92.0275C122.357 92.0275 122.903 92.6016 122.903 93.7645V94.6992C122.45 94.4416 121.76 94.2429 120.99 94.2429C119.465 94.2429 118.041 94.9936 118.041 96.7673C118.041 98.6661 119.3 99.277 120.501 99.277C121.601 99.277 122.357 98.7544 122.903 98.1583V99.1224H124.004V93.6394C124.004 91.7994 122.961 91.0855 121.306 91.0855L121.299 91.0781ZM122.896 97.1794C122.436 97.8271 121.673 98.357 120.688 98.357C119.753 98.357 119.12 97.8492 119.12 96.679C119.12 95.6854 119.796 95.1408 120.925 95.1408C121.86 95.1408 122.4 95.3027 122.896 95.5897V97.1794Z" fill="#004289"/>
<path d="M127.188 92.219V91.2327H126.088V99.1078H127.188V94.4858C127.188 92.9918 127.778 92.1012 128.857 92.1012C129.375 92.1012 129.706 92.219 130.015 92.403L130.296 91.2622C130.029 91.1444 129.67 91.0635 129.094 91.0635C128.274 91.0635 127.534 91.5713 127.196 92.2116L127.188 92.219Z" fill="#004289"/>
<path d="M134.511 94.5372C133.209 93.9337 132.813 93.6614 132.813 93.0064C132.813 92.4397 133.281 92.0349 134.086 92.0349C134.892 92.0349 135.41 92.2631 136.007 92.7415L136.618 91.9171C136.028 91.424 135.216 91.0781 134.158 91.0781C132.763 91.0781 131.749 91.8877 131.749 93.0874C131.749 94.287 132.396 94.8243 133.935 95.494C135.295 96.0902 135.748 96.4582 135.748 97.0985C135.748 97.8713 135.251 98.3128 134.201 98.3128C133.432 98.3128 132.72 97.9964 132.101 97.4444L131.461 98.2687C132.195 98.8722 133.115 99.2696 134.173 99.2696C135.503 99.2696 136.805 98.5925 136.805 97.0543C136.805 95.6412 135.956 95.2144 134.503 94.5372H134.511Z" fill="#004289"/>
<path d="M141.827 91.0783C140.849 91.0783 140.137 91.542 139.698 92.2044V88.5098H138.598V99.1226H139.698V94.5154C139.698 92.7932 140.532 92.0572 141.604 92.0572C142.834 92.0572 143.417 92.8153 143.417 94.5154V99.1226H144.517V94.3167C144.517 92.0572 143.453 91.0783 141.827 91.0783Z" fill="#004289"/>
<path d="M147.783 91.2329H146.689V99.1079H147.783V91.2329Z" fill="#004289"/>
<path d="M147.257 88.23C146.811 88.23 146.459 88.5906 146.459 89.0469C146.459 89.5032 146.811 89.8418 147.257 89.8418C147.667 89.8418 148.02 89.4738 148.02 89.0469C148.02 88.5906 147.667 88.23 147.257 88.23Z" fill="#004289"/>
<path d="M153.415 91.0781C152.379 91.0781 151.645 91.608 151.099 92.2042V91.24H149.998V102.007H151.099V98.2319C151.638 98.8575 152.3 99.277 153.271 99.277C154.875 99.277 156.169 97.8345 156.169 95.0524C156.169 92.2704 154.947 91.0781 153.415 91.0781ZM153.177 98.2981C152.271 98.2981 151.523 97.7756 151.099 97.1132V93.183C151.638 92.4986 152.314 92.0496 153.134 92.0496C154.357 92.0496 155.09 93.08 155.09 95.0598C155.09 97.1721 154.458 98.2908 153.184 98.2908L153.177 98.2981Z" fill="#004289"/>
<path d="M161.987 89.6799H166.864V88.6201H160.844V99.1152H161.987V94.221H164.8V93.1611H161.987V89.6799Z" fill="#004289"/>
<path d="M170.202 91.0781C168.332 91.0781 166.836 92.5133 166.836 95.1849C166.836 97.8565 168.274 99.277 170.145 99.277C172.015 99.277 173.518 97.7977 173.518 95.126C173.518 92.4544 172.087 91.0781 170.202 91.0781ZM170.181 98.2981C168.843 98.2981 167.958 97.2236 167.958 95.1555C167.958 93.0874 168.85 92.057 170.181 92.057C171.511 92.057 172.425 93.0874 172.425 95.1555C172.425 97.2236 171.518 98.2981 170.181 98.2981Z" fill="#004289"/>
<path d="M179.581 95.8402C179.581 97.5624 178.754 98.2984 177.683 98.2984C176.453 98.2984 175.863 97.5403 175.863 95.8402V91.2329H174.77V96.0315C174.77 98.291 175.841 99.2699 177.467 99.2699C178.423 99.2699 179.143 98.8135 179.581 98.1512V99.1153H180.689V91.2403H179.581V95.8475V95.8402Z" fill="#004289"/>
<path d="M185.752 91.0782C184.788 91.0782 184.069 91.5418 183.63 92.2042V91.2401H182.529V99.1151H183.63V94.5078C183.63 92.7856 184.464 92.0497 185.536 92.0497C186.766 92.0497 187.348 92.8077 187.348 94.5078V99.1151H188.449V94.3091C188.449 92.0497 187.377 91.0708 185.752 91.0708V91.0782Z" fill="#004289"/>
<path d="M195.059 92.1308C194.512 91.4979 193.858 91.071 192.887 91.071C191.276 91.071 189.988 92.5062 189.988 95.3029C189.988 98.0997 191.204 99.2699 192.743 99.2699C193.786 99.2699 194.512 98.7473 195.052 98.1512V99.1153H196.152V88.5024H195.052V92.1308H195.059ZM195.059 97.165C194.512 97.8494 193.844 98.2984 193.024 98.2984C191.808 98.2984 191.074 97.268 191.074 95.2882C191.074 93.1686 191.7 92.0499 192.98 92.0499C193.887 92.0499 194.628 92.5724 195.059 93.2348V97.1576V97.165Z" fill="#004289"/>
<path d="M200.814 91.0781C199.821 91.0781 198.915 91.3357 198.239 91.7111L198.641 92.6311C199.274 92.2557 199.936 92.0275 200.742 92.0275C201.864 92.0275 202.403 92.6016 202.403 93.7645V94.6992C201.95 94.4416 201.26 94.2429 200.483 94.2429C198.965 94.2429 197.541 94.9936 197.541 96.7673C197.541 98.6661 198.807 99.277 200.008 99.277C201.109 99.277 201.864 98.7544 202.403 98.1583V99.1224H203.504V93.6394C203.504 91.7994 202.468 91.0855 200.806 91.0855L200.814 91.0781ZM202.41 97.1794C201.943 97.8271 201.202 98.357 200.195 98.357C199.267 98.357 198.641 97.8492 198.641 96.679C198.641 95.6854 199.31 95.1408 200.44 95.1408C201.375 95.1408 201.921 95.3027 202.41 95.5897V97.1794Z" fill="#004289"/>
<path d="M207.014 88.5024H205.906V91.2329H204.957V92.1824H205.906V97.4888C205.906 98.7915 206.424 99.2625 207.381 99.2625C207.956 99.2625 208.366 99.1742 208.791 98.9976L208.87 98.0261C208.517 98.1733 208.23 98.2469 207.784 98.2469C207.201 98.2469 207.014 98.004 207.014 97.3048V92.1824H208.92V91.2329H207.014V88.5024Z" fill="#004289"/>
<path d="M211.416 88.23C210.963 88.23 210.604 88.5906 210.604 89.0469C210.604 89.5032 210.963 89.8418 211.416 89.8418C211.826 89.8418 212.172 89.4738 212.172 89.0469C212.172 88.5906 211.819 88.23 211.416 88.23Z" fill="#004289"/>
<path d="M211.94 91.2329H210.84V99.1079H211.94V91.2329Z" fill="#004289"/>
<path d="M216.962 91.0781C215.092 91.0781 213.596 92.5133 213.596 95.1849C213.596 97.8565 215.027 99.277 216.904 99.277C218.782 99.277 220.271 97.7977 220.271 95.126C220.271 92.4544 218.832 91.0781 216.962 91.0781ZM216.933 98.2981C215.602 98.2981 214.703 97.2236 214.703 95.1555C214.703 93.0874 215.602 92.057 216.933 92.057C218.264 92.057 219.177 93.0874 219.177 95.1555C219.177 97.2236 218.271 98.2981 216.933 98.2981Z" fill="#004289"/>
<path d="M225.081 91.0782C224.117 91.0782 223.398 91.5418 222.952 92.2042V91.2401H221.852V99.1151H222.952V94.5078C222.952 92.7856 223.786 92.0497 224.858 92.0497C226.088 92.0497 226.678 92.8077 226.678 94.5078V99.1151H227.771V94.3091C227.771 92.0497 226.699 91.0708 225.081 91.0708V91.0782Z" fill="#004289"/>
<path d="M126.21 52.3433C121.794 52.3506 118.154 55.8833 118.154 60.314C118.154 64.7446 121.794 68.2405 126.21 68.2552C130.67 68.2405 134.273 64.7004 134.273 60.314C134.273 55.9275 130.67 52.3506 126.21 52.3433ZM126.102 64.6195C123.793 64.6195 122.053 62.6912 122.053 60.314C122.053 57.9367 123.916 55.9717 126.217 55.9717C128.519 55.9717 130.317 57.8999 130.317 60.314C130.317 62.728 128.433 64.6195 126.109 64.6195H126.102Z" fill="#004289"/>
<path d="M89.2478 46.86C90.4778 48.1039 91.8875 49.1931 93.2757 49.8923L93.4196 49.9733L95.8004 47.0956L95.5702 46.9631C93.3117 45.7119 91.5423 44.1295 90.3843 42.135C89.2334 40.17 88.6436 37.8884 88.6436 35.1579V32.5967H84.3856V34.8856C84.3856 37.8442 83.731 40.17 82.5011 42.2086C81.1273 44.4681 79.0917 46.286 76.488 47.9714L76.2578 48.1186L78.84 50.8564L78.9838 50.7755C80.5231 49.9217 82.1558 48.6043 83.5728 47.1324C84.8027 45.8444 85.8673 44.4681 86.5146 43.1654C87.1404 44.446 88.097 45.7487 89.2478 46.8674V46.86Z" fill="#004289"/>
<path d="M84.6367 66.3713H102.46V53.9111H84.6367V66.3713ZM88.643 57.4291H98.4539V62.8533H88.643V57.4291Z" fill="#004289"/>
<path d="M144.062 66.3713H164.216V53.9111H144.062V66.3713ZM148.026 57.4291H160.26V62.8533H148.026V57.4291Z" fill="#004289"/>
<path d="M102.533 31.8608H98.5703V52.4831H102.533V43.3569H107.173V39.6917H102.533V31.8608Z" fill="#004289"/>
<path d="M184.702 47.9127C186.004 49.0682 187.493 50.0397 188.895 50.6653L189.039 50.7315L191.182 47.7655L190.952 47.6477C188.91 46.5806 187.09 45.2558 185.781 43.6366C184.45 41.988 183.659 40.0009 183.659 37.6089V36.9097H189.557V33.3623H173.546V36.9097H179.437V37.7635C179.437 39.942 178.732 41.9733 177.559 43.7323C176.186 45.8446 174.179 47.5447 172.23 48.6487L171.971 48.7885L174.603 51.5779L174.747 51.5043C176.164 50.68 177.732 49.4362 179.07 48.0378C180.142 46.8897 181.105 45.6753 181.695 44.4609C182.407 45.6385 183.501 46.8161 184.709 47.9127H184.702Z" fill="#004289"/>
<path d="M213.365 57.5097H227.772V66.3636H231.771V53.9917H213.365V57.5097Z" fill="#004289"/>
<path d="M223.305 43.3275C223.305 41.3772 222.449 39.5814 221.183 38.2124H225.139V34.7018H217.587V30.8379H213.293V34.7018H205.561V38.2124H209.603C208.366 39.5814 207.51 41.3625 207.51 43.3275C207.51 47.6772 211.013 51.2099 215.393 51.2246C219.773 51.2099 223.298 47.6772 223.305 43.3275ZM211.329 43.1656C211.329 40.759 213.314 38.7203 215.393 38.7203C217.472 38.7203 219.45 40.7663 219.457 43.1656C219.457 45.5355 217.472 47.5815 215.393 47.5889C213.307 47.5815 211.336 45.5355 211.329 43.1656Z" fill="#004289"/>
<path d="M231.77 31.8608H227.814V52.5567H231.77V44.6596H236.424V40.9944H231.77V31.8608Z" fill="#004289"/>
<path d="M198.202 31.8608H194.246V52.5567H198.202V43.3569H202.849V39.6917H198.202V31.8608Z" fill="#004289"/>
<path d="M131.051 37.9989H124.822V41.6273H131.051V53.2117H135.014V31.8608H131.051V37.9989Z" fill="#004289"/>
<path d="M120.99 47.3973C122.227 48.6338 123.673 49.723 125.054 50.459L125.205 50.5473L127.586 47.6696L127.355 47.5371C125.097 46.3228 123.363 44.7478 122.198 42.7827C121.019 40.8323 120.429 38.4625 120.429 35.732V32.5967H116.164V35.467C116.164 38.4257 115.516 40.744 114.315 42.7459C112.948 45.0422 110.87 46.8748 108.266 48.5454L108.043 48.6926L110.64 51.4379L110.769 51.3495C112.301 50.4884 113.898 49.2446 115.315 47.8242C116.595 46.5215 117.66 45.101 118.307 43.7395C118.918 44.9833 119.853 46.2492 120.99 47.4047V47.3973Z" fill="#004289"/>
<path d="M189.708 52.3433C185.291 52.3506 181.652 55.8833 181.645 60.314C181.652 64.7004 185.284 68.2405 189.708 68.2552C194.16 68.2405 197.771 64.7004 197.771 60.314C197.771 55.9275 194.16 52.3506 189.708 52.3433ZM189.592 64.6195C187.291 64.6195 185.536 62.6912 185.536 60.314C185.536 57.9367 187.391 55.9717 189.708 55.9717C192.024 55.9717 193.8 57.8999 193.807 60.314C193.807 62.6838 191.916 64.6195 189.592 64.6195Z" fill="#004289"/>
<path d="M148.891 43.6882H152.854V33.1562H142.158V36.6595H148.891V43.6882Z" fill="#004289"/>
<path d="M160.786 43.6882H164.756V33.1562H154.061V36.6595H160.786V43.6882Z" fill="#004289"/>
<path d="M261.808 41.1858H258.478V32.4349H254.73V65.4806H258.478V45.1601H261.808V66.3638H265.692V31.8608H261.808V41.1858Z" fill="#004289"/>
<path d="M249.235 45.7562C248.343 43.7617 247.976 41.5317 247.976 38.7938V37.4911H252.471V33.7744H239.409V37.4911H244.049V38.8674C244.049 41.4581 243.718 43.5777 242.92 45.5428C241.992 47.8023 240.431 49.8336 237.942 52.0121L237.77 52.174L240.229 54.669L240.38 54.5512C241.618 53.6165 242.912 52.2623 243.991 50.864C244.905 49.6864 245.674 48.4647 246.156 47.3901C246.653 48.4352 247.429 49.6349 248.336 50.7536C249.386 52.0636 250.573 53.3074 251.709 54.0508L251.86 54.1538L253.932 51.622L253.766 51.4675C251.536 49.4803 250.155 47.7066 249.249 45.7489L249.235 45.7562Z" fill="#004289"/>
<path d="M138.842 48.5898H151.997V52.52H156.291V48.5898H169.655V45.0645H138.842V48.5898Z" fill="#004289"/>
<path d="M288.256 47.4638H274.863V37.0349H285.062V33.3623H270.85V51.0259H288.256V47.4638Z" fill="#004289"/>
<path d="M280.682 55.3682H276.676V66.3638H295.413V62.7427H280.682V55.3682Z" fill="#004289"/>
<path d="M295.319 41.4139V31.8535H291.363V57.3112H295.319V45.0791H300.002V41.4139H295.319Z" fill="#004289"/>
<path d="M84.0175 21.2111L73.7535 16.8614L84.0175 12.5117L82.1905 8.01486L71.9337 12.3645L76.1846 1.86204L71.7827 0L67.539 10.5025L63.2881 0L58.8862 1.86204L63.1371 12.3645L52.8803 8.01486L51.0605 12.5117L61.3173 16.8614L51.0605 21.2111L52.8803 25.7079L63.1371 21.3582L58.8862 31.8607L63.2881 33.7228L67.539 23.2276L71.7827 33.7228L76.1846 31.8534L71.9337 21.3582L82.1905 25.7079L84.0175 21.2111Z" fill="#009FE3"/>
<path d="M17.6082 50.5107H24.434V31.8608H1.09375V38.1461H17.6082V50.5107Z" fill="#009FE3"/>
<path d="M44.2351 50.5107H51.061V31.8608H27.7207V38.1461H44.2351V50.5107Z" fill="#009FE3"/>
<path d="M0 60.1593H44.2351V69.7639H51.0609V53.874H0V60.1593Z" fill="#009FE3"/>
<path d="M16.5137 99.1152H51.0602V72.9951H16.5137V99.1152ZM23.3323 79.2878H44.2343V92.8372H23.3323V79.2878Z" fill="#009FE3"/>
</g>
<defs>
<clipPath id="clip0_82_72">
<rect width="300" height="102" fill="white"/>
</clipPath>
</defs>
</svg>
