<svg width="178" height="59" viewBox="0 0 178 59" fill="none" xmlns="http://www.w3.org/2000/svg">
<g clip-path="url(#clip0_165_226)">
<path d="M52.0701 44.862C50.8538 44.4278 50.6233 44.1383 50.6233 43.6402C50.6233 43.1421 50.9733 42.7462 51.8055 42.7462C52.4157 42.7462 52.8212 42.9463 53.265 43.3124L53.7003 42.7803C53.1882 42.3716 52.6675 42.1332 51.8481 42.1332C50.7129 42.1332 49.9448 42.7122 49.9448 43.6828C49.9448 44.5598 50.3886 44.9855 51.703 45.4538C52.8169 45.8539 53.154 46.1732 53.154 46.7352C53.154 47.378 52.6505 47.7782 51.8439 47.7782C51.2165 47.7782 50.6873 47.4887 50.2264 47.0502L49.7783 47.5525C50.2563 48.0379 50.9946 48.3955 51.8225 48.3955C53.09 48.3955 53.8369 47.6547 53.8369 46.7054C53.8369 45.756 53.4229 45.3516 52.0743 44.8663L52.0701 44.862Z" fill="#004289"/>
<path d="M56.5938 43.653C56.0006 43.653 55.4628 43.7978 55.0617 44.0149L55.3092 44.5428C55.6805 44.3257 56.0731 44.1937 56.5511 44.1937C57.2168 44.1937 57.5412 44.5215 57.5412 45.2027V45.7391C57.2723 45.5901 56.8584 45.4751 56.4017 45.4751C55.5012 45.4751 54.6562 45.9093 54.6562 46.9311C54.6562 48.0294 55.4031 48.387 56.1115 48.387C56.7687 48.387 57.2168 48.0805 57.5412 47.7357V48.2934H58.1899V45.1175C58.1899 44.0617 57.5753 43.6445 56.5938 43.6445V43.653ZM57.5369 47.1822C57.2595 47.5611 56.8157 47.8634 56.2267 47.8634C55.6677 47.8634 55.2921 47.5696 55.2921 46.8927C55.2921 46.3223 55.6933 45.9987 56.3633 45.9987C56.9181 45.9987 57.2382 46.1009 57.5369 46.2627V47.1865V47.1822Z" fill="#004289"/>
<path d="M64.7367 45.6325V48.2975H65.3854V45.5261C65.3854 44.1979 64.805 43.653 63.8746 43.653C63.1321 43.653 62.7608 43.9978 62.4919 44.432C62.2743 43.9978 61.8859 43.653 61.2415 43.653C60.7038 43.653 60.3197 43.9126 60.085 44.3043V43.7509H59.4277V48.3018H60.085V45.6368C60.085 44.6278 60.4733 44.2149 61.1007 44.2149C61.728 44.2149 62.0822 44.5938 62.0822 45.6368V48.3018H62.7352V45.6368C62.7352 44.6278 63.1321 44.2149 63.7509 44.2149C64.4081 44.2149 64.7324 44.5938 64.7324 45.6368L64.7367 45.6325Z" fill="#004289"/>
<path d="M68.0015 45.6495C67.2291 45.3005 66.9986 45.1515 66.9986 44.7641C66.9986 44.432 67.2717 44.2021 67.754 44.2021C68.2362 44.2021 68.535 44.3298 68.8892 44.6108L69.2519 44.1297C68.9063 43.8445 68.4197 43.6487 67.7967 43.6487C66.9645 43.6487 66.3713 44.117 66.3713 44.8066C66.3713 45.5346 66.7511 45.8113 67.6686 46.203C68.4752 46.5478 68.7441 46.7564 68.7441 47.131C68.7441 47.5738 68.4496 47.8335 67.8223 47.8335C67.3699 47.8335 66.9431 47.6504 66.5804 47.3311L66.1963 47.8037C66.6316 48.1528 67.1779 48.3869 67.8052 48.3869C68.5947 48.3869 69.3672 47.9995 69.3672 47.1012C69.3672 46.2881 68.8636 46.037 67.9972 45.6453L68.0015 45.6495Z" fill="#004289"/>
<path d="M73.1734 46.4074C73.1734 47.4036 72.6741 47.8251 72.0468 47.8251C71.3127 47.8251 70.967 47.3866 70.967 46.4074V43.7467H70.3184V46.5181C70.3184 47.8251 70.9542 48.3913 71.9145 48.3913C72.4906 48.3913 72.9131 48.1231 73.1734 47.7399V48.2976H73.8264V43.7467H73.1734V46.4074Z" fill="#004289"/>
<path d="M78.4361 48.2975V45.5261C78.4361 44.2149 77.8002 43.653 76.8357 43.653C76.2639 43.653 75.8371 43.9212 75.5811 44.3043V43.7509H74.9238V48.3018H75.5811V45.6368C75.5811 44.6406 76.0718 44.2149 76.7034 44.2149C77.4332 44.2149 77.7832 44.6576 77.7832 45.6368V48.3018H78.4361V48.2975Z" fill="#004289"/>
<path d="M80.4885 49.4725L80.6976 49.9663C82.3918 49.9152 83.0064 49.2554 83.0064 47.8846V43.7423H82.3534V44.2532C82.0334 43.8871 81.6407 43.6487 81.0689 43.6487C80.1129 43.6487 79.3447 44.4788 79.3447 46.0923C79.3447 47.7058 80.0702 48.3869 80.9792 48.3869C81.5981 48.3869 82.0334 48.0804 82.3534 47.7356V47.9697C82.3534 49.0297 82.0077 49.4299 80.4842 49.4682L80.4885 49.4725ZM81.1499 47.825C80.4287 47.825 79.9934 47.229 79.9934 46.0838C79.9934 44.862 80.3647 44.2106 81.1243 44.2106C81.6663 44.2106 82.1059 44.5129 82.3577 44.8918V47.1694C82.0376 47.5695 81.6365 47.825 81.1499 47.825Z" fill="#004289"/>
<path d="M90.2013 45.2196C90.2013 43.1378 89.0234 42.2268 87.4273 42.2268H85.8184V48.2975H87.3078C88.9338 48.2975 90.2013 47.4205 90.2013 45.2196ZM86.4969 42.8398H87.3761C88.7759 42.8398 89.5227 43.6913 89.5227 45.2409C89.5227 46.9863 88.7033 47.6802 87.3931 47.6802H86.4969V42.8398Z" fill="#004289"/>
<path d="M91.9381 44.3086V43.7466H91.2852V48.2975H91.9381V45.624C91.9381 44.7556 92.2966 44.249 92.9325 44.249C93.2355 44.249 93.4318 44.3171 93.6153 44.4235L93.7775 43.7679C93.6238 43.6998 93.4062 43.6572 93.0648 43.6572C92.574 43.6572 92.143 43.951 91.9381 44.3128V44.3086Z" fill="#004289"/>
<path d="M97.6785 47.8633L97.3712 47.395C96.9529 47.6717 96.6414 47.8292 96.1079 47.8292C95.3654 47.8292 94.9002 47.212 94.8405 46.2456H97.879C97.9004 46.1391 97.9089 46.0455 97.9089 45.8922C97.9089 44.5938 97.2602 43.6572 96.0695 43.6572C94.9856 43.6572 94.1875 44.5555 94.1875 45.9987C94.1875 47.7909 95.2032 48.3954 96.0397 48.3954C96.7268 48.3954 97.1279 48.2124 97.6785 47.8676V47.8633ZM96.0695 44.2149C96.8676 44.2149 97.2517 44.8322 97.3029 45.7134H94.8405C94.9173 44.696 95.391 44.2149 96.0695 44.2149Z" fill="#004289"/>
<path d="M100.085 48.3912C100.738 48.3912 101.186 48.0846 101.506 47.7398V48.2975H102.159V45.1217C102.159 44.0659 101.545 43.6487 100.563 43.6487C99.97 43.6487 99.4323 43.7934 99.0312 44.0105L99.2744 44.5384C99.65 44.3213 100.038 44.1893 100.516 44.1893C101.186 44.1893 101.506 44.5171 101.506 45.1983V45.7347C101.238 45.5857 100.828 45.4707 100.371 45.4707C99.4665 45.4707 98.6172 45.905 98.6172 46.9267C98.6172 48.025 99.3683 48.3826 100.081 48.3826L100.085 48.3912ZM100.337 45.9944C100.892 45.9944 101.216 46.0966 101.511 46.2583V47.1821C101.233 47.561 100.789 47.8633 100.2 47.8633C99.6457 47.8633 99.2659 47.5695 99.2659 46.8926C99.2659 46.3222 99.6713 45.9986 100.337 45.9986V45.9944Z" fill="#004289"/>
<path d="M108.706 45.6325V48.2975H109.359V45.5261C109.359 44.1979 108.779 43.653 107.848 43.653C107.11 43.653 106.734 43.9978 106.47 44.432C106.252 43.9978 105.864 43.653 105.219 43.653C104.677 43.653 104.297 43.9126 104.063 44.3043V43.7509H103.414V48.3018H104.063V45.6368C104.063 44.6278 104.455 44.2149 105.083 44.2149C105.71 44.2149 106.069 44.5938 106.069 45.6368V48.3018H106.717V45.6368C106.717 44.6278 107.114 44.2149 107.737 44.2149C108.394 44.2149 108.719 44.5938 108.719 45.6368L108.706 45.6325Z" fill="#004289"/>
<path d="M52.0701 53.8915C50.8495 53.4572 50.6276 53.172 50.6276 52.6696C50.6276 52.1673 50.9775 51.7799 51.8097 51.7799C52.42 51.7799 52.8297 51.9757 53.2693 52.3418L53.7046 51.814C53.1925 51.4095 52.6675 51.1669 51.8524 51.1669C50.7129 51.1669 49.949 51.7373 49.949 52.7165C49.949 53.5935 50.3929 54.0149 51.7073 54.4832C52.8212 54.8876 53.1583 55.2027 53.1583 55.7689C53.1583 56.4074 52.6547 56.8076 51.8439 56.8076C51.2165 56.8076 50.6873 56.5181 50.2264 56.0796L49.7783 56.582C50.2563 57.0673 50.9946 57.4206 51.8225 57.4206C53.09 57.4206 53.8326 56.6842 53.8326 55.7305C53.8326 54.7769 53.4186 54.3768 52.0743 53.8915H52.0701Z" fill="#004289"/>
<path d="M56.6025 53.2444C57.0634 53.2444 57.3664 53.4062 57.695 53.7042L58.0876 53.2189C57.7291 52.9039 57.2554 52.6782 56.6451 52.6782C55.6892 52.6782 54.6777 53.3892 54.6777 55.0707C54.6777 56.6587 55.5953 57.4164 56.5982 57.4164C57.2383 57.4164 57.6822 57.1738 58.0663 56.7821L57.6736 56.3692C57.3621 56.6714 57.0676 56.8502 56.6238 56.8502C55.8172 56.8502 55.335 56.1308 55.335 55.0111C55.335 53.8915 55.8855 53.2359 56.5982 53.2359L56.6025 53.2444Z" fill="#004289"/>
<path d="M60.8738 52.6824C60.302 52.6824 59.8709 52.9506 59.6106 53.3337V51.1967H58.9619V57.3355H59.6106V54.6705C59.6106 53.6743 60.1099 53.2486 60.7415 53.2486C61.4756 53.2486 61.8212 53.6871 61.8212 54.6705V57.3355H62.4742V54.5556C62.4742 53.2486 61.8383 52.6824 60.8738 52.6824Z" fill="#004289"/>
<path d="M65.3856 52.6825C64.276 52.6825 63.3926 53.5126 63.3926 55.058C63.3926 56.6033 64.2418 57.425 65.3514 57.425C66.461 57.425 67.353 56.5693 67.353 55.0239C67.353 53.4786 66.4952 52.6825 65.3856 52.6825ZM65.3728 56.8588C64.579 56.8588 64.0455 56.2372 64.0455 55.041C64.0455 53.8447 64.579 53.2487 65.3728 53.2487C66.1666 53.2487 66.7 53.8447 66.7 55.041C66.7 56.2372 66.1623 56.8588 65.3728 56.8588Z" fill="#004289"/>
<path d="M68.9869 51.1924H68.334V57.3312H68.9869V51.1924Z" fill="#004289"/>
<path d="M71.9704 52.6825C71.3772 52.6825 70.8394 52.8315 70.4425 53.0486L70.6858 53.5808C71.0614 53.3636 71.454 53.2317 71.932 53.2317C72.5977 53.2317 72.922 53.5637 72.922 54.2364V54.777C72.6532 54.628 72.2435 54.5131 71.7869 54.5131C70.8821 54.5131 70.0371 54.9473 70.0371 55.9733C70.0371 57.0716 70.7839 57.425 71.4966 57.425C72.1496 57.425 72.5977 57.1227 72.922 56.7779V57.3356H73.575V54.164C73.575 53.0997 72.9562 52.6868 71.9746 52.6868L71.9704 52.6825ZM72.9178 56.2117C72.6447 56.5863 72.1923 56.8928 71.6076 56.8928C71.0528 56.8928 70.6773 56.5991 70.6773 55.9222C70.6773 55.3475 71.0784 55.0325 71.7484 55.0325C72.3032 55.0325 72.6233 55.1261 72.9178 55.2921V56.2117Z" fill="#004289"/>
<path d="M75.4655 53.3423V52.7719H74.8125V57.327H75.4655V54.6535C75.4655 53.7893 75.8154 53.2742 76.4555 53.2742C76.7628 53.2742 76.9591 53.3423 77.1426 53.4488L77.3091 52.7889C77.1512 52.7208 76.9378 52.674 76.5964 52.674C76.1099 52.674 75.6703 52.9677 75.4697 53.3381L75.4655 53.3423Z" fill="#004289"/>
<path d="M79.8095 54.6834C79.037 54.3343 78.8023 54.1768 78.8023 53.7979C78.8023 53.4701 79.0797 53.2359 79.5577 53.2359C80.0357 53.2359 80.3429 53.3679 80.6972 53.6446L81.0599 53.1678C80.71 52.8826 80.2277 52.6825 79.6004 52.6825C78.7724 52.6825 78.1707 53.1508 78.1707 53.8447C78.1707 54.5386 78.5548 54.8494 79.4681 55.2368C80.2747 55.5816 80.5435 55.7945 80.5435 56.1648C80.5435 56.6119 80.2491 56.8673 79.626 56.8673C79.1693 56.8673 78.7468 56.6842 78.3798 56.3649L78 56.8417C78.4353 57.1908 78.9816 57.4207 79.6089 57.4207C80.3984 57.4207 81.1709 57.0291 81.1709 56.1393C81.1709 55.3219 80.6673 55.075 79.8052 54.6834H79.8095Z" fill="#004289"/>
<path d="M84.1506 52.6824C83.5701 52.6824 83.1477 52.9506 82.8873 53.3337V51.1967H82.2344V57.3355H82.8873V54.6705C82.8873 53.6743 83.3824 53.2486 84.0183 53.2486C84.748 53.2486 85.0937 53.6871 85.0937 54.6705V57.3355H85.7467V54.5556C85.7467 53.2486 85.115 52.6824 84.1506 52.6824Z" fill="#004289"/>
<path d="M87.6838 52.7719H87.0352V57.327H87.6838V52.7719Z" fill="#004289"/>
<path d="M87.3721 51.0349C87.1076 51.0349 86.8984 51.2435 86.8984 51.5075C86.8984 51.7714 87.1076 51.9672 87.3721 51.9672C87.6154 51.9672 87.8245 51.7544 87.8245 51.5075C87.8245 51.2435 87.6154 51.0349 87.3721 51.0349Z" fill="#004289"/>
<path d="M91.0252 52.6825C90.4106 52.6825 89.9753 52.989 89.651 53.3338V52.7762H88.998V59.0044H89.651V56.8205C89.9711 57.1823 90.3637 57.425 90.9398 57.425C91.8915 57.425 92.6597 56.5906 92.6597 54.9814C92.6597 53.3722 91.9342 52.6825 91.0252 52.6825ZM90.8844 56.8588C90.3466 56.8588 89.9028 56.5565 89.651 56.1734V53.9C89.9711 53.5041 90.3722 53.2444 90.8587 53.2444C91.5843 53.2444 92.0196 53.8404 92.0196 54.9856C92.0196 56.2074 91.644 56.8545 90.8886 56.8545L90.8844 56.8588Z" fill="#004289"/>
<path d="M96.1122 51.8735H99.0056V51.2605H95.4336V57.3312H96.1122V54.5002H97.7808V53.8872H96.1122V51.8735Z" fill="#004289"/>
<path d="M100.986 52.6825C99.876 52.6825 98.9883 53.5126 98.9883 55.058C98.9883 56.6033 99.8418 57.425 100.951 57.425C102.061 57.425 102.953 56.5693 102.953 55.0239C102.953 53.4786 102.104 52.6825 100.986 52.6825ZM100.973 56.8588C100.179 56.8588 99.654 56.2372 99.654 55.041C99.654 53.8447 100.183 53.2487 100.973 53.2487C101.762 53.2487 102.304 53.8447 102.304 55.041C102.304 56.2372 101.767 56.8588 100.973 56.8588Z" fill="#004289"/>
<path d="M106.551 55.4368C106.551 56.433 106.061 56.8587 105.425 56.8587C104.695 56.8587 104.345 56.4202 104.345 55.4368V52.7719H103.696V55.5475C103.696 56.8545 104.332 57.4207 105.297 57.4207C105.864 57.4207 106.291 57.1567 106.551 56.7736V57.3313H107.209V52.7761H106.551V55.4411V55.4368Z" fill="#004289"/>
<path d="M110.213 52.6825C109.641 52.6825 109.214 52.9507 108.954 53.3338V52.7761H108.301V57.3313H108.954V54.6663C108.954 53.6701 109.449 53.2444 110.085 53.2444C110.814 53.2444 111.16 53.6829 111.16 54.6663V57.3313H111.813V54.5514C111.813 53.2444 111.177 52.6782 110.213 52.6782V52.6825Z" fill="#004289"/>
<path d="M115.735 53.2912C115.411 52.925 115.023 52.6781 114.446 52.6781C113.49 52.6781 112.727 53.5083 112.727 55.126C112.727 56.7437 113.448 57.4206 114.361 57.4206C114.98 57.4206 115.411 57.1184 115.731 56.7735V57.3312H116.384V51.1924H115.731V53.2912H115.735ZM115.735 56.2031C115.411 56.599 115.014 56.8587 114.528 56.8587C113.806 56.8587 113.371 56.2627 113.371 55.1175C113.371 53.8914 113.742 53.2443 114.502 53.2443C115.04 53.2443 115.479 53.5466 115.735 53.9297V56.1988V56.2031Z" fill="#004289"/>
<path d="M119.149 52.6825C118.56 52.6825 118.022 52.8315 117.621 53.0486L117.86 53.5808C118.236 53.3636 118.628 53.2317 119.106 53.2317C119.772 53.2317 120.092 53.5637 120.092 54.2364V54.777C119.823 54.628 119.413 54.5131 118.953 54.5131C118.052 54.5131 117.207 54.9473 117.207 55.9733C117.207 57.0716 117.958 57.425 118.671 57.425C119.324 57.425 119.772 57.1227 120.092 56.7779V57.3356H120.745V54.164C120.745 53.0997 120.13 52.6868 119.145 52.6868L119.149 52.6825ZM120.096 56.2117C119.819 56.5863 119.379 56.8928 118.782 56.8928C118.231 56.8928 117.86 56.5991 117.86 55.9222C117.86 55.3475 118.257 55.0325 118.927 55.0325C119.482 55.0325 119.806 55.1261 120.096 55.2921V56.2117Z" fill="#004289"/>
<path d="M122.828 51.1924H122.171V52.7718H121.607V53.321H122.171V56.3904C122.171 57.1439 122.478 57.4164 123.046 57.4164C123.387 57.4164 123.63 57.3653 123.882 57.2631L123.929 56.7012C123.72 56.7863 123.549 56.8289 123.285 56.8289C122.939 56.8289 122.828 56.6884 122.828 56.284V53.321H123.959V52.7718H122.828V51.1924Z" fill="#004289"/>
<path d="M125.439 51.0349C125.17 51.0349 124.957 51.2435 124.957 51.5075C124.957 51.7714 125.17 51.9672 125.439 51.9672C125.683 51.9672 125.887 51.7544 125.887 51.5075C125.887 51.2435 125.678 51.0349 125.439 51.0349Z" fill="#004289"/>
<path d="M125.752 52.7719H125.099V57.327H125.752V52.7719Z" fill="#004289"/>
<path d="M128.73 52.6825C127.62 52.6825 126.732 53.5126 126.732 55.058C126.732 56.6033 127.582 57.425 128.696 57.425C129.809 57.425 130.693 56.5693 130.693 55.0239C130.693 53.4786 129.839 52.6825 128.73 52.6825ZM128.713 56.8588C127.923 56.8588 127.39 56.2372 127.39 55.041C127.39 53.8447 127.923 53.2487 128.713 53.2487C129.502 53.2487 130.044 53.8447 130.044 55.041C130.044 56.2372 129.506 56.8588 128.713 56.8588Z" fill="#004289"/>
<path d="M133.548 52.6825C132.976 52.6825 132.549 52.9507 132.285 53.3338V52.7761H131.632V57.3313H132.285V54.6663C132.285 53.6701 132.78 53.2444 133.416 53.2444C134.145 53.2444 134.495 53.6829 134.495 54.6663V57.3313H135.144V54.5514C135.144 53.2444 134.508 52.6782 133.548 52.6782V52.6825Z" fill="#004289"/>
<path d="M74.8853 30.277C72.2649 30.2812 70.1055 32.3247 70.1055 34.8875C70.1055 37.4503 72.2649 39.4724 74.8853 39.481C77.5312 39.4724 79.6693 37.4247 79.6693 34.8875C79.6693 32.3502 77.5312 30.2812 74.8853 30.277ZM74.8212 37.3779C73.4513 37.3779 72.4185 36.2625 72.4185 34.8875C72.4185 33.5124 73.5239 32.3758 74.8895 32.3758C76.2552 32.3758 77.3221 33.4911 77.3221 34.8875C77.3221 36.2838 76.204 37.3779 74.8255 37.3779H74.8212Z" fill="#004289"/>
<path d="M52.9535 27.1054C53.6833 27.8248 54.5197 28.4549 55.3434 28.8593L55.4287 28.9061L56.8413 27.2416L56.7048 27.165C55.3647 26.4412 54.3149 25.526 53.6278 24.3723C52.945 23.2356 52.595 21.9159 52.595 20.3365V18.855H50.0686V20.179C50.0686 21.8903 49.6802 23.2356 48.9504 24.4148C48.1353 25.7218 46.9276 26.7733 45.3827 27.7482L45.2461 27.8333L46.7782 29.417L46.8635 29.3702C47.7768 28.8763 48.7456 28.1143 49.5863 27.2629C50.3161 26.5179 50.9477 25.7218 51.3318 24.9683C51.7031 25.709 52.2707 26.4625 52.9535 27.1096V27.1054Z" fill="#004289"/>
<path d="M50.2178 38.3911H60.793V31.1837H50.2178V38.3911ZM52.5949 33.2186H58.416V36.3562H52.5949V33.2186Z" fill="#004289"/>
<path d="M85.4775 38.3911H97.4355V31.1837H85.4775V38.3911ZM87.829 33.2186H95.0883V36.3562H87.829V33.2186Z" fill="#004289"/>
<path d="M60.8359 18.4293H58.4844V30.3579H60.8359V25.079H63.5885V22.9589H60.8359V18.4293Z" fill="#004289"/>
<path d="M109.59 27.7141C110.362 28.3825 111.246 28.9445 112.078 29.3063L112.163 29.3446L113.435 27.629L113.299 27.5609C112.086 26.9436 111.007 26.1773 110.23 25.2407C109.441 24.2871 108.971 23.1377 108.971 21.7541V21.3497H112.471V19.2977H102.971V21.3497H106.466V21.8435C106.466 23.1036 106.048 24.2786 105.352 25.2961C104.537 26.5179 103.346 27.5013 102.19 28.1399L102.036 28.2207L103.598 29.8342L103.683 29.7916C104.524 29.3148 105.455 28.5954 106.248 27.7865C106.884 27.1224 107.456 26.42 107.806 25.7175C108.229 26.3987 108.877 27.0798 109.594 27.7141H109.59Z" fill="#004289"/>
<path d="M126.597 33.2655H135.145V38.3869H137.518V31.2306H126.597V33.2655Z" fill="#004289"/>
<path d="M132.494 25.0619C132.494 23.9338 131.986 22.895 131.235 22.1032H133.582V20.0725H129.101V17.8375H126.554V20.0725H121.966V22.1032H124.364C123.63 22.895 123.122 23.9253 123.122 25.0619C123.122 27.5779 125.201 29.6213 127.8 29.6299C130.399 29.6213 132.49 27.5779 132.494 25.0619ZM125.388 24.9683C125.388 23.5762 126.566 22.3969 127.8 22.3969C129.033 22.3969 130.207 23.5804 130.211 24.9683C130.211 26.3391 129.033 27.5226 127.8 27.5268C126.562 27.5226 125.393 26.3391 125.388 24.9683Z" fill="#004289"/>
<path d="M137.517 18.4293H135.17V30.4005H137.517V25.8325H140.278V23.7125H137.517V18.4293Z" fill="#004289"/>
<path d="M117.6 18.4293H115.253V30.4005H117.6V25.079H120.357V22.9589H117.6V18.4293Z" fill="#004289"/>
<path d="M77.7573 21.9798H74.0615V24.0786H77.7573V30.7793H80.1088V18.4293H77.7573V21.9798Z" fill="#004289"/>
<path d="M71.7863 27.4161C72.5203 28.1313 73.3781 28.7614 74.1975 29.1871L74.2871 29.2382L75.6997 27.5736L75.5632 27.497C74.2231 26.7946 73.1946 25.8836 72.5033 24.7469C71.8034 23.6187 71.4534 22.2479 71.4534 20.6685V18.855H68.9227V20.5153C68.9227 22.2267 68.5386 23.5677 67.8259 24.7256C67.015 26.0538 65.7817 27.1139 64.2368 28.0802L64.1045 28.1654L65.6451 29.7533L65.7219 29.7022C66.6309 29.2041 67.5784 28.4847 68.4191 27.663C69.1787 26.9095 69.8104 26.0879 70.1944 25.3003C70.5572 26.0198 71.112 26.752 71.7863 27.4204V27.4161Z" fill="#004289"/>
<path d="M112.56 30.277C109.94 30.2812 107.781 32.3247 107.776 34.8875C107.781 37.4247 109.936 39.4724 112.56 39.481C115.202 39.4724 117.344 37.4247 117.344 34.8875C117.344 32.3502 115.202 30.2812 112.56 30.277ZM112.492 37.3779C111.126 37.3779 110.085 36.2625 110.085 34.8875C110.085 33.5124 111.186 32.3758 112.56 32.3758C113.935 32.3758 114.989 33.4911 114.993 34.8875C114.993 36.2583 113.871 37.3779 112.492 37.3779Z" fill="#004289"/>
<path d="M88.3412 25.2706H90.6927V19.1786H84.3467V21.205H88.3412V25.2706Z" fill="#004289"/>
<path d="M95.3994 25.2706H97.7552V19.1786H91.4092V21.205H95.3994V25.2706Z" fill="#004289"/>
<path d="M155.339 23.8231H153.363V18.7614H151.14V37.876H153.363V26.122H155.339V38.3869H157.644V18.4293H155.339V23.8231Z" fill="#004289"/>
<path d="M147.879 26.4668C147.35 25.3131 147.132 24.0232 147.132 22.4395V21.686H149.799V19.5361H142.049V21.686H144.802V22.4821C144.802 23.9806 144.606 25.2067 144.132 26.3433C143.581 27.6503 142.655 28.8253 141.179 30.0854L141.076 30.179L142.536 31.6222L142.625 31.5541C143.359 31.0134 144.128 30.2301 144.768 29.4213C145.31 28.7401 145.766 28.0334 146.052 27.4119C146.347 28.0164 146.808 28.7103 147.345 29.3574C147.968 30.1152 148.673 30.8346 149.347 31.2646L149.437 31.3242L150.666 29.8597L150.567 29.7703C149.244 28.6209 148.425 27.5949 147.887 26.4625L147.879 26.4668Z" fill="#004289"/>
<path d="M82.3789 28.1058H90.1845V30.3792H92.7323V28.1058H100.662V26.0667H82.3789V28.1058Z" fill="#004289"/>
<path d="M171.031 27.4544H163.084V21.4221H169.136V19.2977H160.703V29.5149H171.031V27.4544Z" fill="#004289"/>
<path d="M166.537 32.0266H164.16V38.3868H175.277V36.2923H166.537V32.0266Z" fill="#004289"/>
<path d="M175.222 23.9551V18.425H172.875V33.1506H175.222V26.0752H178V23.9551H175.222Z" fill="#004289"/>
<path d="M49.8503 12.2691L43.7604 9.75316L49.8503 7.23718L48.7663 4.63605L42.6807 7.15203L45.2028 1.07706L42.591 0L40.0731 6.07497L37.5509 0L34.9391 1.07706L37.4613 7.15203L31.3756 4.63605L30.2959 7.23718L36.3816 9.75316L30.2959 12.2691L31.3756 14.8703L37.4613 12.3543L34.9391 18.4293L37.5509 19.5063L40.0731 13.4356L42.591 19.5063L45.2028 18.425L42.6807 12.3543L48.7663 14.8703L49.8503 12.2691Z" fill="#009FE3"/>
<path d="M10.447 29.2168H14.497V18.4292H0.648438V22.0648H10.447V29.2168Z" fill="#009FE3"/>
<path d="M26.2458 29.2168H30.2958V18.4292H16.4473V22.0648H26.2458V29.2168Z" fill="#009FE3"/>
<path d="M0 34.798H26.2461V40.3536H30.2961V31.1624H0V34.798Z" fill="#009FE3"/>
<path d="M9.79883 57.3312H30.2964V42.2225H9.79883V57.3312ZM13.8446 45.8624H26.2464V53.6998H13.8446V45.8624Z" fill="#009FE3"/>
</g>
<defs>
<clipPath id="clip0_165_226">
<rect width="178" height="59" fill="white"/>
</clipPath>
</defs>
</svg>
