<svg width="30" height="30" viewBox="0 0 30 30" fill="none" xmlns="http://www.w3.org/2000/svg">
<mask id="mask0_55_1170" style="mask-type:alpha" maskUnits="userSpaceOnUse" x="0" y="0" width="30" height="30">
<rect width="30" height="30" fill="#D9D9D9"/>
</mask>
<g mask="url(#mask0_55_1170)">
<path d="M17.5 14.25V15.8125C17.5 16.1667 17.6198 16.4635 17.8594 16.7031C18.099 16.9427 18.3958 17.0625 18.75 17.0625C19.1042 17.0625 19.401 16.9427 19.6406 16.7031C19.8802 16.4635 20 16.1667 20 15.8125V11.25C20 10.8958 19.8802 10.599 19.6406 10.3594C19.401 10.1198 19.1042 10 18.75 10H14.1875C13.8333 10 13.5365 10.1198 13.2969 10.3594C13.0573 10.599 12.9375 10.8958 12.9375 11.25C12.9375 11.6042 13.0573 11.901 13.2969 12.1406C13.5365 12.3802 13.8333 12.5 14.1875 12.5H15.7188L10.25 17.9688C10.0208 18.1979 9.90625 18.4844 9.90625 18.8281C9.90625 19.1719 10.0208 19.4688 10.25 19.7188C10.5 19.9688 10.7969 20.0938 11.1406 20.0938C11.4844 20.0938 11.7812 19.9688 12.0312 19.7188L17.5 14.25ZM15 27.5C13.2708 27.5 11.6458 27.1719 10.125 26.5156C8.60417 25.8594 7.28125 24.9688 6.15625 23.8438C5.03125 22.7188 4.14063 21.3958 3.48438 19.875C2.82812 18.3542 2.5 16.7292 2.5 15C2.5 13.2708 2.82812 11.6458 3.48438 10.125C4.14063 8.60417 5.03125 7.28125 6.15625 6.15625C7.28125 5.03125 8.60417 4.14063 10.125 3.48438C11.6458 2.82812 13.2708 2.5 15 2.5C16.7292 2.5 18.3542 2.82812 19.875 3.48438C21.3958 4.14063 22.7188 5.03125 23.8438 6.15625C24.9688 7.28125 25.8594 8.60417 26.5156 10.125C27.1719 11.6458 27.5 13.2708 27.5 15C27.5 16.7292 27.1719 18.3542 26.5156 19.875C25.8594 21.3958 24.9688 22.7188 23.8438 23.8438C22.7188 24.9688 21.3958 25.8594 19.875 26.5156C18.3542 27.1719 16.7292 27.5 15 27.5Z" fill="#272D4F"/>
</g>
</svg>
