<svg width="294" height="88" viewBox="0 0 294 88" fill="none" xmlns="http://www.w3.org/2000/svg">
<path d="M5.056 10.896C6.368 10.896 7.312 9.968 7.312 8.688C7.312 7.392 6.368 6.464 5.056 6.464C3.76 6.464 2.816 7.392 2.816 8.688C2.816 9.968 3.76 10.896 5.056 10.896ZM5.056 5.376C7.104 5.376 8.56 6.752 8.56 8.688C8.56 10.64 7.104 11.984 5.056 11.984C3.04 11.984 1.584 10.64 1.584 8.688C1.584 6.752 3.04 5.376 5.056 5.376ZM5.696 1.008V3.136H9.232V4.192H0.768V3.136H4.384V1.008H5.696ZM14.256 6.736V7.84H11.904V15.184H10.592V0.848H11.904V6.736H14.256ZM17.1188 5.376C17.1188 6.768 18.1748 7.776 19.5828 7.776C20.9908 7.776 22.0468 6.768 22.0468 5.376C22.0468 3.968 20.9908 2.976 19.5828 2.976C18.1748 2.976 17.1188 3.968 17.1188 5.376ZM23.3268 5.376C23.3268 7.456 21.7268 8.912 19.5828 8.912C17.4388 8.912 15.8388 7.456 15.8388 5.376C15.8388 3.296 17.4388 1.84 19.5828 1.84C21.7268 1.84 23.3268 3.296 23.3268 5.376ZM19.0868 10.32V13.792H27.3428V14.864H17.7748V10.32H19.0868ZM28.7988 4.512H26.7028V6.944H28.7988V8.032H26.7028V11.392H25.3908V0.832H26.7028V3.44H28.7988V4.512ZM36.0716 7.216V10.656C38.6796 10.656 40.5356 10.56 42.6796 10.176L42.8076 11.248C40.5676 11.632 38.6476 11.728 35.9116 11.728H34.7756V2.128H41.7356V3.2H36.0716V6.16H41.2076V7.216H36.0716ZM44.3276 0.832H45.6396V15.168H44.3276V0.832ZM53.6064 2.08V4.64C53.6064 7.28 55.2384 9.904 57.3184 10.896L56.5344 11.952C54.9184 11.12 53.5904 9.392 52.9504 7.36C52.3264 9.488 50.9984 11.28 49.3824 12.16L48.5824 11.12C50.6624 10.064 52.2944 7.312 52.2944 4.64V2.08H53.6064ZM59.0784 0.832H60.4064V15.216H59.0784V8.624H55.9744V7.536H59.0784V5.04H55.9744V3.952H59.0784V0.832ZM64.5971 9.872L64.0851 8.8C66.8371 8.32 69.1411 6.544 69.1411 4.192H64.5171V3.136H69.1411V1.184H70.4691V3.136H75.0771V4.192H70.4691C70.4691 6.544 72.7731 8.32 75.5251 8.8L74.9971 9.872C72.7251 9.408 70.6931 8.192 69.8131 6.352C68.9171 8.192 66.8851 9.408 64.5971 9.872ZM63.3011 12.272H76.3251V13.344H63.3011V12.272ZM86.302 2.592C84.894 2.592 83.902 3.344 83.902 4.464C83.902 5.584 84.894 6.336 86.302 6.336C87.694 6.336 88.686 5.584 88.686 4.464C88.686 3.344 87.694 2.592 86.302 2.592ZM86.302 7.408C84.158 7.408 82.638 6.208 82.638 4.464C82.638 2.704 84.158 1.504 86.302 1.504C88.43 1.504 89.95 2.704 89.95 4.464C89.95 6.208 88.43 7.408 86.302 7.408ZM91.022 8.112L91.134 9.088C89.774 9.328 88.382 9.488 87.022 9.568V14.736H85.71V9.648C84.286 9.712 82.926 9.728 81.742 9.728L81.566 8.624C84.238 8.624 87.87 8.592 91.022 8.112ZM92.062 0.848H93.374V15.2H92.062V0.848ZM99.5648 10.816C100.685 10.816 101.421 9.36 101.421 7.008C101.421 4.704 100.685 3.248 99.5648 3.248C98.4128 3.248 97.6928 4.704 97.6928 7.008C97.6928 9.36 98.4128 10.816 99.5648 10.816ZM104.413 6.416V1.152H105.661V14.48H104.413V7.488H102.605C102.493 10.304 101.325 12.032 99.5648 12.032C97.6928 12.032 96.4928 10.112 96.4928 7.008C96.4928 3.952 97.6928 2.032 99.5648 2.032C101.293 2.032 102.445 3.712 102.605 6.416H104.413ZM107.261 0.832H108.509V15.184H107.261V0.832ZM119.574 3.376V5.04C119.574 7.424 121.254 10.032 123.334 11.024L122.55 12.048C120.95 11.232 119.574 9.52 118.918 7.536C118.294 9.648 116.902 11.488 115.27 12.352L114.502 11.312C116.55 10.304 118.262 7.584 118.262 5.04V3.376H115.014V2.304H122.838V3.376H119.574ZM125.126 0.832H126.438V15.2H125.126V7.12H122.022V6.048H125.126V0.832ZM131.188 3.328V10.48H135.204V3.328H131.188ZM129.908 11.536V2.272H136.484V11.536H129.908ZM142.74 6.56V7.664H140.372V15.184H139.06V0.848H140.372V6.56H142.74ZM145.971 3.296V10.512C148.515 10.512 150.355 10.4 152.435 10.032L152.579 11.12C150.387 11.536 148.499 11.632 145.795 11.632H144.659V2.208H151.331V3.296H145.971ZM157.459 6.496V7.584H155.091V15.216H153.779V0.832H155.091V6.496H157.459ZM163.426 1.888C165.666 1.888 167.266 3.248 167.266 5.264C167.266 7.264 165.666 8.64 163.426 8.64C161.202 8.64 159.586 7.264 159.586 5.264C159.586 3.248 161.202 1.888 163.426 1.888ZM163.426 3.008C161.954 3.008 160.866 3.92 160.866 5.264C160.866 6.592 161.954 7.52 163.426 7.52C164.914 7.52 165.986 6.592 165.986 5.264C165.986 3.92 164.914 3.008 163.426 3.008ZM169.154 0.832H170.466V15.216H169.154V0.832ZM159.026 12.064L158.866 10.96C161.474 10.96 165.074 10.944 168.21 10.464L168.322 11.44C165.09 12.032 161.618 12.064 159.026 12.064ZM187.131 13.92V10.992H179.979V13.92H187.131ZM190.091 7.52H184.203V9.936H188.411V14.976H178.683V9.936H182.891V7.52H177.051V6.464H181.067C181.531 4.736 181.627 3.456 181.659 2.576H178.315V1.52H182.923V1.936C182.923 2.72 182.923 4.304 182.395 6.464H186.779C187.163 4.72 187.227 3.456 187.243 2.576H183.995V1.52H188.523V2.08C188.523 2.944 188.523 4.416 188.075 6.464H190.091V7.52ZM198.266 2.064C195.914 2.064 194.57 2.608 194.57 3.568C194.57 4.528 195.914 5.072 198.266 5.072C200.618 5.072 201.962 4.528 201.962 3.568C201.962 2.608 200.618 2.064 198.266 2.064ZM198.266 6.048C195.114 6.048 193.226 5.184 193.226 3.568C193.226 1.952 195.114 1.072 198.266 1.072C201.418 1.072 203.306 1.952 203.306 3.568C203.306 5.184 201.418 6.048 198.266 6.048ZM194.666 12.544V14H203.53V15.024H193.386V11.584H201.802V10.304H193.338V9.312H203.098V12.544H194.666ZM191.77 7.024H204.762V8.08H191.77V7.024ZM223.106 7.696H217.218V10.256H221.394V15.152H220.082V11.312H211.554V10.256H215.906V7.696H210.082V6.624H214.05C214.514 4.8 214.626 3.456 214.658 2.544H211.346V1.488H215.938V1.904C215.938 2.704 215.938 4.352 215.346 6.624H219.746C220.178 4.784 220.242 3.456 220.258 2.544H217.01V1.488H221.538V2.048C221.538 2.928 221.538 4.48 221.042 6.624H223.106V7.696ZM237.825 7.696H231.937V10.256H236.113V15.152H234.801V11.312H226.273V10.256H230.625V7.696H224.801V6.624H228.769C229.233 4.8 229.345 3.456 229.377 2.544H226.065V1.488H230.657V1.904C230.657 2.704 230.657 4.352 230.065 6.624H234.465C234.897 4.784 234.961 3.456 234.977 2.544H231.729V1.488H236.257V2.048C236.257 2.928 236.257 4.48 235.761 6.624H237.825V7.696ZM254.586 4.256V5.312H244.842V1.04H246.138V4.256H254.586ZM256.106 7.632H250.234V9.136H254.458V12.448H246.042V14H254.938V15.024H244.73V11.488H253.146V10.144H244.698V9.136H248.922V7.632H243.098V6.56H256.106V7.632ZM259.641 7.184V10.656C262.089 10.656 263.833 10.56 265.897 10.192L266.025 11.28C263.865 11.664 262.041 11.744 259.449 11.744H258.345V6.128H263.449V3.232H258.313V2.16H264.729V7.184H259.641ZM268.313 0.815999H269.625V15.2H268.313V7.424H265.577V6.352H268.313V0.815999ZM284.418 6.592L284.562 7.648C282.594 8.048 280.898 8.16 277.89 8.16H276.77V1.792H283.09V2.848H278.082V7.072C280.914 7.072 282.546 6.96 284.418 6.592ZM279.522 10.768V13.92H285.954V10.768H279.522ZM278.242 14.976V9.728H287.25V14.976H278.242ZM289.378 4.336V5.424H287.25V8.96H285.938V0.815999H287.25V4.336H289.378ZM7.328 26.384C5.072 26.384 3.632 27.056 3.632 28.192C3.632 29.328 5.072 29.984 7.328 29.984C9.584 29.984 11.024 29.328 11.024 28.192C11.024 27.056 9.584 26.384 7.328 26.384ZM7.328 31.04C4.256 31.04 2.288 29.984 2.288 28.192C2.288 26.4 4.256 25.328 7.328 25.328C10.4 25.328 12.368 26.4 12.368 28.192C12.368 29.984 10.4 31.04 7.328 31.04ZM3.824 34.704V37.792H12.384V38.864H2.512V34.704H3.824ZM0.832 32.384H13.808V33.44H0.832V32.384ZM20.9529 27.648V34.56C22.8729 34.544 24.2329 34.464 25.8009 34.128L25.9129 35.216C24.2009 35.584 22.7449 35.648 20.6009 35.648H19.6569V26.576H25.0009V27.648H20.9529ZM30.0729 24.832H31.3369V39.184H30.0729V31.664H28.0409V38.464H26.8089V25.152H28.0409V30.592H30.0729V24.832ZM42.3756 26.352V27.408H33.9116V26.352H37.4796V24.752H38.7916V26.352H42.3756ZM35.9596 30.736C35.9596 31.696 36.8236 32.32 38.1356 32.32C39.4476 32.32 40.3276 31.696 40.3276 30.736C40.3276 29.792 39.4476 29.168 38.1356 29.168C36.8236 29.168 35.9596 29.792 35.9596 30.736ZM41.5756 30.736C41.5756 32.32 40.1836 33.328 38.1356 33.328C36.1036 33.328 34.7116 32.32 34.7116 30.736C34.7116 29.168 36.1036 28.144 38.1356 28.144C40.1836 28.144 41.5756 29.168 41.5756 30.736ZM35.6876 35.664V34.592H44.9996V39.2H43.6876V35.664H35.6876ZM47.1276 28.8V29.888H44.9996V33.808H43.6876V24.848H44.9996V28.8H47.1276ZM61.2645 26.768V27.824H52.5445V26.768H56.2565V24.976H57.5685V26.768H61.2645ZM59.1045 31.312C59.1045 30.304 58.2085 29.648 56.9125 29.648C55.6325 29.648 54.7365 30.304 54.7365 31.312C54.7365 32.32 55.6325 32.992 56.9125 32.992C58.2085 32.992 59.1045 32.32 59.1045 31.312ZM53.4885 31.312C53.4885 29.696 54.8965 28.624 56.9125 28.624C58.9285 28.624 60.3365 29.696 60.3365 31.312C60.3365 32.944 58.9285 34 56.9125 34C54.8965 34 53.4885 32.944 53.4885 31.312ZM52.4325 36.368L52.2405 35.264C54.9605 35.264 58.5285 35.248 61.6325 34.832L61.7285 35.808C58.5285 36.352 55.0725 36.368 52.4325 36.368ZM62.5445 24.848H63.8565V39.184H62.5445V24.848ZM72.7833 31.04V26.976H68.7513V31.04H72.7833ZM74.0633 25.92V32.096H67.4713V25.92H74.0633ZM73.4393 38.144C75.5673 38.144 76.8633 37.52 76.8633 36.496C76.8633 35.456 75.5673 34.848 73.4393 34.848C71.3113 34.848 70.0312 35.456 70.0312 36.496C70.0312 37.52 71.3113 38.144 73.4393 38.144ZM73.4393 33.808C76.3513 33.808 78.1753 34.784 78.1753 36.496C78.1753 38.192 76.3513 39.184 73.4393 39.184C70.5433 39.184 68.7193 38.192 68.7193 36.496C68.7193 34.784 70.5433 33.808 73.4393 33.808ZM78.0153 28.416H80.1433V29.504H78.0153V33.312H76.7033V24.848H78.0153V28.416ZM89.918 31.776L89.294 32.8C87.662 32.272 86.43 31.136 85.822 29.712C85.214 31.344 83.918 32.624 82.206 33.232L81.534 32.192C83.694 31.44 85.134 29.584 85.134 27.52V26.96H81.918V25.904H89.614V26.96H86.446V27.52C86.446 29.392 87.806 31.072 89.918 31.776ZM88.174 38.128C90.286 38.128 91.582 37.536 91.582 36.512C91.582 35.504 90.286 34.912 88.174 34.912C86.03 34.912 84.75 35.504 84.75 36.512C84.75 37.536 86.03 38.128 88.174 38.128ZM88.174 33.872C91.086 33.872 92.894 34.848 92.894 36.512C92.894 38.192 91.086 39.168 88.174 39.168C85.23 39.168 83.438 38.192 83.438 36.512C83.438 34.848 85.23 33.872 88.174 33.872ZM92.734 28.464H94.862V29.568H92.734V33.504H91.422V24.848H92.734V28.464ZM104.829 26.352V27.408H96.3648V26.352H99.9328V24.752H101.245V26.352H104.829ZM98.4128 30.736C98.4128 31.696 99.2768 32.32 100.589 32.32C101.901 32.32 102.781 31.696 102.781 30.736C102.781 29.792 101.901 29.168 100.589 29.168C99.2768 29.168 98.4128 29.792 98.4128 30.736ZM104.029 30.736C104.029 32.32 102.637 33.328 100.589 33.328C98.5568 33.328 97.1648 32.32 97.1648 30.736C97.1648 29.168 98.5568 28.144 100.589 28.144C102.637 28.144 104.029 29.168 104.029 30.736ZM98.1408 35.664V34.592H107.453V39.2H106.141V35.664H98.1408ZM109.581 28.8V29.888H107.453V33.808H106.141V24.848H107.453V28.8H109.581ZM120.06 29.76V33.232H118.812V25.12H120.06V28.688H121.884V24.848H123.148V33.696H121.884V29.76H120.06ZM118.22 31.568L117.516 32.576C116.172 32.032 115.196 31.008 114.684 29.792C114.172 31.136 113.148 32.352 111.756 32.976L111.052 31.952C112.924 31.12 114.044 29.264 114.044 27.664V25.728H115.308V27.664C115.308 29.248 116.38 30.864 118.22 31.568ZM118.411 38.16C120.588 38.16 121.916 37.584 121.916 36.592C121.916 35.6 120.588 35.04 118.411 35.04C116.268 35.04 114.924 35.6 114.924 36.592C114.924 37.584 116.268 38.16 118.411 38.16ZM118.411 34.016C121.372 34.016 123.212 34.96 123.212 36.592C123.212 38.224 121.372 39.168 118.411 39.168C115.468 39.168 113.628 38.224 113.628 36.592C113.628 34.96 115.468 34.016 118.411 34.016ZM137.194 28.608V29.664H127.482V25.312H137.05V26.368H128.794V28.608H137.194ZM128.634 36.512V37.984H137.498V39.008H127.354V35.536H135.77V34.16H127.306V33.136H137.066V36.512H128.634ZM125.754 30.816H138.746V31.888H125.754V30.816ZM150.905 24.832H152.217V39.216H150.905V24.832ZM144.649 25.936C146.777 25.936 148.297 27.888 148.297 30.944C148.297 34 146.777 35.952 144.649 35.952C142.521 35.952 141.001 34 141.001 30.944C141.001 27.888 142.521 25.936 144.649 25.936ZM144.649 27.12C143.241 27.12 142.249 28.624 142.249 30.944C142.249 33.28 143.241 34.784 144.649 34.784C146.041 34.784 147.033 33.28 147.033 30.944C147.033 28.624 146.041 27.12 144.649 27.12ZM159.41 25.904H166.034C166.034 29.552 163.49 32.224 159.33 33.456L158.802 32.4C162.21 31.392 164.37 29.44 164.61 26.96H159.41V25.904ZM165.41 38.128C167.474 38.128 168.786 37.472 168.786 36.384C168.786 35.28 167.474 34.624 165.41 34.624C163.346 34.624 162.034 35.28 162.034 36.384C162.034 37.472 163.346 38.128 165.41 38.128ZM165.41 33.6C168.242 33.6 170.082 34.64 170.082 36.384C170.082 38.112 168.242 39.168 165.41 39.168C162.578 39.168 160.738 38.112 160.738 36.384C160.738 34.64 162.578 33.6 165.41 33.6ZM169.906 28.544H172.034V29.632H169.906V33.408H168.594V24.832H169.906V28.544ZM181.009 33.312H183.921V24.832H185.233V35.76H183.921V34.288H181.009V33.312ZM178.081 26.384C176.721 26.384 175.793 26.992 175.793 27.904C175.793 28.832 176.721 29.44 178.081 29.44C179.441 29.44 180.369 28.832 180.369 27.904C180.369 26.992 179.441 26.384 178.081 26.384ZM178.081 30.416C175.985 30.416 174.545 29.44 174.545 27.904C174.545 26.4 175.985 25.408 178.081 25.408C180.177 25.408 181.617 26.4 181.617 27.904C181.617 29.44 180.177 30.416 178.081 30.416ZM177.569 35.248V32.48C176.145 32.544 174.769 32.56 173.585 32.56L173.409 31.472C176.065 31.472 179.617 31.44 182.657 31.056L182.769 32C181.505 32.192 180.177 32.336 178.881 32.416V35.248H177.569ZM176.769 37.792H185.601V38.864H175.457V34.688H176.769V37.792ZM195.359 36.288H201.231V37.376H188.191V36.288H194.031V32.608H189.855V25.984H199.583V27.056H191.167V31.552H199.727V32.608H195.359V36.288ZM217 33.68V31.04H214.632V29.968H217V28.464H214.632V27.392H217V24.848H218.328V33.68H217ZM209.624 26.976V31.712C210.328 31.696 211.064 31.664 211.784 31.632V26.976H209.624ZM214.936 31.376L215.016 32.352C212.248 32.784 209.016 32.832 206.696 32.832L206.552 31.744C207.096 31.744 207.72 31.744 208.36 31.728V26.976H206.936V25.92H214.488V26.976H213.064V31.552C213.704 31.504 214.344 31.456 214.936 31.376ZM213.592 38.144C215.768 38.144 217.064 37.568 217.064 36.56C217.064 35.584 215.768 34.992 213.592 34.992C211.416 34.992 210.12 35.584 210.12 36.56C210.12 37.568 211.416 38.144 213.592 38.144ZM213.592 33.984C216.552 33.984 218.376 34.912 218.376 36.56C218.376 38.224 216.552 39.168 213.592 39.168C210.616 39.168 208.808 38.224 208.808 36.56C208.808 34.912 210.616 33.984 213.592 33.984ZM229.623 31.872L229.015 32.896C227.383 32.384 226.119 31.344 225.479 29.984C224.871 31.504 223.575 32.688 221.895 33.264L221.239 32.224C223.367 31.568 224.807 29.84 224.807 27.92V27.632H221.623V26.576H224.807V24.752H226.119V26.576H229.287V27.632H226.119V27.92C226.119 29.664 227.511 31.248 229.623 31.872ZM227.799 38.144C229.911 38.144 231.207 37.568 231.207 36.576C231.207 35.584 229.911 35.008 227.799 35.008C225.655 35.008 224.375 35.584 224.375 36.576C224.375 37.568 225.655 38.144 227.799 38.144ZM227.799 33.984C230.727 33.984 232.519 34.912 232.519 36.576C232.519 38.224 230.727 39.152 227.799 39.152C224.839 39.152 223.063 38.224 223.063 36.576C223.063 34.912 224.839 33.984 227.799 33.984ZM232.359 28.544H234.487V29.632H232.359V33.632H231.047V24.832H232.359V28.544ZM239.19 34.816C240.31 34.816 241.046 33.36 241.046 31.008C241.046 28.704 240.31 27.248 239.19 27.248C238.038 27.248 237.318 28.704 237.318 31.008C237.318 33.36 238.038 34.816 239.19 34.816ZM244.038 30.416V25.152H245.286V38.48H244.038V31.488H242.23C242.118 34.304 240.95 36.032 239.19 36.032C237.318 36.032 236.118 34.112 236.118 31.008C236.118 27.952 237.318 26.032 239.19 26.032C240.918 26.032 242.07 27.712 242.23 30.416H244.038ZM246.886 24.832H248.134V39.184H246.886V24.832ZM257.039 27.072V31.728H264.383V27.072H257.039ZM261.391 36.256H267.247V37.344H254.239V36.256H260.063V32.768H255.775V26.032H265.663V32.768H261.391V36.256ZM272.861 26.72C271.469 26.72 270.445 27.664 270.445 28.992C270.445 30.32 271.469 31.28 272.861 31.28C274.269 31.28 275.293 30.32 275.293 28.992C275.293 27.664 274.269 26.72 272.861 26.72ZM279.453 27.904H276.365C276.477 28.24 276.541 28.608 276.541 28.992C276.541 29.376 276.477 29.728 276.381 30.048H279.453V27.904ZM279.453 31.12H275.805C275.133 31.904 274.093 32.384 272.861 32.384C270.749 32.384 269.197 30.976 269.197 28.992C269.197 27.008 270.749 25.616 272.861 25.616C274.077 25.616 275.101 26.08 275.757 26.832H279.453V24.848H280.781V33.008H279.453V31.12ZM279.213 33.472V34.416C279.213 35.92 280.269 37.424 282.109 38.048L281.453 39.024C280.061 38.496 279.037 37.52 278.557 36.304C278.109 37.472 277.245 38.576 275.917 39.136C274.541 38.608 273.677 37.536 273.245 36.352C272.733 37.504 271.757 38.496 270.413 39.024L269.757 38.048C271.565 37.376 272.637 35.824 272.637 34.416V33.472H273.901V34.416C273.901 35.712 274.557 37.088 275.901 37.872C277.261 37.008 277.933 35.552 277.933 34.416V33.472H279.213ZM2.768 51.296V58.512C5.312 58.512 7.152 58.4 9.232 58.032L9.376 59.12C7.184 59.536 5.296 59.632 2.592 59.632H1.456V50.208H8.128V51.296H2.768ZM14.256 54.496V55.584H11.888V63.216H10.576V48.832H11.888V54.496H14.256ZM16.9428 62.208C16.3668 62.208 15.8868 61.76 15.8868 61.104C15.8868 60.432 16.3668 59.968 16.9428 59.968C17.5188 59.968 17.9988 60.432 17.9988 61.104C17.9988 61.76 17.5188 62.208 16.9428 62.208ZM32.11 50.352V51.408H23.646V50.352H27.214V48.704H28.526V50.352H32.11ZM25.694 54.688C25.694 55.632 26.558 56.256 27.87 56.256C29.182 56.256 30.062 55.632 30.062 54.688C30.062 53.744 29.182 53.12 27.87 53.12C26.558 53.12 25.694 53.744 25.694 54.688ZM31.31 54.688C31.31 56.24 29.918 57.232 27.87 57.232C25.822 57.232 24.446 56.24 24.446 54.688C24.446 53.12 25.822 52.128 27.87 52.128C29.918 52.128 31.31 53.12 31.31 54.688ZM27.006 59.328V61.936H33.438V59.328H27.006ZM25.726 62.992V58.288H34.734V62.992H25.726ZM36.862 52.656V53.744H34.734V57.472H33.422V48.848H34.734V52.656H36.862ZM38.6528 50.544H41.8368C41.8368 53.616 41.4368 56.992 39.3728 59.776L38.3488 59.2C40.1248 56.912 40.6208 54.288 40.7168 51.616H38.6528V50.544ZM46.6528 54.464V49.2H47.8848V62.448H46.6528V55.536H44.6528C44.3168 57.328 43.7088 59.136 42.5568 60.704L41.5328 60.112C43.4848 57.552 43.8208 54.32 43.8688 51.616H42.3168V50.544H45.0048C45.0048 51.728 44.9728 53.072 44.8128 54.464H46.6528ZM49.3088 48.832H50.5568V63.168H49.3088V48.832ZM63.0936 50.048C60.8056 50.048 59.3976 50.656 59.3976 51.664C59.3976 52.688 60.8056 53.28 63.0936 53.28C65.3816 53.28 66.7896 52.688 66.7896 51.664C66.7896 50.656 65.3816 50.048 63.0936 50.048ZM63.0936 54.304C59.9736 54.304 58.0536 53.344 58.0536 51.664C58.0536 50 59.9736 49.04 63.0936 49.04C66.2136 49.04 68.1336 50 68.1336 51.664C68.1336 53.344 66.2136 54.304 63.0936 54.304ZM63.7656 58.704V59.152C63.7656 60.72 65.9736 61.872 68.5976 62.128L68.1656 63.136C65.9256 62.864 63.9256 62.016 63.0936 60.656C62.2136 62 60.2296 62.88 57.9896 63.136L57.5576 62.128C60.1496 61.856 62.4056 60.688 62.4056 59.152V58.704H63.7656ZM56.6136 55.392H69.6216V56.464H63.7336V58.048H62.4376V56.464H56.6136V55.392ZM81.4604 51.696V51.344H72.7084V50.272H82.7724V51.696C82.7724 53.472 82.7724 55.44 82.2284 58.336L80.9164 58.192C81.4604 55.44 81.4604 53.424 81.4604 51.696ZM77.7004 60.096H84.3244V61.168H71.3484V60.096H76.3884V54.96H77.7004V60.096ZM86.4031 65.04L86.0511 64.176C87.0591 63.728 87.6511 62.944 87.6511 62C87.5871 62.016 87.5391 62.016 87.4751 62.016C86.9151 62.016 86.4031 61.664 86.4031 60.992C86.4031 60.368 86.9151 59.968 87.5071 59.968C88.2751 59.968 88.7391 60.624 88.7391 61.696C88.7391 63.232 87.8431 64.432 86.4031 65.04ZM95.5224 59.712V58.656H105.458V63.2H104.146V59.712H95.5224ZM97.0264 50.464V53.248H104.098V50.464H97.0264ZM101.234 56.112H107.058V57.168H94.0664V56.112H99.9224V54.288H95.7464V49.424H105.394V54.288H101.234V56.112ZM116.433 52.912H119.297V48.832H120.625V57.536H119.297V54H116.433V52.912ZM117.297 55.904L116.673 56.928C115.025 56.416 113.729 55.344 113.073 53.952C112.465 55.52 111.169 56.736 109.473 57.296L108.833 56.288C110.945 55.568 112.385 53.824 112.385 51.888V51.616H109.201V50.56H112.385V48.752H113.697V50.56H116.865V51.616H113.697V51.888C113.697 53.68 115.185 55.28 117.297 55.904ZM115.873 62.144C118.049 62.144 119.361 61.536 119.361 60.528C119.361 59.536 118.065 58.928 115.873 58.928C113.713 58.928 112.417 59.536 112.417 60.528C112.417 61.536 113.713 62.144 115.873 62.144ZM115.873 57.904C118.849 57.904 120.673 58.864 120.673 60.528C120.673 62.208 118.849 63.168 115.873 63.168C112.929 63.168 111.105 62.208 111.105 60.528C111.105 58.864 112.929 57.904 115.873 57.904ZM128.608 57.296L127.664 56.512C129.552 54.992 130.336 53.232 130.496 51.008H128.304V49.952H131.744C131.744 51.008 131.648 52 131.408 52.944H133.968V48.848H135.28V58.656H133.968V54.016H131.056C130.56 55.216 129.776 56.304 128.608 57.296ZM124 49.952H127.76C127.76 52.8 126.864 54.832 124.448 56.544L123.6 55.712C125.456 54.464 126.32 53.088 126.512 51.008H124V49.952ZM131.296 57.424V57.984C131.296 60.032 133.504 61.616 136.064 62.064L135.52 63.104C133.408 62.688 131.488 61.584 130.64 59.92C129.792 61.584 127.856 62.72 125.712 63.136L125.184 62.096C127.744 61.648 129.984 60.064 129.984 57.984V57.424H131.296ZM141.817 55.808H154.777V56.864H141.817V55.808ZM148.297 58.064C151.369 58.064 153.209 58.976 153.209 60.624C153.209 62.256 151.369 63.184 148.297 63.184C145.241 63.184 143.385 62.256 143.385 60.624C143.385 58.976 145.241 58.064 148.297 58.064ZM148.297 59.072C146.041 59.072 144.713 59.648 144.713 60.624C144.713 61.6 146.041 62.16 148.297 62.16C150.553 62.16 151.881 61.6 151.881 60.624C151.881 59.648 150.553 59.072 148.297 59.072ZM148.297 49.2C151.401 49.2 153.337 50.208 153.337 51.936C153.337 53.648 151.401 54.656 148.297 54.656C145.209 54.656 143.257 53.648 143.257 51.936C143.257 50.208 145.209 49.2 148.297 49.2ZM148.297 50.224C146.025 50.224 144.601 50.864 144.601 51.936C144.601 52.992 146.025 53.632 148.297 53.632C150.569 53.632 151.993 52.992 151.993 51.936C151.993 50.864 150.569 50.224 148.297 50.224ZM164.056 57.312H166.968V48.832H168.28V59.76H166.968V58.288H164.056V57.312ZM161.128 50.384C159.768 50.384 158.84 50.992 158.84 51.904C158.84 52.832 159.768 53.44 161.128 53.44C162.488 53.44 163.416 52.832 163.416 51.904C163.416 50.992 162.488 50.384 161.128 50.384ZM161.128 54.416C159.032 54.416 157.592 53.44 157.592 51.904C157.592 50.4 159.032 49.408 161.128 49.408C163.224 49.408 164.664 50.4 164.664 51.904C164.664 53.44 163.224 54.416 161.128 54.416ZM160.616 59.248V56.48C159.192 56.544 157.816 56.56 156.632 56.56L156.456 55.472C159.112 55.472 162.664 55.44 165.704 55.056L165.816 56C164.552 56.192 163.224 56.336 161.928 56.416V59.248H160.616ZM159.816 61.792H168.648V62.864H158.504V58.688H159.816V61.792ZM175.462 58.896C176.774 58.896 177.718 57.968 177.718 56.688C177.718 55.392 176.774 54.464 175.462 54.464C174.166 54.464 173.222 55.392 173.222 56.688C173.222 57.968 174.166 58.896 175.462 58.896ZM175.462 53.376C177.51 53.376 178.966 54.752 178.966 56.688C178.966 58.64 177.51 59.984 175.462 59.984C173.446 59.984 171.99 58.64 171.99 56.688C171.99 54.752 173.446 53.376 175.462 53.376ZM176.102 49.008V51.136H179.638V52.192H171.174V51.136H174.79V49.008H176.102ZM184.662 54.736V55.84H182.31V63.184H180.998V48.848H182.31V54.736H184.662ZM193.077 56.224H196.485V53.344H193.077V56.224ZM191.781 58.512V51.28H187.829V58.512H191.781ZM196.485 48.832H197.797V63.216H196.485V57.296H193.077V59.552H186.549V50.24H193.077V52.272H196.485V48.832ZM210.222 55.92V53.296H206.158V55.92H210.222ZM211.502 49.872V56.976H204.862V49.872H206.158V52.272H210.222V49.872H211.502ZM207.79 58.368V61.792H216.046V62.864H206.478V58.368H207.79ZM215.406 53.184H217.518V54.288H215.406V59.376H214.094V48.848H215.406V53.184ZM228.509 55.84L227.821 56.784C226.717 56.208 226.029 55.152 225.629 54.032C225.341 55.168 224.765 56.288 223.677 56.928C222.605 56.272 222.029 55.136 221.741 54.016C221.341 55.136 220.653 56.192 219.549 56.784L218.861 55.84C220.477 54.96 221.133 53.088 221.133 51.712V50.976H219.357V49.904H223.373V50.976H222.381V51.712C222.381 52.752 222.653 54.352 223.693 55.456C224.733 54.384 224.989 52.8 224.989 51.712V50.976H223.997V49.904H227.981V50.976H226.253V51.712C226.253 53.12 226.893 54.992 228.509 55.84ZM220.813 59.184V58.128H230.429V63.2H229.117V59.184H220.813ZM232.237 52.576V53.68H230.429V57.472H229.117V48.848H230.429V52.576H232.237ZM244.139 48.832H245.451V63.216H244.139V48.832ZM237.883 49.936C240.011 49.936 241.531 51.888 241.531 54.944C241.531 58 240.011 59.952 237.883 59.952C235.755 59.952 234.235 58 234.235 54.944C234.235 51.888 235.755 49.936 237.883 49.936ZM237.883 51.12C236.475 51.12 235.483 52.624 235.483 54.944C235.483 57.28 236.475 58.784 237.883 58.784C239.275 58.784 240.267 57.28 240.267 54.944C240.267 52.624 239.275 51.12 237.883 51.12ZM259.93 53.152V54.224H250.17V49.36H251.482V53.152H259.93ZM251.386 58.64V61.76H260.01V62.832H250.074V58.64H251.386ZM248.41 56.144H261.418V57.2H248.41V56.144ZM270.547 58.784C271.923 58.784 272.899 57.28 272.899 54.944C272.899 52.624 271.923 51.12 270.547 51.12C269.155 51.12 268.179 52.624 268.179 54.944C268.179 57.28 269.155 58.784 270.547 58.784ZM270.547 49.936C272.659 49.936 274.147 51.888 274.147 54.944C274.147 58 272.659 59.952 270.547 59.952C268.435 59.952 266.931 58 266.931 54.944C266.931 51.888 268.435 49.936 270.547 49.936ZM280.131 54.56V55.664H277.763V63.184H276.451V48.848H277.763V54.56H280.131ZM291.874 48.832H293.186V63.216H291.874V48.832ZM285.618 49.936C287.746 49.936 289.266 51.888 289.266 54.944C289.266 58 287.746 59.952 285.618 59.952C283.49 59.952 281.97 58 281.97 54.944C281.97 51.888 283.49 49.936 285.618 49.936ZM285.618 51.12C284.21 51.12 283.218 52.624 283.218 54.944C283.218 57.28 284.21 58.784 285.618 58.784C287.01 58.784 288.002 57.28 288.002 54.944C288.002 52.624 287.01 51.12 285.618 51.12ZM3.072 75.296V82.528C5.84 82.528 7.648 82.448 9.76 82.048L9.904 83.152C7.696 83.552 5.824 83.648 2.928 83.648H1.776V74.192H8.56V75.296H3.072ZM11.28 72.832H12.592V87.216H11.28V72.832ZM19.4068 82.784C20.7668 82.784 21.7268 81.28 21.7268 78.944C21.7268 76.624 20.7668 75.12 19.4068 75.12C18.0308 75.12 17.0707 76.624 17.0707 78.944C17.0707 81.28 18.0308 82.784 19.4068 82.784ZM26.0788 72.832H27.3908V87.216H26.0788V79.376H22.9588C22.8308 82.192 21.4068 83.952 19.4068 83.952C17.3108 83.952 15.8228 82 15.8228 78.944C15.8228 75.888 17.3108 73.936 19.4068 73.936C21.3428 73.936 22.7508 75.616 22.9588 78.304H26.0788V72.832ZM40.3335 75.344V74.176H31.9175V73.248H41.6295V76.24H33.2455V77.472H41.8855V78.416H31.9495V75.344H40.3335ZM33.1655 84.72V86.048H42.1255V86.992H31.8695V83.808H40.3815V82.608H31.8375V81.664H41.6775V84.72H33.1655ZM30.2855 79.504H43.2935V80.496H30.2855V79.504ZM58.6144 74.784V74.624H50.1344V73.568H59.9104V74.784C59.9104 75.936 59.9104 77.104 59.5104 78.576L58.2304 78.432C58.6144 76.96 58.6144 75.904 58.6144 74.784ZM55.0144 86.144C57.2704 86.144 58.7104 85.536 58.7104 84.544C58.7104 83.52 57.2704 82.912 55.0144 82.912C52.7744 82.912 51.3344 83.52 51.3344 84.544C51.3344 85.536 52.7744 86.144 55.0144 86.144ZM55.0144 81.904C58.0704 81.904 60.0224 82.88 60.0224 84.544C60.0224 86.176 58.0704 87.168 55.0144 87.168C51.9584 87.168 50.0224 86.176 50.0224 84.544C50.0224 82.88 51.9584 81.904 55.0144 81.904ZM55.2224 79.52H61.5264V80.576H48.6144V79.52H53.9104V76.768H55.2224V79.52ZM69.7651 74.464C67.5891 74.464 66.1011 75.264 66.1011 76.528C66.1011 77.792 67.5891 78.608 69.7651 78.608C71.9571 78.608 73.4451 77.792 73.4451 76.528C73.4451 75.264 71.9571 74.464 69.7651 74.464ZM69.7651 79.664C66.7891 79.664 64.7571 78.448 64.7571 76.528C64.7571 74.608 66.7891 73.408 69.7651 73.408C72.7571 73.408 74.7891 74.608 74.7891 76.528C74.7891 78.448 72.7571 79.664 69.7651 79.664ZM76.2931 81.008V82.08H72.9011V87.184H71.5731V82.08H67.9731V87.184H66.6451V82.08H63.3011V81.008H76.2931ZM86.5319 74.592V75.648H78.0679V74.592H81.6359V72.832H82.9479V74.592H86.5319ZM80.1159 79.104C80.1159 80.112 80.9959 80.752 82.2919 80.752C83.5879 80.752 84.4839 80.112 84.4839 79.104C84.4839 78.112 83.5879 77.472 82.2919 77.472C80.9959 77.472 80.1159 78.112 80.1159 79.104ZM85.7319 79.104C85.7319 80.72 84.3239 81.776 82.2919 81.776C80.2599 81.776 78.8679 80.72 78.8679 79.104C78.8679 77.504 80.2599 76.448 82.2919 76.448C84.3239 76.448 85.7319 77.504 85.7319 79.104ZM81.5399 82.752V85.792H89.7959V86.864H80.2279V82.752H81.5399ZM89.1559 77.568H91.2679V78.672H89.1559V83.6H87.8439V72.832H89.1559V77.568ZM101.405 74.08V76.656C101.405 79.28 103.117 81.92 105.245 82.88L104.461 83.936C102.829 83.136 101.453 81.44 100.765 79.392C100.109 81.552 98.7328 83.344 97.0528 84.208L96.2528 83.136C98.3648 82.128 100.109 79.376 100.109 76.656V74.08H101.405ZM106.749 72.832H108.061V87.216H106.749V72.832ZM111.644 73.952H118.332C118.332 77.664 115.724 80.384 111.596 81.68L111.068 80.64C114.444 79.584 116.652 77.552 116.924 75.024H111.644V73.952ZM114.54 82.256V85.792H122.796V86.864H113.228V82.256H114.54ZM122.172 77.2H124.284V78.288H122.172V83.328H120.86V72.848H122.172V77.2ZM127.13 86.208C126.554 86.208 126.074 85.76 126.074 85.104C126.074 84.432 126.554 83.968 127.13 83.968C127.706 83.968 128.186 84.432 128.186 85.104C128.186 85.76 127.706 86.208 127.13 86.208Z" fill="#444444"/>
</svg>
