<svg width="30" height="30" viewBox="0 0 30 30" fill="none" xmlns="http://www.w3.org/2000/svg">
<mask id="mask0_55_1189" style="mask-type:alpha" maskUnits="userSpaceOnUse" x="0" y="0" width="30" height="30">
<rect width="30" height="30" fill="#D9D9D9"/>
</mask>
<g mask="url(#mask0_55_1189)">
<path d="M13.7506 9.78125L7.62562 15.9062C7.37562 16.1562 7.08396 16.276 6.75063 16.2656C6.41729 16.2552 6.12563 16.125 5.87563 15.875C5.64646 15.625 5.52667 15.3333 5.51625 15C5.50583 14.6667 5.62563 14.375 5.87563 14.125L14.1256 5.875C14.2506 5.75 14.386 5.66146 14.5319 5.60938C14.6777 5.55729 14.834 5.53125 15.0006 5.53125C15.1673 5.53125 15.3235 5.55729 15.4694 5.60938C15.6152 5.66146 15.7506 5.75 15.8756 5.875L24.1256 14.125C24.3548 14.3542 24.4694 14.6406 24.4694 14.9844C24.4694 15.3281 24.3548 15.625 24.1256 15.875C23.8756 16.125 23.5788 16.25 23.235 16.25C22.8913 16.25 22.5944 16.125 22.3444 15.875L16.2506 9.78125V23.75C16.2506 24.1042 16.1308 24.401 15.8912 24.6406C15.6517 24.8802 15.3548 25 15.0006 25C14.6465 25 14.3496 24.8802 14.11 24.6406C13.8704 24.401 13.7506 24.1042 13.7506 23.75V9.78125Z" fill="white" fill-opacity="0.8"/>
</g>
</svg>
