<svg width="40" height="40" viewBox="0 0 40 40" fill="none" xmlns="http://www.w3.org/2000/svg">
<mask id="mask0_127_56" style="mask-type:alpha" maskUnits="userSpaceOnUse" x="0" y="0" width="40" height="40">
<rect width="40" height="40" fill="#D9D9D9"/>
</mask>
<g mask="url(#mask0_127_56)">
<path d="M8.33301 30.0704C9.83301 28.5982 11.5761 27.4385 13.5622 26.5912C15.5483 25.744 17.6941 25.3204 19.9997 25.3204C22.3052 25.3204 24.4511 25.744 26.4372 26.5912C28.4233 27.4385 30.1663 28.5982 31.6663 30.0704V8.84623C31.6663 8.7179 31.6129 8.6004 31.5059 8.49373C31.3993 8.38678 31.2818 8.33331 31.1534 8.33331H8.84592C8.71759 8.33331 8.60009 8.38678 8.49342 8.49373C8.38648 8.6004 8.33301 8.7179 8.33301 8.84623V30.0704ZM19.9997 21.7308C21.5038 21.7308 22.7827 21.2041 23.8363 20.1508C24.8897 19.0972 25.4163 17.8183 25.4163 16.3141C25.4163 14.81 24.8897 13.5311 23.8363 12.4775C22.7827 11.4241 21.5038 10.8975 19.9997 10.8975C18.4955 10.8975 17.2166 11.4241 16.163 12.4775C15.1097 13.5311 14.583 14.81 14.583 16.3141C14.583 17.8183 15.1097 19.0972 16.163 20.1508C17.2166 21.2041 18.4955 21.7308 19.9997 21.7308ZM8.84592 34.1666C8.00398 34.1666 7.29134 33.875 6.70801 33.2916C6.12467 32.7083 5.83301 31.9957 5.83301 31.1537V8.84623C5.83301 8.00429 6.12467 7.29165 6.70801 6.70831C7.29134 6.12498 8.00398 5.83331 8.84592 5.83331H31.1534C31.9954 5.83331 32.708 6.12498 33.2913 6.70831C33.8747 7.29165 34.1663 8.00429 34.1663 8.84623V31.1537C34.1663 31.9957 33.8747 32.7083 33.2913 33.2916C32.708 33.875 31.9954 34.1666 31.1534 34.1666H8.84592ZM10.2947 31.6666H29.7047C28.2902 30.3697 26.7481 29.4044 25.0784 28.7708C23.4084 28.1372 21.7155 27.8204 19.9997 27.8204C18.3052 27.8204 16.6091 28.1372 14.9113 28.7708C13.2138 29.4044 11.675 30.3697 10.2947 31.6666ZM19.9997 19.2308C19.1983 19.2308 18.5119 18.945 17.9405 18.3733C17.3688 17.8019 17.083 17.1155 17.083 16.3141C17.083 15.5128 17.3688 14.8264 17.9405 14.255C18.5119 13.6833 19.1983 13.3975 19.9997 13.3975C20.8011 13.3975 21.4875 13.6833 22.0588 14.255C22.6305 14.8264 22.9163 15.5128 22.9163 16.3141C22.9163 17.1155 22.6305 17.8019 22.0588 18.3733C21.4875 18.945 20.8011 19.2308 19.9997 19.2308Z" fill="white"/>
</g>
</svg>
