<svg width="40" height="40" viewBox="0 0 40 40" fill="none" xmlns="http://www.w3.org/2000/svg">
<mask id="mask0_127_62" style="mask-type:alpha" maskUnits="userSpaceOnUse" x="0" y="0" width="40" height="40">
<rect width="40" height="40" fill="#D9D9D9"/>
</mask>
<g mask="url(#mask0_127_62)">
<path d="M20.0003 35.8334C17.8295 35.8334 15.7809 35.4172 13.8545 34.585C11.9281 33.7528 10.2481 32.6197 8.81449 31.1859C7.3806 29.7522 6.24755 28.0722 5.41533 26.1459C4.5831 24.2195 4.16699 22.1709 4.16699 20C4.16699 17.812 4.5831 15.759 5.41533 13.8413C6.24755 11.9235 7.3806 10.2478 8.81449 8.81419C10.2481 7.3803 11.9281 6.24724 13.8545 5.41502C15.7809 4.5828 17.8295 4.16669 20.0003 4.16669C22.1884 4.16669 24.2413 4.5828 26.1591 5.41502C28.0769 6.24724 29.7525 7.3803 31.1862 8.81419C32.62 10.2478 33.7531 11.9235 34.5853 13.8413C35.4175 15.759 35.8337 17.812 35.8337 20C35.8337 22.1709 35.4175 24.2195 34.5853 26.1459C33.7531 28.0722 32.62 29.7522 31.1862 31.1859C29.7525 32.6197 28.0769 33.7528 26.1591 34.585C24.2413 35.4172 22.1884 35.8334 20.0003 35.8334ZM20.0003 33.2979C20.8509 32.1699 21.5667 31.0321 22.1478 29.8846C22.7289 28.7371 23.2023 27.4828 23.5678 26.1217H16.4328C16.8198 27.5256 17.2985 28.8013 17.8691 29.9488C18.4394 31.0963 19.1498 32.2127 20.0003 33.2979ZM16.7728 32.8396C16.1339 31.9229 15.5602 30.8809 15.0516 29.7134C14.543 28.5456 14.1477 27.3484 13.8657 26.1217H8.21199C9.09227 27.8525 10.2728 29.3067 11.7537 30.4842C13.2345 31.6614 14.9075 32.4465 16.7728 32.8396ZM23.2278 32.8396C25.0931 32.4465 26.7662 31.6614 28.247 30.4842C29.7278 29.3067 30.9084 27.8525 31.7887 26.1217H26.1349C25.7994 27.3589 25.3773 28.5614 24.8687 29.7292C24.3603 30.897 23.8134 31.9338 23.2278 32.8396ZM7.16366 23.6217H13.3595C13.2548 23.0022 13.1788 22.3949 13.1316 21.7996C13.0846 21.2046 13.0612 20.6047 13.0612 20C13.0612 19.3953 13.0846 18.7954 13.1316 18.2004C13.1788 17.6052 13.2548 16.9978 13.3595 16.3784H7.16366C7.00338 16.9445 6.8806 17.5331 6.79533 18.1442C6.70977 18.7553 6.66699 19.3739 6.66699 20C6.66699 20.6261 6.70977 21.2447 6.79533 21.8559C6.8806 22.467 7.00338 23.0556 7.16366 23.6217ZM15.8591 23.6217H24.1416C24.246 23.0022 24.3219 22.4003 24.3691 21.8159C24.416 21.2314 24.4395 20.6261 24.4395 20C24.4395 19.3739 24.416 18.7686 24.3691 18.1842C24.3219 17.5997 24.246 16.9978 24.1416 16.3784H15.8591C15.7546 16.9978 15.6788 17.5997 15.6316 18.1842C15.5846 18.7686 15.5612 19.3739 15.5612 20C15.5612 20.6261 15.5846 21.2314 15.6316 21.8159C15.6788 22.4003 15.7546 23.0022 15.8591 23.6217ZM26.6412 23.6217H32.837C32.9973 23.0556 33.12 22.467 33.2053 21.8559C33.2909 21.2447 33.3337 20.6261 33.3337 20C33.3337 19.3739 33.2909 18.7553 33.2053 18.1442C33.12 17.5331 32.9973 16.9445 32.837 16.3784H26.6412C26.7459 16.9978 26.8219 17.6052 26.8691 18.2004C26.916 18.7954 26.9395 19.3953 26.9395 20C26.9395 20.6047 26.916 21.2046 26.8691 21.7996C26.8219 22.3949 26.7459 23.0022 26.6412 23.6217ZM26.1349 13.8784H31.7887C30.8978 12.1261 29.7253 10.672 28.2712 9.51585C26.817 8.36002 25.1359 7.56947 23.2278 7.14419C23.8667 8.11419 24.435 9.17516 24.9328 10.3271C25.4309 11.4788 25.8316 12.6625 26.1349 13.8784ZM16.4328 13.8784H23.5678C23.1809 12.485 22.6942 11.2013 22.1078 10.0271C21.5212 8.85294 20.8187 7.7446 20.0003 6.7021C19.182 7.7446 18.4795 8.85294 17.8928 10.0271C17.3064 11.2013 16.8198 12.485 16.4328 13.8784ZM8.21199 13.8784H13.8657C14.1691 12.6625 14.5698 11.4788 15.0678 10.3271C15.5656 9.17516 16.1339 8.11419 16.7728 7.14419C14.8539 7.56947 13.1702 8.3628 11.7216 9.52419C10.2727 10.6853 9.10283 12.1367 8.21199 13.8784Z" fill="white"/>
</g>
</svg>
