<svg width="40" height="40" viewBox="0 0 40 40" fill="none" xmlns="http://www.w3.org/2000/svg">
<mask id="mask0_165_219" style="mask-type:alpha" maskUnits="userSpaceOnUse" x="0" y="0" width="40" height="40">
<rect width="40" height="40" fill="#252525"/>
</mask>
<g mask="url(#mask0_165_219)">
<path d="M8.33301 30.0705C9.83301 28.5982 11.5761 27.4385 13.5622 26.5913C15.5483 25.7441 17.6941 25.3205 19.9997 25.3205C22.3052 25.3205 24.4511 25.7441 26.4372 26.5913C28.4233 27.4385 30.1663 28.5982 31.6663 30.0705V8.84629C31.6663 8.71796 31.6129 8.60046 31.5059 8.49379C31.3993 8.38685 31.2818 8.33337 31.1534 8.33337H8.84592C8.71759 8.33337 8.60009 8.38685 8.49342 8.49379C8.38648 8.60046 8.33301 8.71796 8.33301 8.84629V30.0705ZM19.9997 21.7309C21.5038 21.7309 22.7827 21.2042 23.8363 20.1509C24.8897 19.0973 25.4163 17.8184 25.4163 16.3142C25.4163 14.81 24.8897 13.5312 23.8363 12.4775C22.7827 11.4242 21.5038 10.8975 19.9997 10.8975C18.4955 10.8975 17.2166 11.4242 16.163 12.4775C15.1097 13.5312 14.583 14.81 14.583 16.3142C14.583 17.8184 15.1097 19.0973 16.163 20.1509C17.2166 21.2042 18.4955 21.7309 19.9997 21.7309ZM8.84592 34.1667C8.00398 34.1667 7.29134 33.875 6.70801 33.2917C6.12467 32.7084 5.83301 31.9957 5.83301 31.1538V8.84629C5.83301 8.00435 6.12467 7.29171 6.70801 6.70837C7.29134 6.12504 8.00398 5.83337 8.84592 5.83337H31.1534C31.9954 5.83337 32.708 6.12504 33.2913 6.70837C33.8747 7.29171 34.1663 8.00435 34.1663 8.84629V31.1538C34.1663 31.9957 33.8747 32.7084 33.2913 33.2917C32.708 33.875 31.9954 34.1667 31.1534 34.1667H8.84592ZM10.2947 31.6667H29.7047C28.2902 30.3698 26.7481 29.4045 25.0784 28.7709C23.4084 28.1373 21.7155 27.8205 19.9997 27.8205C18.3052 27.8205 16.6091 28.1373 14.9113 28.7709C13.2138 29.4045 11.675 30.3698 10.2947 31.6667ZM19.9997 19.2309C19.1983 19.2309 18.5119 18.945 17.9405 18.3734C17.3688 17.802 17.083 17.1156 17.083 16.3142C17.083 15.5128 17.3688 14.8264 17.9405 14.255C18.5119 13.6834 19.1983 13.3975 19.9997 13.3975C20.8011 13.3975 21.4875 13.6834 22.0588 14.255C22.6305 14.8264 22.9163 15.5128 22.9163 16.3142C22.9163 17.1156 22.6305 17.802 22.0588 18.3734C21.4875 18.945 20.8011 19.2309 19.9997 19.2309Z" fill="#272D4F"/>
</g>
</svg>
