<svg width="40" height="40" viewBox="0 0 40 40" fill="none" xmlns="http://www.w3.org/2000/svg">
<mask id="mask0_165_222" style="mask-type:alpha" maskUnits="userSpaceOnUse" x="0" y="0" width="40" height="40">
<rect width="40" height="40" fill="#252525"/>
</mask>
<g mask="url(#mask0_165_222)">
<path d="M20.0003 35.8333C17.8295 35.8333 15.7809 35.4172 13.8545 34.585C11.9281 33.7527 10.2481 32.6197 8.81449 31.1858C7.3806 29.7522 6.24755 28.0722 5.41533 26.1458C4.5831 24.2194 4.16699 22.1708 4.16699 20C4.16699 17.8119 4.5831 15.759 5.41533 13.8412C6.24755 11.9234 7.3806 10.2477 8.81449 8.81413C10.2481 7.38024 11.9281 6.24718 13.8545 5.41496C15.7809 4.58274 17.8295 4.16663 20.0003 4.16663C22.1884 4.16663 24.2413 4.58274 26.1591 5.41496C28.0769 6.24718 29.7525 7.38024 31.1862 8.81413C32.62 10.2477 33.7531 11.9234 34.5853 13.8412C35.4175 15.759 35.8337 17.8119 35.8337 20C35.8337 22.1708 35.4175 24.2194 34.5853 26.1458C33.7531 28.0722 32.62 29.7522 31.1862 31.1858C29.7525 32.6197 28.0769 33.7527 26.1591 34.585C24.2413 35.4172 22.1884 35.8333 20.0003 35.8333ZM20.0003 33.2979C20.8509 32.1698 21.5667 31.032 22.1478 29.8845C22.7289 28.737 23.2023 27.4827 23.5678 26.1216H16.4328C16.8198 27.5255 17.2985 28.8012 17.8691 29.9487C18.4394 31.0962 19.1498 32.2126 20.0003 33.2979ZM16.7728 32.8395C16.1339 31.9229 15.5602 30.8808 15.0516 29.7133C14.543 28.5455 14.1477 27.3483 13.8657 26.1216H8.21199C9.09227 27.8525 10.2728 29.3066 11.7537 30.4841C13.2345 31.6613 14.9075 32.4465 16.7728 32.8395ZM23.2278 32.8395C25.0931 32.4465 26.7662 31.6613 28.247 30.4841C29.7278 29.3066 30.9084 27.8525 31.7887 26.1216H26.1349C25.7994 27.3588 25.3773 28.5613 24.8687 29.7291C24.3603 30.8969 23.8134 31.9337 23.2278 32.8395ZM7.16366 23.6216H13.3595C13.2548 23.0022 13.1788 22.3948 13.1316 21.7995C13.0846 21.2045 13.0612 20.6047 13.0612 20C13.0612 19.3952 13.0846 18.7954 13.1316 18.2004C13.1788 17.6051 13.2548 16.9977 13.3595 16.3783H7.16366C7.00338 16.9444 6.8806 17.533 6.79533 18.1441C6.70977 18.7552 6.66699 19.3738 6.66699 20C6.66699 20.6261 6.70977 21.2447 6.79533 21.8558C6.8806 22.4669 7.00338 23.0555 7.16366 23.6216ZM15.8591 23.6216H24.1416C24.246 23.0022 24.3219 22.4002 24.3691 21.8158C24.416 21.2313 24.4395 20.6261 24.4395 20C24.4395 19.3738 24.416 18.7686 24.3691 18.1841C24.3219 17.5997 24.246 16.9977 24.1416 16.3783H15.8591C15.7546 16.9977 15.6788 17.5997 15.6316 18.1841C15.5846 18.7686 15.5612 19.3738 15.5612 20C15.5612 20.6261 15.5846 21.2313 15.6316 21.8158C15.6788 22.4002 15.7546 23.0022 15.8591 23.6216ZM26.6412 23.6216H32.837C32.9973 23.0555 33.12 22.4669 33.2053 21.8558C33.2909 21.2447 33.3337 20.6261 33.3337 20C33.3337 19.3738 33.2909 18.7552 33.2053 18.1441C33.12 17.533 32.9973 16.9444 32.837 16.3783H26.6412C26.7459 16.9977 26.8219 17.6051 26.8691 18.2004C26.916 18.7954 26.9395 19.3952 26.9395 20C26.9395 20.6047 26.916 21.2045 26.8691 21.7995C26.8219 22.3948 26.7459 23.0022 26.6412 23.6216ZM26.1349 13.8783H31.7887C30.8978 12.1261 29.7253 10.6719 28.2712 9.51579C26.817 8.35996 25.1359 7.5694 23.2278 7.14413C23.8667 8.11413 24.435 9.1751 24.9328 10.327C25.4309 11.4787 25.8316 12.6625 26.1349 13.8783ZM16.4328 13.8783H23.5678C23.1809 12.485 22.6942 11.2012 22.1078 10.027C21.5212 8.85288 20.8187 7.74454 20.0003 6.70204C19.182 7.74454 18.4795 8.85288 17.8928 10.027C17.3064 11.2012 16.8198 12.485 16.4328 13.8783ZM8.21199 13.8783H13.8657C14.1691 12.6625 14.5698 11.4787 15.0678 10.327C15.5656 9.1751 16.1339 8.11413 16.7728 7.14413C14.8539 7.5694 13.1702 8.36274 11.7216 9.52413C10.2727 10.6852 9.10283 12.1366 8.21199 13.8783Z" fill="#272D4F"/>
</g>
</svg>
