<svg width="35" height="35" viewBox="0 0 35 35" fill="none" xmlns="http://www.w3.org/2000/svg">
<path d="M14.2105 22.5857C14.4866 22.5857 14.7175 22.4925 14.9032 22.3062C15.0889 22.1198 15.1817 21.8889 15.1817 21.6135V13.3865C15.1817 13.1111 15.0884 12.8802 14.9017 12.6938C14.7151 12.5075 14.4838 12.4143 14.2081 12.4143C13.9323 12.4143 13.7015 12.5075 13.5158 12.6938C13.3301 12.8802 13.2373 13.1111 13.2373 13.3865V21.6135C13.2373 21.8889 13.3306 22.1198 13.5173 22.3062C13.7036 22.4925 13.9347 22.5857 14.2105 22.5857ZM20.7919 22.5857C21.0677 22.5857 21.2985 22.4925 21.4842 22.3062C21.6699 22.1198 21.7627 21.8889 21.7627 21.6135V13.3865C21.7627 13.1111 21.6694 12.8802 21.4827 12.6938C21.2964 12.5075 21.0653 12.4143 20.7895 12.4143C20.5134 12.4143 20.2825 12.5075 20.0968 12.6938C19.9111 12.8802 19.8183 13.1111 19.8183 13.3865V21.6135C19.8183 21.8889 19.9116 22.1198 20.0983 22.3062C20.2849 22.4925 20.5162 22.5857 20.7919 22.5857ZM17.5063 35C15.0865 35 12.8113 34.5429 10.6808 33.6287C8.55069 32.7141 6.69764 31.4733 5.12167 29.906C3.54569 28.3385 2.29817 26.4953 1.3791 24.3765C0.459699 22.2577 0 19.9905 0 17.5749C0 16.5877 0.0810185 15.6129 0.243056 14.6504C0.405093 13.6882 0.635671 12.7298 0.934791 11.7751C1.02197 11.5058 1.19211 11.3133 1.44521 11.1976C1.69831 11.0815 1.94331 11.0783 2.18021 11.1878C2.43428 11.2977 2.61058 11.4917 2.7091 11.7697C2.80762 12.0475 2.81329 12.3247 2.72611 12.6015C2.48565 13.4045 2.29525 14.2166 2.15493 15.0378C2.01461 15.859 1.94444 16.6798 1.94444 17.5C1.94444 21.8426 3.45139 25.5208 6.46528 28.5347C9.47917 31.5486 13.1574 33.0556 17.5 33.0556C21.8426 33.0556 25.5208 31.5486 28.5347 28.5347C31.5486 25.5208 33.0556 21.8426 33.0556 17.5C33.0556 13.1574 31.5486 9.47917 28.5347 6.46528C25.5208 3.45139 21.8426 1.94444 17.5 1.94444C16.684 1.94444 15.8766 2.00731 15.0777 2.13306C14.2785 2.25912 13.488 2.44805 12.706 2.69986C12.4295 2.78704 12.1604 2.77699 11.8985 2.66972C11.6367 2.56278 11.4422 2.39086 11.3152 2.15396C11.1882 1.91706 11.1801 1.67838 11.2909 1.43792C11.4017 1.19713 11.5793 1.03315 11.8237 0.945973C12.6961 0.639399 13.5886 0.405093 14.5012 0.243056C15.4134 0.0810185 16.3408 0 17.2832 0C19.727 0 22.0239 0.454351 24.1738 1.36305C26.3234 2.27176 28.1983 3.52009 29.7986 5.10806C31.3989 6.69602 32.6659 8.55329 33.5995 10.6799C34.5332 12.8064 35 15.0787 35 17.4966C35 19.9145 34.5408 22.1887 33.6224 24.3192C32.7039 26.4493 31.4575 28.3024 29.8832 29.8783C28.3088 31.4543 26.4574 32.7018 24.3289 33.6209C22.2007 34.5403 19.9265 35 17.5063 35ZM5.68361 7.40396C5.22245 7.40396 4.8206 7.23252 4.47806 6.88965C4.13519 6.54678 3.96375 6.14477 3.96375 5.68361C3.96375 5.22245 4.13519 4.8206 4.47806 4.47806C4.8206 4.13519 5.22245 3.96375 5.68361 3.96375C6.14477 3.96375 6.54678 4.13519 6.88965 4.47806C7.23252 4.8206 7.40396 5.22245 7.40396 5.68361C7.40396 6.14477 7.23252 6.54678 6.88965 6.88965C6.54678 7.23252 6.14477 7.40396 5.68361 7.40396Z" fill="white"/>
</svg>
