<svg width="35" height="35" viewBox="0 0 35 35" fill="none" xmlns="http://www.w3.org/2000/svg">
<path d="M14.804 17.5L20.1323 22.8288C20.3144 23.0044 20.4055 23.224 20.4055 23.4874C20.4055 23.7512 20.3144 23.9778 20.1323 24.167C19.943 24.3816 19.7118 24.4825 19.4386 24.4699C19.1657 24.4575 18.9347 24.3566 18.7454 24.167L13.1775 18.5996C12.8631 18.2852 12.706 17.9187 12.706 17.5C12.706 17.0813 12.8631 16.7148 13.1775 16.4004L18.7566 10.8218C18.9459 10.6322 19.1751 10.5331 19.4444 10.5243C19.7138 10.5156 19.943 10.6184 20.1323 10.833C20.3144 11.0222 20.4011 11.2515 20.3924 11.5208C20.3836 11.7901 20.2844 12.0194 20.0949 12.2087L14.804 17.5ZM17.4937 35C19.9135 35 22.1887 34.5408 24.3192 33.6224C26.4493 32.7039 28.3024 31.4575 29.8783 29.8832C31.4543 28.3088 32.7018 26.4574 33.6209 24.3289C34.5403 22.2007 35 19.9265 35 17.5063C35 15.0865 34.5408 12.8113 33.6224 10.6808C32.7039 8.55069 31.4575 6.69764 29.8832 5.12167C28.3088 3.54569 26.4574 2.29817 24.3289 1.3791C22.2007 0.459699 19.9265 0 17.5063 0C15.0865 0 12.8113 0.459214 10.6808 1.37764C8.55069 2.29607 6.69764 3.54245 5.12167 5.11681C3.54569 6.69116 2.29817 8.54259 1.3791 10.6711C0.459699 12.7993 0 15.0735 0 17.4937C0 19.9135 0.459214 22.1887 1.37764 24.3192C2.29607 26.4493 3.54245 28.3024 5.11681 29.8783C6.69116 31.4543 8.54259 32.7018 10.6711 33.6209C12.7993 34.5403 15.0735 35 17.4937 35ZM17.5 33.0556C13.1574 33.0556 9.47917 31.5486 6.46528 28.5347C3.45139 25.5208 1.94445 21.8426 1.94445 17.5C1.94445 13.1574 3.45139 9.47917 6.46528 6.46528C9.47917 3.45139 13.1574 1.94444 17.5 1.94444C21.8426 1.94444 25.5208 3.45139 28.5347 6.46528C31.5486 9.47917 33.0556 13.1574 33.0556 17.5C33.0556 21.8426 31.5486 25.5208 28.5347 28.5347C25.5208 31.5486 21.8426 33.0556 17.5 33.0556Z" fill="white"/>
</svg>
