<svg width="50" height="50" viewBox="0 0 50 50" fill="none" xmlns="http://www.w3.org/2000/svg">
<mask id="mask0_63_2381" style="mask-type:alpha" maskUnits="userSpaceOnUse" x="0" y="0" width="50" height="50">
<rect width="50" height="50" fill="#D9D9D9"/>
</mask>
<g mask="url(#mask0_63_2381)">
<path d="M33.9346 15.0163L13.5898 35.3205C13.3951 35.5156 13.156 35.6064 12.8727 35.5929C12.5897 35.5797 12.3506 35.4755 12.1555 35.2804C11.9607 35.0856 11.8633 34.8533 11.8633 34.5835C11.8633 34.3137 11.9607 34.0814 12.1555 33.8866L32.4602 13.5418H14.143C13.8478 13.5418 13.6004 13.4418 13.4008 13.2418C13.2011 13.0418 13.1013 12.7941 13.1013 12.4986C13.1013 12.2031 13.2011 11.9559 13.4008 11.7569C13.6004 11.558 13.8478 11.4585 14.143 11.4585H34.3352C34.8119 11.4585 35.2115 11.6198 35.5341 11.9423C35.8567 12.2649 36.018 12.6646 36.018 13.1413V33.3335C36.018 33.6286 35.918 33.876 35.718 34.0757C35.518 34.2753 35.2702 34.3752 34.9747 34.3752C34.6793 34.3752 34.432 34.2753 34.2331 34.0757C34.0341 33.876 33.9346 33.6286 33.9346 33.3335V15.0163Z" fill="#111111"/>
</g>
</svg>
