<svg width="190" height="31" viewBox="0 0 190 31" fill="none" xmlns="http://www.w3.org/2000/svg">
<g clip-path="url(#clip0_32_879)">
<path d="M189.841 15.7201L184.274 15.6468V19.5493C184.274 24.5694 183.423 28.252 183.015 29.3513C182.749 29.6627 182.129 29.846 181.756 29.736C181.526 28.8566 181.047 26.1267 181.047 21.583V4.03095C181.047 3.29809 179.044 1.7774 178.299 1.53922C178.104 1.46594 178.742 0.696434 178.937 0.696434C180.462 0.696434 184.469 1.64915 184.38 2.38201C184.309 2.87669 184.274 3.46298 184.274 4.10424V14.1444L188.493 12.4222C188.865 12.2756 190.532 15.7201 189.858 15.7201M178.281 17.6255C178.866 18.4683 177.289 22.041 176.721 21.1982C175.906 20.0073 173.672 16.4896 171.669 14.1444C168.991 18.0103 165.658 21.1249 162.662 22.7739C162.29 22.7372 161.847 22.1692 161.847 21.8211C165.552 18.4133 169.736 12.4405 171.491 6.99903C171.598 6.68757 170.339 5.73485 169.789 5.38674C169.612 5.27681 170.374 4.69052 170.569 4.69052C171.58 4.69052 174.381 5.88142 175.055 6.3761C175.427 6.65093 175.462 6.83414 175.285 7.29218C174.541 9.28922 173.548 11.1947 172.431 12.9535C174.948 14.749 177.732 16.8194 178.281 17.6255ZM160.287 16.0499L154.684 15.9399V19.5493C154.684 24.5694 153.904 28.252 153.461 29.3513C153.195 29.6627 152.575 29.846 152.238 29.736C151.972 28.8566 151.529 26.1267 151.529 21.583V4.03095C151.529 3.29809 149.525 1.85069 148.781 1.53922C148.603 1.46594 149.224 0.696434 149.419 0.696434C150.943 0.696434 154.862 1.64915 154.791 2.38201C154.755 2.87669 154.684 3.46298 154.684 4.10424V14.4559L158.921 12.7703C159.329 12.5871 160.996 16.0315 160.287 16.0315M142.079 17.7721C143.639 17.7721 144.792 16.6545 144.792 14.9322C144.792 13.21 143.71 12.0558 142.079 12.0558C140.448 12.0558 139.367 13.21 139.367 14.9322C139.367 16.6545 140.448 17.7721 142.079 17.7721ZM136.778 3.1332C136.743 2.98662 136.92 2.51026 137.115 2.52859C138.232 2.74844 139.367 2.94998 140.785 3.1332L144.242 3.51795C144.543 3.55459 145.873 5.44171 144.987 5.44171H139.757C138.87 5.44171 136.831 3.44466 136.76 3.1332M133.303 7.40211C133.268 7.29218 133.481 6.90743 133.569 6.94407C134.154 7.16393 136.229 7.21889 138.196 7.18225L145.27 7.10896C147.309 7.07232 147.912 6.02799 148.231 6.02799C148.568 6.02799 149.862 7.87847 149.862 8.73958C149.862 8.88615 149.72 8.97776 149.49 8.97776C149.153 8.97776 147.185 8.86783 145.625 8.86783L138.019 8.90447C136.796 8.90447 135.98 9.17929 135.608 9.5274C134.651 9.25258 133.463 7.76854 133.339 7.38379M150.199 21.7662C147.15 23.2136 141.299 24.0564 137.292 24.5694C136.211 24.7159 135.555 24.9175 134.917 25.3022C133.888 25.0274 132.399 23.4701 132.257 22.8838C132.293 22.7006 132.435 22.5357 132.523 22.4257C133.64 22.4257 135.271 22.4624 137.239 22.3525C138.462 22.2792 139.615 22.2059 140.661 22.1143L140.466 19.0912C137.877 18.6332 136.282 17.0575 136.282 14.8773C136.282 12.4955 138.285 10.8832 141.441 10.7C141.476 10.5534 141.512 10.4618 141.512 10.3152C141.512 10.0404 141.441 9.71062 141.069 9.4358C141.069 8.77622 143.107 9.4358 143.107 9.7839C143.107 9.93048 142.93 10.3519 142.841 10.7C145.926 10.9198 147.876 12.5321 147.876 14.8773C147.876 17.0575 146.21 18.6332 143.657 19.0912L143.515 21.8211C146.742 21.4364 148.922 20.9051 150.376 20.4104C150.678 20.3005 150.553 21.5646 150.181 21.7479M111.568 4.6722L111.532 10.5351H119.439L119.634 4.6722H111.55H111.568ZM106.444 3.37137C106.409 3.18816 106.887 2.60187 107.118 2.60187C107.703 2.60187 109.724 2.67516 111.054 2.91334H118.588C119.546 2.91334 120.042 2.76677 120.414 2.41866C120.822 2.27208 123.464 2.69348 123.411 3.15152L122.294 10.2053C122.772 10.6633 123.411 11.5794 123.411 12.0741C123.411 12.2207 123.269 12.3123 123.038 12.3123C122.701 12.3123 121.443 12.2756 119.546 12.2756H111.195C110.983 12.6604 110.717 13.0085 110.415 13.3749C110.114 13.6864 109.564 13.833 109.157 13.723C108.82 12.8802 108.536 11.2679 108.306 8.35483L108.004 4.70885C107.969 4.36074 107.011 3.59123 106.444 3.37137ZM125.254 28.2886C125.254 28.4352 125.148 28.5268 124.882 28.5268H121.39L111 28.5635C108.111 28.5635 107.543 27.5375 107.543 25.5404V22.554C107.543 22.0227 106.462 21.1066 105.841 21.015C105.646 20.9783 106.32 20.0989 106.586 20.0989C107.774 20.0989 109.547 20.3737 110.433 20.7218C110.61 20.7951 110.876 20.9051 110.805 21.2898C110.734 21.7479 110.734 22.4074 110.734 22.9754V25.577C110.734 26.658 111.107 26.8046 112.029 26.8046L120.751 26.7679C122.595 26.7679 123.198 25.7053 123.428 25.7053C123.907 25.7053 125.254 27.4642 125.254 28.2703M128.552 16.9293C128.552 17.1125 128.41 17.2041 128.18 17.2041H117.418V19.2378C117.418 21.3081 116.674 23.1036 116.16 23.9098C115.894 24.2213 115.309 24.3678 114.936 24.2579C114.635 23.3052 114.192 22.041 114.192 19.7325V17.2041H106.958C105.735 17.2041 104.919 17.5522 104.547 17.9003C103.59 17.6255 101.657 16.0682 101.657 15.7201C101.657 15.5735 101.835 15.1888 101.923 15.2254C102.508 15.4453 104.583 15.4636 106.55 15.4636L123.198 15.4269C125.308 15.4269 126.017 14.1994 126.283 14.1994C126.655 14.1994 128.552 16.0682 128.552 16.911M81.1273 8.04336C81.1273 10.2969 82.5456 11.7993 84.6908 11.7993C86.836 11.7993 88.4671 10.2969 88.4671 8.04336C88.4671 5.78981 86.9424 4.28745 84.7263 4.28745C82.5102 4.28745 81.1273 5.80814 81.1273 8.04336ZM77.9007 8.15329C77.9007 5.00199 80.3473 2.89502 84.1235 2.67516C84.159 2.56523 84.1944 2.47362 84.1944 2.36369C84.1944 2.05223 84.1235 1.70412 83.6803 1.37433C83.6803 0.678112 85.9496 1.37433 85.9496 1.75908C85.9496 1.90565 85.7723 2.32705 85.6836 2.67516C89.2826 2.94998 91.6583 5.05695 91.6583 8.15329C91.6583 11.4145 88.9103 13.5581 84.7972 13.5581C80.6841 13.5581 77.9007 11.4145 77.9007 8.15329ZM98.2179 17.7354C98.2179 17.882 98.0761 17.9736 97.8456 17.9736H90.4704V19.6592C90.4704 24.4045 89.6549 28.0871 89.2117 29.1681C88.9457 29.4795 88.3252 29.6261 87.9884 29.5528C87.7225 28.6734 87.2438 25.9435 87.2438 21.6929V17.9736L82.0492 18.0103V19.0729C82.0492 23.7815 81.2337 27.4642 80.8259 28.5451C80.56 28.8566 79.9395 29.0032 79.5672 28.9299C79.3367 28.0505 78.858 25.3205 78.858 21.1066V18.0103H76.6242C75.4009 18.0103 74.5854 18.3584 74.2131 18.7065C73.2557 18.4317 71.3233 16.8743 71.3233 16.4896C71.3233 16.3797 71.5006 15.9949 71.5892 16.0315C72.1743 16.2331 74.2485 16.2697 76.2164 16.2697L92.8638 16.1964C94.9735 16.1964 95.6827 14.9689 95.9486 14.9689C96.3209 14.9689 98.2179 16.856 98.2179 17.6988M51.0592 6.6326C51.0592 8.55636 52.4598 9.93048 54.5518 9.93048C56.6438 9.93048 58.0444 8.55636 58.0444 6.6326C58.0444 4.70885 56.6438 3.40802 54.5518 3.40802C52.4598 3.40802 51.0592 4.74549 51.0592 6.6326ZM47.8326 6.77918C47.8326 4.01263 50.1728 1.99726 53.8072 1.75908C53.8426 1.57587 53.9136 1.44762 53.9136 1.2644C53.9136 0.952935 53.8072 0.623148 53.3994 0.311682C53.3994 -0.421178 55.6687 0.311682 55.6687 0.659791C55.6687 0.879649 55.4382 1.35601 55.2964 1.74076C58.8954 1.97894 61.3065 3.99431 61.3065 6.76086C61.3065 9.67398 58.5585 11.7443 54.5518 11.7443C50.5451 11.7443 47.8326 9.67398 47.8326 6.76086M63.9304 28.8566C63.9304 29.0398 63.7885 29.0948 63.558 29.0948H50.3501C48.0808 29.0948 47.283 28.2886 47.2298 26.4565L47.1589 24.1113C47.1589 23.7632 46.2724 23.3052 45.7051 23.0487C45.6696 22.8655 46.1838 22.2792 46.4497 22.2792C47.088 22.2792 49.5168 22.4257 50.3855 22.7372H58.984L59.0195 19.8974H50.421C49.375 19.8974 48.6835 20.1722 48.3112 20.5386C47.088 20.3554 46.0951 18.7065 46.0774 18.4683C46.042 18.2851 46.2192 17.937 46.3788 17.9736C47.4603 18.1752 48.8254 18.1752 50.7933 18.1752H57.8316C58.789 18.1752 59.2854 18.0652 59.6577 17.6805C60.0655 17.6438 62.778 17.9553 62.6893 18.4133L61.8383 22.554C62.4766 23.0487 62.8843 23.8915 62.8843 24.093C62.8843 24.2762 62.778 24.4045 62.6184 24.4045C62.317 24.4045 60.3846 24.3678 58.8067 24.3678H50.3855V25.9068C50.3855 27.0977 50.7224 27.3359 52.247 27.3359H59.6931C61.8029 27.3359 62.1043 26.4198 62.3347 26.4198C62.8134 26.4198 63.9304 28.0688 63.9304 28.8016M67.813 15.2804C67.813 15.4269 67.6711 15.5185 67.4407 15.5185H62.6539L46.237 15.5552C45.0491 15.5552 44.2336 15.9033 43.8613 16.2148C42.8685 15.9399 41.1133 14.4192 40.9715 14.0345C40.936 13.9246 41.1488 13.5398 41.2374 13.5765C41.8225 13.7963 43.879 13.833 45.8647 13.833L62.4766 13.7597C64.5509 13.7597 65.26 12.5321 65.5614 12.5321C65.9337 12.5321 67.7952 14.4192 67.7952 15.262M30.2987 15.2071C30.2987 15.5185 30.0683 15.5185 29.2527 15.775C28.9159 15.885 28.7386 16.4346 28.4727 17.314C27.8876 19.1645 26.0261 22.1509 22.1612 22.1509C18.2963 22.1509 16.2575 18.7431 16.1157 18.5599C15.9207 18.2851 15.6015 18.0286 15.3356 18.0286C15.1583 18.0286 15.0342 18.1019 14.9278 18.1752C13.5273 19.1645 12.0026 20.2821 12.0026 22.8471C12.0026 24.5327 13.3677 26.4565 15.6724 26.4565C17.6403 26.4565 18.9346 24.5327 19.3423 23.1953C19.4841 22.7372 19.4487 22.554 19.6792 22.554C19.9806 22.554 20.0869 23.2502 20.4947 23.2502C20.8315 23.2502 20.7252 23.067 21.1684 23.067C21.5761 23.067 21.6825 23.635 22.0194 23.635C22.498 23.635 23.1363 23.2136 23.4554 23.2136C23.5618 23.2136 23.7213 23.2136 23.7213 23.3235C23.7213 23.5067 23.42 23.6716 23.1363 23.9281C22.5512 24.4594 22.1257 24.7709 21.6825 25.5404C20.1224 28.2703 18.314 28.765 17.3921 29.0581C17.0553 29.1681 16.7184 29.333 16.5766 29.6628C16.0625 30.8536 15.7611 31.0002 15.6193 31.0002C15.442 31.0002 15.3888 30.7987 15.3533 30.3406C15.3179 29.846 15.0519 29.278 14.13 29.1131C11.7898 28.6551 8.90003 26.2 8.90003 22.3341C8.90003 18.8531 11.453 17.4973 12.7472 16.1598C12.9245 15.9766 13.0486 15.775 13.0486 15.4636V15.3536C13.0486 15.1888 13.0131 14.9689 12.8004 14.6941C11.5062 13.0085 10.5311 11.8909 8.7582 11.8909C6.82575 11.8909 5.12379 13.5398 5.12379 15.9216C5.12379 18.4866 6.34708 19.3661 7.57037 19.6775C7.97813 19.7875 8.11996 19.8241 8.11996 19.9523C8.11996 20.2272 7.85403 20.1722 7.85403 20.5936C7.85403 20.9051 8.0845 20.8684 8.0845 21.3631C8.0845 21.7112 7.78311 21.8211 7.78311 22.3525C7.78311 22.7739 7.97813 22.9204 7.97813 23.1586C7.97813 23.4701 8.15542 23.4334 8.15542 24.1113C8.15542 24.2945 8.22633 24.4228 8.0845 24.4228C7.94267 24.4228 7.78311 24.1846 7.57037 23.8548C7.09169 23.122 6.57755 22.6639 6.20525 22.3708C3.24453 20.1539 3.13816 19.1828 2.39354 17.6622C2.21626 17.314 2.16307 16.7094 1.80849 16.5445C0.727033 15.9766 -0.0175781 15.8117 -0.0175781 14.8956C-0.0175781 14.4742 0.461101 14.8956 1.20571 14.8956C1.61348 14.8956 2.09215 14.9689 2.32263 14.0895C2.83677 12.2207 4.96423 9.23426 8.70501 9.23426C12.6763 9.23426 14.6442 12.6421 14.786 12.8253C15.0519 13.21 15.3001 13.3566 15.5661 13.3566C15.7434 13.3566 15.8675 13.3566 16.1689 13.0818C18.6863 10.7733 18.8814 9.74726 18.8814 8.40979C18.8814 6.72421 17.5872 4.76381 15.2824 4.76381C12.9777 4.76381 11.8785 6.65093 11.5771 8.06168C11.4707 8.51972 11.3998 8.7579 11.2048 8.7579C10.9034 8.7579 10.9034 8.3365 10.5665 8.3365C10.0169 8.3365 9.96376 8.57469 9.6801 8.57469C9.30779 8.57469 9.30779 7.87847 8.7582 7.87847C8.61637 7.87847 8.31498 8.06168 8.11996 8.06168C7.60582 8.06168 7.57037 8.17161 7.33989 8.17161C7.07396 8.17161 6.7903 8.02504 6.7903 7.8235C6.7903 7.62197 6.96759 7.47539 7.49945 7.20057C8.2086 6.81582 8.86457 6.541 9.20142 5.75317C10.2474 3.33473 12.5699 2.56523 13.4563 2.21712C13.7932 2.07055 13.9705 1.9423 14.13 1.61251C14.8392 0.275039 15.1583 0.128467 15.3533 0.128467C15.5483 0.128467 15.5306 0.476576 15.6193 0.897971C15.7256 1.39265 15.7256 1.7774 16.5057 1.97894C18.7218 2.58355 21.9662 4.69052 21.9662 8.53804C21.9662 12.3856 18.2963 14.8223 18.119 14.9689C17.7113 15.2804 17.5694 15.5369 17.5694 15.775C17.5694 15.9583 17.6758 16.1598 17.7822 16.3796C18.6686 18.2118 20.1933 19.4027 21.9662 19.4027C24.0759 19.4027 25.707 17.369 25.707 15.262C25.707 13.1551 24.3419 11.8909 23.154 11.5061C22.7108 11.3596 22.5158 11.3596 22.5158 11.1214C22.5158 10.8466 22.8172 10.9382 22.8172 10.5168C22.8172 10.2053 22.6753 10.2786 22.6753 9.7839C22.6753 9.4358 23.0831 9.32587 23.0831 8.79454C23.0831 8.37315 22.8881 8.22658 22.8881 7.9884C22.8881 7.67693 22.7817 7.71357 22.7817 7.03568C22.7817 6.85246 22.7108 6.72421 22.8526 6.72421C23.0299 6.72421 23.1895 6.96239 23.4022 7.29218C23.8809 8.02504 24.2532 8.59301 24.6255 8.83119C27.3026 10.5901 27.8876 11.7077 28.5081 13.2833C28.65 13.6314 28.7741 14.236 29.1818 14.4742C29.5187 14.6941 30.2633 14.9323 30.2633 15.2071" fill="white"/>
</g>
<defs>
<clipPath id="clip0_32_879">
<rect width="190" height="31" fill="white"/>
</clipPath>
</defs>
</svg>
