<svg width="144" height="43" viewBox="0 0 144 43" fill="none" xmlns="http://www.w3.org/2000/svg">
<path d="M16.6055 20.3438H2.94141V17.6719H16.6055V20.3438ZM20.2266 28.0078H0.574219V25.3242H20.2266V28.0078ZM17.9766 19.4297C17.9766 20.6797 17.9414 21.7852 17.8711 22.7461C17.8008 23.707 17.6211 24.7969 17.332 26.0156L13.9336 25.9453C14.1289 25.1328 14.2734 24.3633 14.3672 23.6367C14.4688 22.9102 14.5312 22.2617 14.5547 21.6914C14.5859 21.1211 14.6055 20.4336 14.6133 19.6289V19.4297V17.6719H17.9766V19.4297ZM17.8477 38.0273H2.84766V30.082H17.8477V38.0273ZM6.16406 35.3203H14.4961V32.707H6.16406V35.3203ZM40.0781 21.9961H22.1016V19.3125H40.0781V21.9961ZM40.9688 36.1641H21.3164V33.457H40.9688V36.1641ZM32.7422 34.5234H29.4023V30.7617H32.7422V34.5234ZM31.0781 22.7578C32.5781 22.7578 33.8867 22.9258 35.0039 23.2617C36.1211 23.5898 36.9805 24.0742 37.582 24.7148C38.1836 25.3555 38.4844 26.1055 38.4844 26.9648C38.4844 27.8555 38.1836 28.6211 37.582 29.2617C36.9805 29.8945 36.1211 30.3867 35.0039 30.7383C33.8945 31.082 32.5859 31.2578 31.0781 31.2656C29.5547 31.2578 28.2305 31.082 27.1055 30.7383C25.9883 30.3867 25.1289 29.8945 24.5273 29.2617C23.9258 28.6211 23.6289 27.8555 23.6367 26.9648C23.6289 26.0977 23.9258 25.3477 24.5273 24.7148C25.1289 24.0742 25.9883 23.5898 27.1055 23.2617C28.2305 22.9258 29.5547 22.7578 31.0781 22.7578ZM31.0781 25.3711C30.1797 25.3789 29.4375 25.4375 28.8516 25.5469C28.2734 25.6562 27.8359 25.8281 27.5391 26.0625C27.25 26.2969 27.1094 26.5977 27.1172 26.9648C27.1094 27.3477 27.25 27.6562 27.5391 27.8906C27.8359 28.1172 28.2734 28.2891 28.8516 28.4062C29.4375 28.5156 30.1797 28.5703 31.0781 28.5703C31.9609 28.5703 32.6875 28.5156 33.2578 28.4062C33.8359 28.2891 34.2734 28.1172 34.5703 27.8906C34.8672 27.6562 35.0156 27.3477 35.0156 26.9648C35.0156 26.6055 34.8672 26.3086 34.5703 26.0742C34.2734 25.832 33.8359 25.6562 33.2578 25.5469C32.6875 25.4375 31.9609 25.3789 31.0781 25.3711ZM32.7422 20.9883H29.4023V16.9219H32.7422V20.9883ZM61.6875 29.918H42.0352V27.2461H61.6875V29.918ZM53.8125 33.4102H50.4844V28.9336H53.8125V33.4102ZM59.2031 25.7109H44.4492V17.6484H59.2031V25.7109ZM47.7422 23.0977H55.8867V20.25H47.7422V23.0977ZM59.5312 37.9102H44.2617V35.2031H59.5312V37.9102ZM47.6367 36.0938H44.2617V31.6172H47.6367V36.0938ZM71.0273 32.918H67.6406V29.4141H71.0273V32.918ZM80.1445 38.2383H76.7344V16.7227H80.1445V38.2383ZM82.7461 28.125H78.9609V25.3594H82.7461V28.125ZM62.543 32.0625C65.2461 32.0625 67.6445 32.0312 69.7383 31.9688C71.832 31.9062 73.8359 31.7422 75.75 31.4766L75.9727 33.9023C74.5742 34.1758 73.1211 34.3789 71.6133 34.5117C70.1055 34.6367 68.6992 34.7148 67.3945 34.7461C66.0977 34.7773 64.625 34.793 62.9766 34.793L62.543 32.0625ZM75.6445 21.6797H62.9531V19.0547H75.6445V21.6797ZM69.3633 22.4062C70.3867 22.4062 71.3047 22.5781 72.1172 22.9219C72.9297 23.2656 73.5625 23.7461 74.0156 24.3633C74.4766 24.9727 74.707 25.6758 74.707 26.4727C74.707 27.2617 74.4766 27.9648 74.0156 28.582C73.5625 29.1914 72.9297 29.668 72.1172 30.0117C71.3047 30.3477 70.3867 30.5156 69.3633 30.5156C68.3242 30.5156 67.3984 30.3477 66.5859 30.0117C65.7734 29.668 65.1367 29.1914 64.6758 28.582C64.2227 27.9648 64 27.2617 64.0078 26.4727C64 25.6758 64.2227 24.9727 64.6758 24.3633C65.1367 23.7461 65.7734 23.2656 66.5859 22.9219C67.3984 22.5781 68.3242 22.4062 69.3633 22.4062ZM69.3633 24.9492C68.9258 24.957 68.543 25.0156 68.2148 25.125C67.8945 25.2344 67.6445 25.4062 67.4648 25.6406C67.293 25.8672 67.2109 26.1445 67.2188 26.4727C67.2109 26.8008 67.293 27.0781 67.4648 27.3047C67.6445 27.5234 67.8945 27.6914 68.2148 27.8086C68.5352 27.918 68.918 27.9727 69.3633 27.9727C69.7852 27.9727 70.1523 27.918 70.4648 27.8086C70.7852 27.6914 71.0312 27.5234 71.2031 27.3047C71.3828 27.0781 71.4727 26.8008 71.4727 26.4727C71.4727 26.1445 71.3828 25.8672 71.2031 25.6406C71.0312 25.4062 70.7852 25.2344 70.4648 25.125C70.1523 25.0156 69.7852 24.957 69.3633 24.9492ZM71.0273 21.0352H67.6406V16.875H71.0273V21.0352ZM102.387 38.2383H99.1641V16.7227H102.387V38.2383ZM100.23 27.6211H96.7734V24.9023H100.23V27.6211ZM97.6875 37.2891H94.5V17.0156H97.6875V37.2891ZM89.7891 21.8789C89.7891 23.8008 89.6445 25.5508 89.3555 27.1289C89.0742 28.6992 88.5859 30.1016 87.8906 31.3359C87.1953 32.5703 86.2617 33.5391 85.0898 34.2422L83.0156 31.6523C84.0703 31.043 84.9102 30.2422 85.5352 29.25C86.1602 28.25 86.6016 27.1367 86.8594 25.9102C87.1172 24.6836 87.2422 23.3398 87.2344 21.8789V20.0508H89.7891V21.8789ZM90.5273 21.8789C90.5352 23.2227 90.6719 24.4648 90.9375 25.6055C91.2031 26.7383 91.6484 27.7656 92.2734 28.6875C92.9062 29.6094 93.75 30.3438 94.8047 30.8906L92.8711 33.4453C91.668 32.8125 90.6992 31.918 89.9648 30.7617C89.2383 29.6055 88.7188 28.2852 88.4062 26.8008C88.1016 25.3164 87.9492 23.6758 87.9492 21.8789V20.0508H90.5273V21.8789ZM93.5977 21.5391H83.8242V18.8555H93.5977V21.5391ZM121.406 32.2969H118.02V16.7578H121.406V32.2969ZM124.219 25.207H120.422V22.4414H124.219V25.207ZM106.887 26.1328C109.363 26.1328 111.27 26.0898 112.605 26.0039C113.941 25.918 115.223 25.7461 116.449 25.4883L116.812 28.1719C115.547 28.4375 114.207 28.6133 112.793 28.6992C111.387 28.7852 109.418 28.8281 106.887 28.8281H105.047V26.1328H106.887ZM114.785 21.1055H108.41V27.5742H105.047V18.4219H114.785V21.1055ZM122.109 37.9102H107.297V35.2031H122.109V37.9102ZM110.684 36.6094H107.297V30.5977H110.684V36.6094Z" fill="#454B52"/>
<path d="M118 10.0265C118 10.3753 118.051 10.7367 118.191 11.0792C118.807 12.6012 120.376 13.5398 122.372 12.7471C122.848 12.5568 136.046 7.24872 136.046 7.24872C136.046 7.24872 130.848 20.4017 130.651 20.89C129.895 22.7735 130.803 24.4795 132.348 25.0503C132.691 25.1771 133.046 25.2405 133.396 25.2342C134.66 25.2278 135.772 24.4858 136.319 23.0019C136.401 22.7799 142.902 4.96566 143.041 4.54076C143.124 4.28708 143.277 3.69095 143.277 3.27873C143.277 2.39722 142.952 1.56643 142.323 0.938592C141.707 0.317092 140.881 0 140.011 0C139.585 0 139.242 0.0761021 138.721 0.24099C138.409 0.342459 121.654 6.5638 120.224 7.09652C118.794 7.62923 118 8.77077 118.006 10.0265" fill="#ED1C24"/>
</svg>
