<svg width="100" height="100" viewBox="0 0 100 100" fill="none" xmlns="http://www.w3.org/2000/svg">
<path d="M48.523 59.2234C47.6483 64.7615 44.7981 69.2109 40.9991 70.0956C37.6158 70.8857 33.9107 68.7466 32.8209 68.1185C28.955 65.8884 28.4309 63.3724 26.2784 63.5053C24.1059 63.64 23.871 66.2525 20.3901 68.4481C20.2419 68.5427 16.6218 70.7783 13.5204 70.4251C7.84897 69.7789 3.55836 60.4232 3.05411 52.9627C2.55167 45.5531 5.48498 35.5748 14.5018 30.2279C23.074 25.1487 33.1806 26.596 39.3653 30.8888C43.401 33.6906 47.2886 37.8468 50.1587 48.0217C52.7974 57.3774 55.1812 63.1394 59.3164 66.8023C64.7655 71.6285 73.2365 72.2256 79.5965 70.427C84.3516 69.0816 90.2236 67.2465 94.6426 57.5777C99.9399 45.9882 93.4787 31.1455 90.6195 31.0672C87.0789 30.9707 88.5464 37.4044 86.1373 38.4676C82.9509 39.8731 81.9569 36.2539 73.3052 36.3613C65.559 36.4578 65.1252 38.4385 62.5877 38.4676C59.2297 38.5059 60.3412 32.4362 57.6808 31.2183C56.5675 30.7085 53.9179 32.7111 52.1052 38.5696" stroke="#1D1D1D" stroke-width="3" stroke-linecap="round" stroke-linejoin="round"/>
<path d="M31.8526 59.9006C31.8526 61.621 29.4525 63.5016 26.4903 63.5016C23.5281 63.5016 21.1279 61.6191 21.1279 59.9006C21.1279 58.182 23.5281 56.7856 26.4903 56.7856C29.4525 56.7856 31.8526 58.1802 31.8526 59.9006Z" fill="#1D1D1D"/>
<path d="M76.5947 56.347C76.5947 57.5158 75.4163 58.923 73.9361 58.923C72.4559 58.923 71.2559 57.4885 71.2559 56.3179C71.2559 55.1473 72.4559 54.501 73.9361 54.501C75.4163 54.501 76.5947 55.1764 76.5947 56.3452V56.347Z" fill="#DD7794"/>
<path d="M14.1077 42.9705C15.1717 37.528 13.9898 32.7104 11.468 32.2102C8.94614 31.71 6.03927 35.7165 4.97531 41.1591C3.91134 46.6016 5.09318 51.4192 7.61502 51.9194C10.1369 52.4196 13.0437 48.4131 14.1077 42.9705Z" fill="#1D1D1D"/>
<path d="M44.3654 51.575C46.8873 51.0747 48.0691 46.2572 47.0052 40.8146C45.9412 35.3721 43.0343 31.3655 40.5125 31.8658C37.9906 32.366 36.8088 37.1835 37.8728 42.6261C38.9367 48.0686 41.8436 52.0752 44.3654 51.575Z" fill="#1D1D1D"/>
<path d="M18.65 53.0537C19.729 53.0537 20.6037 52.1726 20.6037 51.0857C20.6037 49.9988 19.729 49.1177 18.65 49.1177C17.571 49.1177 16.6963 49.9988 16.6963 51.0857C16.6963 52.1726 17.571 53.0537 18.65 53.0537Z" fill="#1D1D1D"/>
<path d="M34.3483 53.0537C35.4273 53.0537 36.302 52.1726 36.302 51.0857C36.302 49.9988 35.4273 49.1177 34.3483 49.1177C33.2692 49.1177 32.3945 49.9988 32.3945 51.0857C32.3945 52.1726 33.2692 53.0537 34.3483 53.0537Z" fill="#1D1D1D"/>
<path d="M66.4352 51.7172C67.5142 51.7172 68.3889 50.8361 68.3889 49.7492C68.3889 48.6623 67.5142 47.7812 66.4352 47.7812C65.3562 47.7812 64.4814 48.6623 64.4814 49.7492C64.4814 50.8361 65.3562 51.7172 66.4352 51.7172Z" fill="#1D1D1D"/>
<path d="M81.4127 51.9614C82.4917 51.9614 83.3664 51.0803 83.3664 49.9934C83.3664 48.9065 82.4917 48.0254 81.4127 48.0254C80.3337 48.0254 79.459 48.9065 79.459 49.9934C79.459 51.0803 80.3337 51.9614 81.4127 51.9614Z" fill="#1D1D1D"/>
<path d="M22.1963 67.4229L26.5215 64.1797L30.8468 67.0986C30.8468 67.0986 31.6332 72.6121 30.8468 73.9094C30.0604 75.2067 28.8808 76.1797 26.9147 76.1797C24.9487 76.1797 22.9827 75.2067 22.5895 73.9094C22.1963 72.6121 22.1963 67.4229 22.1963 67.4229Z" fill="#DD7794" stroke="#1D1D1D" stroke-width="3"/>
</svg>
