<svg width="24" height="24" viewBox="0 0 24 24" fill="none" xmlns="http://www.w3.org/2000/svg">
<path d="M1 10.0483C1 10.363 1.04509 10.6892 1.16909 10.9983C1.71585 12.3718 3.10812 13.2189 4.87804 12.5035C5.30079 12.3318 17.0082 7.54153 17.0082 7.54153C17.0082 7.54153 12.3974 19.4113 12.2226 19.852C11.5519 21.5517 12.3579 23.0913 13.7276 23.6063C14.032 23.7208 14.3477 23.778 14.6577 23.7723C15.7794 23.7666 16.7658 23.097 17.2506 21.7578C17.3238 21.5575 23.0902 5.48121 23.2142 5.09776C23.2875 4.86883 23.4228 4.33086 23.4228 3.95886C23.4228 3.16334 23.1353 2.41361 22.5772 1.84702C22.0305 1.28616 21.2977 1 20.5255 1C20.1478 1 19.8435 1.06868 19.3812 1.21748C19.105 1.30905 4.2411 6.92343 2.97284 7.40418C1.70459 7.88492 0.999997 8.91508 1.00563 10.0483" fill="#ED1C24"/>
</svg>
