<svg width="72" height="72" viewBox="0 0 72 72" fill="none" xmlns="http://www.w3.org/2000/svg">
<path d="M71.6902 50.1279V51.0987H69.3059C69.1412 51.0987 69.0305 51.1328 68.9737 51.2009C68.9226 51.2634 68.8971 51.3599 68.8971 51.4904V52.6486H71.6221V53.6279H68.8971V54.8201C68.8971 54.9563 68.9226 55.0557 68.9737 55.1181C69.0305 55.1806 69.1412 55.2118 69.3059 55.2118H71.7498V56.1826H68.8801C68.4429 56.1826 68.125 56.0974 67.9263 55.9271C67.7333 55.7568 67.6368 55.4502 67.6368 55.0074V51.3031C67.6368 50.866 67.7333 50.5622 67.9263 50.3919C68.125 50.2159 68.4429 50.1279 68.8801 50.1279H71.6902Z" fill="#5E492A"/>
<path d="M62.7969 51.3031C62.7969 50.866 62.8934 50.5622 63.0864 50.3919C63.2851 50.2159 63.603 50.1279 64.0402 50.1279H66.6971V51.0987H64.4659C64.3013 51.0987 64.1906 51.1328 64.1338 51.2009C64.0827 51.2634 64.0572 51.3599 64.0572 51.4904V52.6486H66.4756V53.6279H64.0572V56.1826H62.7969V51.3031Z" fill="#5E492A"/>
<path d="M61.4334 50.1279V56.1826H60.1646V50.1279H61.4334Z" fill="#5E492A"/>
<path d="M56.5228 54.8201C56.5228 54.9563 56.5483 55.0557 56.5994 55.1181C56.6562 55.1806 56.7669 55.2118 56.9315 55.2118H59.1456V56.1826H56.5057C56.0686 56.1826 55.7507 56.0974 55.552 55.9271C55.359 55.7568 55.2625 55.4502 55.2625 55.0074V50.1279H56.5228V54.8201Z" fill="#5E492A"/>
<path d="M49.6803 50.1279C50.0947 50.1279 50.441 50.1677 50.7192 50.2471C50.9973 50.3266 51.2188 50.443 51.3834 50.5963C51.5537 50.7496 51.6729 50.9426 51.7411 51.1754C51.8092 51.4024 51.8432 51.6664 51.8432 51.9673C51.8432 52.4726 51.7496 52.8643 51.5622 53.1425C51.3806 53.4207 51.0939 53.6108 50.7021 53.713C50.81 53.8152 50.9065 53.9373 50.9917 54.0792C51.0768 54.2211 51.1677 54.3858 51.2642 54.5731L52.0306 56.1826H50.7447L50.1997 54.9733C50.0748 54.7122 49.9357 54.4681 49.7824 54.241C49.6348 54.0082 49.4333 53.8663 49.1778 53.8152H48.5477V56.1826H47.2874V51.3031C47.2874 50.866 47.3839 50.5622 47.5769 50.3919C47.7756 50.2159 48.0935 50.1279 48.5306 50.1279H49.6803ZM49.5696 51.0987H48.9564C48.7918 51.0987 48.6811 51.1328 48.6243 51.2009C48.5732 51.2634 48.5477 51.3599 48.5477 51.4904V52.8444H49.5525C49.9159 52.8444 50.1742 52.782 50.3274 52.6571C50.4807 52.5265 50.5574 52.2966 50.5574 51.9673C50.5574 51.6437 50.4807 51.4195 50.3274 51.2946C50.1798 51.164 49.9272 51.0987 49.5696 51.0987Z" fill="#5E492A"/>
<path d="M46.1807 53.2104C46.1807 53.7327 46.1324 54.1869 46.0359 54.5729C45.9451 54.959 45.7946 55.2797 45.5846 55.5352C45.3745 55.7963 45.0963 55.9894 44.75 56.1143C44.4037 56.2391 43.9808 56.3016 43.4812 56.3016C42.9646 56.3016 42.5331 56.2363 42.1868 56.1057C41.8462 55.9752 41.5709 55.7765 41.3608 55.5096C41.1564 55.2428 41.0117 54.9107 40.9265 54.5133C40.8413 54.1102 40.7988 53.639 40.7988 53.0997C40.7988 52.6171 40.8385 52.1829 40.918 51.7968C40.9975 51.4108 41.1394 51.0872 41.3438 50.826C41.5481 50.5592 41.8235 50.3548 42.1698 50.2129C42.5161 50.071 42.9561 50 43.4897 50C44.0234 50 44.4633 50.071 44.8097 50.2129C45.156 50.3491 45.4313 50.5507 45.6357 50.8175C45.8344 51.09 45.9735 51.4278 46.0529 51.8309C46.1381 52.2283 46.1807 52.6881 46.1807 53.2104ZM43.4897 55.2797C43.9325 55.2797 44.2703 55.1321 44.5031 54.8369C44.7358 54.536 44.8522 53.9939 44.8522 53.2104C44.8522 52.796 44.8238 52.4497 44.7671 52.1715C44.716 51.8933 44.6365 51.6691 44.5286 51.4988C44.4151 51.3284 44.2732 51.2064 44.1028 51.1326C43.9325 51.0588 43.7282 51.0219 43.4897 51.0219C43.2626 51.0219 43.0639 51.0588 42.8936 51.1326C42.7233 51.2007 42.5814 51.3143 42.4678 51.4732C42.3543 51.6378 42.2691 51.8536 42.2124 52.1204C42.1556 52.3815 42.1272 52.708 42.1272 53.0997C42.1272 53.9172 42.2351 54.4849 42.4508 54.8028C42.6665 55.1208 43.0128 55.2797 43.4897 55.2797Z" fill="#5E492A"/>
<path d="M36.0439 51.3031C36.0439 50.866 36.1405 50.5622 36.3335 50.3919C36.5322 50.2159 36.8501 50.1279 37.2872 50.1279H39.9441V51.0987H37.713C37.5484 51.0987 37.4377 51.1328 37.3809 51.2009C37.3298 51.2634 37.3043 51.3599 37.3043 51.4904V52.6486H39.7227V53.6279H37.3043V56.1826H36.0439V51.3031Z" fill="#5E492A"/>
<path d="M32.8956 50.1279V51.1072H31.1669V56.1826H29.881V51.1072H28.1523V50.1279H32.8956Z" fill="#5E492A"/>
<path d="M25.1735 55.2797C25.5596 55.2911 25.8292 55.2088 25.9825 55.0328C26.1358 54.8568 26.2124 54.6581 26.2124 54.4367C26.2067 54.3402 26.184 54.2578 26.1443 54.1897C26.1102 54.1216 26.062 54.0648 25.9995 54.0194C25.9428 53.974 25.8803 53.9371 25.8122 53.9087C25.7441 53.8746 25.6788 53.8434 25.6163 53.815C25.4971 53.7753 25.3921 53.7384 25.3012 53.7043C25.2161 53.6703 25.1281 53.6362 25.0373 53.6021C24.9464 53.5681 24.8471 53.534 24.7392 53.4999C24.6313 53.4602 24.5036 53.4119 24.356 53.3552C23.9132 53.2019 23.5811 53.0117 23.3597 52.7846C23.1439 52.5519 23.0361 52.2056 23.0361 51.7457C23.0361 51.4335 23.0957 51.1695 23.2149 50.9538C23.3341 50.7323 23.4959 50.5507 23.7003 50.4088C23.9047 50.2668 24.146 50.1646 24.4241 50.1022C24.7023 50.0341 25.0004 50 25.3183 50C25.6021 50 25.9115 50.0426 26.2465 50.1277C26.5814 50.2072 26.9192 50.3236 27.2598 50.4769L26.9703 51.4732C26.5786 51.3256 26.2635 51.2149 26.0251 51.1411C25.7866 51.0616 25.551 51.0219 25.3183 51.0219C24.9776 51.0219 24.7307 51.0928 24.5774 51.2348C24.4241 51.3767 24.3475 51.5499 24.3475 51.7542C24.3475 51.9075 24.3957 52.0296 24.4923 52.1204C24.5944 52.2056 24.7392 52.2822 24.9266 52.3503C25.0571 52.4014 25.1735 52.4468 25.2757 52.4866C25.3779 52.5206 25.4744 52.5547 25.5652 52.5888C25.6561 52.6228 25.7469 52.6569 25.8377 52.691C25.9286 52.725 26.0308 52.7591 26.1443 52.7931C26.3373 52.8613 26.519 52.9379 26.6893 53.0231C26.8596 53.1082 27.0072 53.2132 27.1321 53.3381C27.2627 53.463 27.3649 53.6135 27.4387 53.7895C27.5125 53.9655 27.5494 54.1784 27.5494 54.4282C27.5494 55.0129 27.3564 55.4727 26.9703 55.8077C26.5899 56.1426 25.991 56.3101 25.1735 56.3101C24.8215 56.3101 24.4667 56.259 24.109 56.1568C23.7514 56.0546 23.3881 55.9099 23.019 55.7225L23.4278 54.7092C23.5868 54.7886 23.7372 54.8624 23.8791 54.9306C24.0267 54.993 24.1687 55.0498 24.3049 55.1009C24.4412 55.152 24.5774 55.1946 24.7137 55.2286C24.8556 55.2627 25.0089 55.2797 25.1735 55.2797Z" fill="#5E492A"/>
<path d="M21.9767 50.1279V51.0987H19.5923C19.4277 51.0987 19.317 51.1328 19.2602 51.2009C19.2091 51.2634 19.1835 51.3599 19.1835 51.4904V52.6486H21.9086V53.6279H19.1835V54.8201C19.1835 54.9563 19.2091 55.0557 19.2602 55.1181C19.317 55.1806 19.4277 55.2118 19.5923 55.2118H22.0363V56.1826H19.1665C18.7294 56.1826 18.4115 56.0974 18.2128 55.9271C18.0197 55.7568 17.9232 55.4502 17.9232 55.0074V51.3031C17.9232 50.866 18.0197 50.5622 18.2128 50.3919C18.4115 50.2159 18.7294 50.1279 19.1665 50.1279H21.9767Z" fill="#5E492A"/>
<path d="M14.6363 50.1279C15.0507 50.1279 15.397 50.1677 15.6752 50.2471C15.9533 50.3266 16.1747 50.443 16.3394 50.5963C16.5097 50.7496 16.6289 50.9426 16.697 51.1754C16.7652 51.4024 16.7992 51.6664 16.7992 51.9673C16.7992 52.4726 16.7056 52.8643 16.5182 53.1425C16.3365 53.4207 16.0499 53.6108 15.6581 53.713C15.766 53.8152 15.8625 53.9373 15.9477 54.0792C16.0328 54.2211 16.1237 54.3858 16.2202 54.5731L16.9866 56.1826H15.7007L15.1557 54.9733C15.0308 54.7122 14.8917 54.4681 14.7384 54.241C14.5908 54.0082 14.3893 53.8663 14.1338 53.8152H13.5037V56.1826H12.2433V51.3031C12.2433 50.866 12.3399 50.5622 12.5329 50.3919C12.7316 50.2159 13.0495 50.1279 13.4866 50.1279H14.6363ZM14.5255 51.0987H13.9124C13.7478 51.0987 13.6371 51.1328 13.5803 51.2009C13.5292 51.2634 13.5037 51.3599 13.5037 51.4904V52.8444H14.5085C14.8719 52.8444 15.1302 52.782 15.2834 52.6571C15.4367 52.5265 15.5134 52.2966 15.5134 51.9673C15.5134 51.6437 15.4367 51.4195 15.2834 51.2946C15.1358 51.164 14.8832 51.0987 14.5255 51.0987Z" fill="#5E492A"/>
<path d="M11.1367 53.2104C11.1367 53.7327 11.0884 54.1869 10.9919 54.5729C10.9011 54.959 10.7506 55.2797 10.5406 55.5352C10.3305 55.7963 10.0523 55.9894 9.70603 56.1143C9.35973 56.2391 8.93678 56.3016 8.4372 56.3016C7.92058 56.3016 7.48912 56.2363 7.14282 56.1057C6.80219 55.9752 6.52685 55.7765 6.3168 55.5096C6.11242 55.2428 5.96765 54.9107 5.8825 54.5133C5.79734 54.1102 5.75476 53.639 5.75476 53.0997C5.75476 52.6171 5.7945 52.1829 5.87398 51.7968C5.95346 51.4108 6.09539 51.0872 6.29976 50.826C6.50414 50.5592 6.77948 50.3548 7.12578 50.2129C7.47209 50.071 7.91206 50 8.44571 50C8.97936 50 9.41934 50.071 9.76564 50.2129C10.1119 50.3491 10.3873 50.5507 10.5917 50.8175C10.7904 51.09 10.9295 51.4278 11.0089 51.8309C11.0941 52.2283 11.1367 52.6881 11.1367 53.2104ZM8.44571 55.2797C8.88853 55.2797 9.22632 55.1321 9.45908 54.8369C9.69184 54.536 9.80822 53.9939 9.80822 53.2104C9.80822 52.796 9.77984 52.4497 9.72306 52.1715C9.67197 51.8933 9.59249 51.6691 9.48463 51.4988C9.37108 51.3284 9.22916 51.2064 9.05884 51.1326C8.88853 51.0588 8.68415 51.0219 8.44571 51.0219C8.21863 51.0219 8.01993 51.0588 7.84962 51.1326C7.6793 51.2007 7.53737 51.3143 7.42383 51.4732C7.31029 51.6378 7.22513 51.8536 7.16836 52.1204C7.11159 52.3815 7.08321 52.708 7.08321 53.0997C7.08321 53.9172 7.19107 54.4849 7.4068 54.8028C7.62253 55.1208 7.96884 55.2797 8.44571 55.2797Z" fill="#5E492A"/>
<path d="M1 51.3031C1 50.866 1.09651 50.5622 1.28953 50.3919C1.48823 50.2159 1.80615 50.1279 2.24329 50.1279H4.90018V51.0987H2.66907C2.50444 51.0987 2.39373 51.1328 2.33696 51.2009C2.28587 51.2634 2.26032 51.3599 2.26032 51.4904V52.6486H4.67877V53.6279H2.26032V56.1826H1V51.3031Z" fill="#5E492A"/>
<path fill-rule="evenodd" clip-rule="evenodd" d="M60.0167 10.0038C58.9313 9.92031 56.1596 11.181 53.7551 16.8915C52.7478 19.284 51.6759 22.7272 50.6906 26.2984C51.1628 26.7664 51.5181 27.2027 51.7515 27.536C52.6281 28.7883 55.0075 33.2966 54.757 36.8031C54.5285 40.0024 52.7533 42.4385 51.3758 43.4403C50.895 43.7899 50.3517 44.1145 49.7652 44.4063C50.2162 44.6519 50.7488 44.8386 51.3758 44.9431C54.9824 45.5442 61.6447 46.1954 65.652 45.9449C68.5323 45.6945 71.2624 44.2418 71.6631 42.9394C72.0243 41.7656 71.5649 39.7238 71.2568 38.3542C71.223 38.2041 71.191 38.0621 71.1622 37.9302L66.6539 18.7699C65.819 15.8479 63.3227 10.0038 60.0167 10.0038Z" fill="#698137"/>
<path fill-rule="evenodd" clip-rule="evenodd" d="M20.0681 14.8878C18.5654 15.8896 17.9392 21.6502 17.814 24.4053L17.8081 24.5271C18.325 25.3528 18.7086 26.1646 18.9411 26.7847L23.1989 39.433C23.4076 40.2261 23.6998 42.1379 23.1989 43.4403C23.0024 43.9512 22.4236 44.3758 21.5204 44.7218C21.6175 44.7532 21.7178 44.7852 21.8214 44.8179C24.2007 45.5693 27.582 45.8197 31.0884 45.6945C33.4733 45.6093 34.5837 44.1917 35.3259 42.4661C34.8934 42.0885 34.4825 41.6999 34.094 41.3114C32.2907 39.5081 31.9233 36.1352 31.9651 34.6742C31.8816 33.9228 32.1905 31.5685 34.094 28.1622C34.7919 26.9133 35.8871 25.9236 37.0994 25.1648L37.0995 25.0315C36.9325 23.2782 36.4733 19.1957 35.9724 16.8915C35.4715 14.5872 34.0105 13.5937 33.3426 13.385C32.466 13.0093 29.8612 12.3832 26.4549 12.8841C22.1971 13.5102 21.9466 13.6355 20.0681 14.8878Z" fill="#A5B548"/>
<path fill-rule="evenodd" clip-rule="evenodd" d="M42.9853 45.9449C39.9796 45.8413 37.4028 44.2794 35.3259 42.4661C35.6063 41.8142 35.8341 41.1184 36.0582 40.4339C36.1131 40.2663 36.1677 40.0993 36.2229 39.9339C36.9166 37.8526 37.0957 29.3086 37.0994 25.1648C39.1935 23.8541 41.637 23.2323 42.9853 23.153C46.5916 23.0581 49.2131 24.8337 50.6906 26.2984C49.3242 31.251 48.1242 36.4497 47.4936 39.433C47.3212 40.7435 47.6217 43.2392 49.7652 44.4063C47.7541 45.4068 45.2346 46.0225 42.9853 45.9449Z" fill="#6DA13C"/>
<path fill-rule="evenodd" clip-rule="evenodd" d="M12.5543 20.7736C11.7612 20.6484 9.89942 20.8237 8.79739 22.5268C7.69536 24.2299 5.66664 28.4127 4.91526 30.5416L1.15833 40.8105C0.949612 41.5201 0.782638 43.1398 1.78448 43.9413C3.03679 44.9431 5.04049 46.0702 11.5525 45.9449C16.0208 45.859 19.5458 45.4783 21.5204 44.7218C19.3877 44.0331 18.794 43.6581 18.3149 42.9394C17.814 42.188 17.5635 38.932 17.4383 36.8031C17.3393 35.1199 17.6398 27.9978 17.8081 24.5271C16.6546 22.6846 14.8373 20.7736 12.5543 20.7736Z" fill="#446A37"/>
<path d="M23.1989 43.4403C23.0024 43.9512 22.4236 44.3758 21.5204 44.7218C19.3877 44.0331 18.794 43.6581 18.3149 42.9394C17.814 42.188 17.5635 38.932 17.4383 36.8031C17.3393 35.1199 17.6398 27.9978 17.8081 24.5271C18.325 25.3528 18.7086 26.1646 18.9411 26.7847L23.1989 39.433C23.4076 40.2261 23.6998 42.1379 23.1989 43.4403Z" fill="#38572E"/>
<path d="M37.0994 25.1648C37.0957 29.3086 36.9166 37.8526 36.2229 39.9339C36.1677 40.0993 36.1131 40.2663 36.0582 40.4339C35.8341 41.1184 35.6063 41.8142 35.3259 42.4661C34.8934 42.0885 34.4825 41.6999 34.094 41.3114C32.2907 39.5081 31.9233 36.1352 31.9651 34.6742C31.8816 33.9228 32.1905 31.5685 34.094 28.1622C34.7919 26.9133 35.8871 25.9236 37.0994 25.1648Z" fill="#538435"/>
<path fill-rule="evenodd" clip-rule="evenodd" d="M49.7652 44.4063C47.6217 43.2392 47.3212 40.7435 47.4936 39.433C48.1242 36.4497 49.3242 31.251 50.6906 26.2984C51.1628 26.7664 51.5181 27.2027 51.7515 27.536C52.6281 28.7883 55.0075 33.2966 54.757 36.8031C54.5285 40.0024 52.7533 42.4385 51.3758 43.4403C50.895 43.7899 50.3517 44.1145 49.7652 44.4063Z" fill="#446A37"/>
</svg>
