<svg width="152" height="36" viewBox="0 0 152 36" fill="none" xmlns="http://www.w3.org/2000/svg">
<path d="M149.488 17.1414V19.5083H147.459V20.5001C147.459 20.8007 147.429 21.1087 147.369 21.4243C147.324 21.7399 147.241 22.0555 147.121 22.3711H149.443V24.6477H135.219V22.3711H137.541C137.405 22.0705 137.323 21.7624 137.293 21.4468C137.263 21.1313 137.248 20.7931 137.248 20.4325V19.5083H135.174V17.1414H140.651V15.5635H133.37V13.1065H151.404V15.5635H143.897V17.1414H149.488ZM143.672 5.53256C143.672 5.75797 143.657 5.97588 143.627 6.18626C143.597 6.38162 143.559 6.56947 143.514 6.7498C144.07 6.76483 144.581 6.83997 145.047 6.97521C145.528 7.09544 145.941 7.26825 146.287 7.49367C146.798 7.85433 147.399 8.29014 148.09 8.80108C148.781 9.29699 149.473 9.7929 150.164 10.2888L148.518 12.4753C147.782 11.9193 147.061 11.3858 146.354 10.8749C145.648 10.364 145.047 9.94318 144.551 9.61257C144.19 9.38715 143.845 9.21434 143.514 9.09411C143.183 8.95887 142.815 8.8687 142.41 8.82362C141.673 9.72528 140.681 10.4767 139.434 11.0778C138.202 11.6638 136.842 12.0696 135.354 12.295L134.836 9.65765C135.918 9.46229 136.812 9.21434 137.518 8.91378C138.239 8.5982 138.803 8.26008 139.209 7.89942C139.629 7.53875 139.922 7.16306 140.088 6.77234C140.268 6.36659 140.358 5.96085 140.358 5.5551C140.358 5.41985 140.336 5.20947 140.291 4.92394C140.246 4.63841 140.185 4.42803 140.11 4.29278L143.244 3.52637C143.409 3.82692 143.522 4.16504 143.582 4.54073C143.642 4.9014 143.672 5.23201 143.672 5.53256ZM144.235 19.5083H140.471V20.4099C140.471 20.6804 140.479 20.981 140.494 21.3116C140.524 21.6572 140.576 22.0104 140.651 22.3711H144.078C144.123 22.1006 144.16 21.8225 144.19 21.537C144.22 21.2515 144.235 20.9509 144.235 20.6354V19.5083Z" fill="#F5F5F0"/>
<path d="M126.33 10.4694C126.33 12.2276 125.796 13.5726 124.729 14.5043C123.677 15.436 122.295 15.9019 120.582 15.9019C118.853 15.9019 117.456 15.436 116.389 14.5043C115.337 13.5726 114.811 12.2276 114.811 10.4694C114.811 8.74118 115.344 7.41123 116.411 6.47952C117.478 5.53278 118.868 5.0594 120.582 5.0594C122.295 5.0594 123.677 5.53278 124.729 6.47952C125.796 7.41123 126.33 8.74118 126.33 10.4694ZM131.379 23.1602H128.11V19.531C127.434 19.9368 126.615 20.2373 125.653 20.4327C124.692 20.6281 123.407 20.7257 121.799 20.7257H114.27V18.2462H121.731C123.144 18.2462 124.399 18.126 125.496 17.8855C126.593 17.6451 127.464 17.2844 128.11 16.8035V4.96924H131.379V23.1602ZM123.151 10.4694C123.151 9.59776 122.911 8.90648 122.43 8.39554C121.949 7.86958 121.333 7.60659 120.582 7.60659C119.815 7.60659 119.191 7.86958 118.711 8.39554C118.23 8.90648 117.989 9.59776 117.989 10.4694C117.989 11.371 118.23 12.0773 118.711 12.5883C119.191 13.0842 119.815 13.3321 120.582 13.3321C121.333 13.3321 121.949 13.0842 122.43 12.5883C122.911 12.0773 123.151 11.371 123.151 10.4694Z" fill="#F5F5F0"/>
<path d="M111.348 20.2747C111.348 21.0111 111.191 21.6723 110.875 22.2584C110.574 22.8595 110.161 23.3629 109.635 23.7687C109.124 24.1894 108.523 24.505 107.832 24.7154C107.141 24.9408 106.412 25.0535 105.645 25.0535C104.864 25.0535 104.12 24.9408 103.414 24.7154C102.722 24.505 102.121 24.197 101.61 23.7912C101.084 23.3704 100.671 22.867 100.371 22.2809C100.07 21.6949 99.9198 21.0261 99.9198 20.2747C99.9198 19.5384 100.07 18.8772 100.371 18.2911C100.671 17.69 101.084 17.179 101.61 16.7583C102.121 16.3375 102.722 16.0144 103.414 15.789C104.12 15.5636 104.864 15.4509 105.645 15.4509C106.096 15.4509 106.532 15.4959 106.953 15.5861C107.373 15.6612 107.772 15.7664 108.147 15.9017C108.373 15.6913 108.523 15.4433 108.598 15.1578C108.688 14.8573 108.733 14.5717 108.733 14.3012V13.1291H105.645V13.3094C105.33 13.5649 104.954 13.7903 104.518 13.9857C104.082 14.166 103.624 14.3238 103.143 14.459C102.647 14.5943 102.151 14.6995 101.655 14.7746C101.175 14.8347 100.724 14.8648 100.303 14.8648H98.0939C97.072 14.8648 96.3958 14.707 96.0652 14.3914C95.7496 14.0608 95.5918 13.4897 95.5918 12.6783V5.05923H105.645V6.27647H108.733V4.74365H112.002V14.1885C112.002 15 111.837 15.6537 111.506 16.1496C111.191 16.6305 110.77 17.0137 110.244 17.2993C110.589 17.705 110.86 18.1558 111.055 18.6518C111.251 19.1477 111.348 19.6887 111.348 20.2747ZM108.08 20.2747C108.08 19.5684 107.854 19.0049 107.404 18.5841C106.953 18.1634 106.367 17.953 105.645 17.953C104.924 17.953 104.33 18.1634 103.865 18.5841C103.414 19.0049 103.188 19.5684 103.188 20.2747C103.188 20.9961 103.414 21.5596 103.865 21.9653C104.33 22.3711 104.924 22.574 105.645 22.574C106.367 22.574 106.953 22.3711 107.404 21.9653C107.854 21.5596 108.08 20.9961 108.08 20.2747ZM102.422 7.56134H98.7927V11.7766C98.7927 12.002 98.8378 12.1598 98.9279 12.25C99.0331 12.3251 99.1984 12.3627 99.4239 12.3627H100.303C100.694 12.3627 101.062 12.3176 101.408 12.2274C101.768 12.1222 102.106 11.9795 102.422 11.7991V7.56134ZM105.645 8.80112V10.6044H108.733V8.80112H105.645Z" fill="#F5F5F0"/>
<path d="M91.7452 20.2746C91.7452 21.011 91.5874 21.6722 91.2718 22.2583C90.9712 22.8594 90.558 23.3628 90.032 23.7686C89.5211 24.1893 88.92 24.5049 88.2287 24.7153C87.5374 24.9407 86.8086 25.0534 86.0422 25.0534C85.2607 25.0534 84.5169 24.9407 83.8106 24.7153C83.1193 24.5049 82.5182 24.1969 82.0072 23.7911C81.4813 23.3703 81.068 22.8669 80.7675 22.2808C80.4669 21.6948 80.3166 21.026 80.3166 20.2746C80.3166 19.5383 80.4669 18.8771 80.7675 18.291C81.068 17.6899 81.4813 17.1789 82.0072 16.7582C82.5182 16.3524 83.1193 16.0368 83.8106 15.8114C84.5169 15.586 85.2607 15.4733 86.0422 15.4733C86.8236 15.4733 87.56 15.586 88.2512 15.8114C88.9425 16.0368 89.5436 16.3524 90.0546 16.7582C90.5805 17.1789 90.9938 17.6899 91.2943 18.291C91.5949 18.8771 91.7452 19.5383 91.7452 20.2746ZM92.9624 4.74356V15.8791H89.9644V11.3933H88.3414V14.6393H85.3434V4.74356H88.3414V8.84611H89.9644V4.74356H92.9624ZM77.9047 5.32964L80.79 4.36035C81.0605 4.90135 81.2333 5.39726 81.3085 5.84809C81.3986 6.29892 81.4362 6.78732 81.4212 7.31329C81.4061 7.61384 81.3761 7.90688 81.331 8.19241C81.2859 8.4629 81.2333 8.7334 81.1732 9.0039C81.4888 9.06401 81.7818 9.17672 82.0523 9.34202C82.3379 9.4923 82.6084 9.73274 82.8638 10.0633C83.2696 10.6194 83.6753 11.1904 84.0811 11.7765C84.4868 12.3626 84.8775 12.9487 85.2532 13.5347L83.1343 15.1577C82.6835 14.4665 82.2702 13.8503 81.8945 13.3093C81.5188 12.7533 81.1882 12.2874 80.9027 11.9118C80.8426 11.8516 80.7825 11.7915 80.7224 11.7314C80.6773 11.6713 80.6322 11.6112 80.5871 11.5511C80.527 11.506 80.4744 11.4609 80.4293 11.4158C80.3843 11.3708 80.3392 11.3257 80.2941 11.2806C79.7681 12.2724 79.1219 13.159 78.3555 13.9405C77.5891 14.7219 76.8077 15.3606 76.0112 15.8565L74.4108 13.6474C75.7182 12.7458 76.6799 11.8066 77.2961 10.8298C77.9272 9.85296 78.2654 8.68832 78.3104 7.33583C78.3104 6.99019 78.2804 6.63704 78.2203 6.27638C78.1602 5.91571 78.055 5.60013 77.9047 5.32964ZM88.4767 20.2746C88.4767 19.5683 88.2512 19.0123 87.8004 18.6066C87.3496 18.1858 86.7635 17.9754 86.0422 17.9754C85.3208 17.9754 84.7273 18.1858 84.2614 18.6066C83.8106 19.0123 83.5852 19.5683 83.5852 20.2746C83.5852 20.996 83.8106 21.5595 84.2614 21.9653C84.7273 22.371 85.3208 22.5739 86.0422 22.5739C86.7635 22.5739 87.3496 22.371 87.8004 21.9653C88.2512 21.5595 88.4767 20.996 88.4767 20.2746Z" fill="#F5F5F0"/>
<path d="M148.774 29.2607V30.2315H146.39C146.225 30.2315 146.114 30.2656 146.057 30.3337C146.006 30.3962 145.981 30.4927 145.981 30.6232V31.7814H148.706V32.7607H145.981V33.9529C145.981 34.0891 146.006 34.1885 146.057 34.2509C146.114 34.3134 146.225 34.3446 146.39 34.3446H148.834V35.3154H145.964C145.527 35.3154 145.209 35.2302 145.01 35.0599C144.817 34.8896 144.72 34.583 144.72 34.1402V30.4359C144.72 29.9988 144.817 29.695 145.01 29.5247C145.209 29.3487 145.527 29.2607 145.964 29.2607H148.774Z" fill="#F5F5F0"/>
<path d="M139.881 30.4359C139.881 29.9988 139.977 29.695 140.17 29.5247C140.369 29.3487 140.687 29.2607 141.124 29.2607H143.781V30.2315H141.55C141.385 30.2315 141.274 30.2656 141.218 30.3337C141.166 30.3962 141.141 30.4927 141.141 30.6232V31.7814H143.559V32.7607H141.141V35.3154H139.881V30.4359Z" fill="#F5F5F0"/>
<path d="M138.517 29.2607V35.3154H137.248V29.2607H138.517Z" fill="#F5F5F0"/>
<path d="M133.606 33.9529C133.606 34.0891 133.632 34.1885 133.683 34.2509C133.74 34.3134 133.851 34.3446 134.015 34.3446H136.229V35.3154H133.589C133.152 35.3154 132.834 35.2302 132.636 35.0599C132.443 34.8896 132.346 34.583 132.346 34.1402V29.2607H133.606V33.9529Z" fill="#F5F5F0"/>
<path d="M126.764 29.2607C127.178 29.2607 127.525 29.3005 127.803 29.38C128.081 29.4594 128.302 29.5758 128.467 29.7291C128.637 29.8824 128.757 30.0754 128.825 30.3082C128.893 30.5353 128.927 30.7992 128.927 31.1001C128.927 31.6054 128.833 31.9971 128.646 32.2753C128.464 32.5535 128.178 32.7437 127.786 32.8458C127.894 32.948 127.99 33.0701 128.075 33.212C128.161 33.3539 128.251 33.5186 128.348 33.7059L129.114 35.3154H127.828L127.283 34.1062C127.158 33.845 127.019 33.6009 126.866 33.3738C126.719 33.1411 126.517 32.9991 126.262 32.948H125.631V35.3154H124.371V30.4359C124.371 29.9988 124.468 29.695 124.661 29.5247C124.859 29.3487 125.177 29.2607 125.614 29.2607H126.764ZM126.653 30.2315H126.04C125.875 30.2315 125.765 30.2656 125.708 30.3337C125.657 30.3962 125.631 30.4927 125.631 30.6232V31.9772H126.636C127 31.9772 127.258 31.9148 127.411 31.7899C127.564 31.6593 127.641 31.4294 127.641 31.1001C127.641 30.7765 127.564 30.5523 127.411 30.4274C127.264 30.2968 127.011 30.2315 126.653 30.2315Z" fill="#F5F5F0"/>
<path d="M123.264 32.3432C123.264 32.8655 123.216 33.3197 123.12 33.7057C123.029 34.0918 122.878 34.4125 122.668 34.668C122.458 34.9291 122.18 35.1222 121.834 35.2471C121.487 35.372 121.064 35.4344 120.565 35.4344C120.048 35.4344 119.617 35.3691 119.271 35.2385C118.93 35.108 118.655 34.9093 118.444 34.6425C118.24 34.3756 118.095 34.0435 118.01 33.6461C117.925 33.243 117.882 32.7718 117.882 32.2325C117.882 31.75 117.922 31.3157 118.002 30.9296C118.081 30.5436 118.223 30.22 118.427 29.9588C118.632 29.692 118.907 29.4876 119.253 29.3457C119.6 29.2038 120.04 29.1328 120.573 29.1328C121.107 29.1328 121.547 29.2038 121.893 29.3457C122.24 29.482 122.515 29.6835 122.719 29.9503C122.918 30.2228 123.057 30.5606 123.137 30.9637C123.222 31.3611 123.264 31.8209 123.264 32.3432ZM120.573 34.4125C121.016 34.4125 121.354 34.2649 121.587 33.9697C121.82 33.6688 121.936 33.1267 121.936 32.3432C121.936 31.9288 121.908 31.5825 121.851 31.3043C121.8 31.0261 121.72 30.8019 121.612 30.6316C121.499 30.4613 121.357 30.3392 121.187 30.2654C121.016 30.1916 120.812 30.1547 120.573 30.1547C120.346 30.1547 120.148 30.1916 119.977 30.2654C119.807 30.3335 119.665 30.4471 119.552 30.606C119.438 30.7707 119.353 30.9864 119.296 31.2532C119.239 31.5144 119.211 31.8408 119.211 32.2325C119.211 33.05 119.319 33.6177 119.534 33.9357C119.75 34.2536 120.097 34.4125 120.573 34.4125Z" fill="#F5F5F0"/>
<path d="M113.128 30.4359C113.128 29.9988 113.224 29.695 113.417 29.5247C113.616 29.3487 113.934 29.2607 114.371 29.2607H117.028V30.2315H114.797C114.632 30.2315 114.521 30.2656 114.465 30.3337C114.414 30.3962 114.388 30.4927 114.388 30.6232V31.7814H116.806V32.7607H114.388V35.3154H113.128V30.4359Z" fill="#F5F5F0"/>
<path d="M109.979 29.2607V30.24H108.251V35.3154H106.965V30.24H105.236V29.2607H109.979Z" fill="#F5F5F0"/>
<path d="M102.257 34.4125C102.643 34.4239 102.913 34.3416 103.066 34.1656C103.219 33.9896 103.296 33.7909 103.296 33.5695C103.29 33.473 103.268 33.3906 103.228 33.3225C103.194 33.2544 103.146 33.1976 103.083 33.1522C103.026 33.1068 102.964 33.0699 102.896 33.0415C102.828 33.0074 102.762 32.9762 102.7 32.9478C102.581 32.9081 102.476 32.8712 102.385 32.8371C102.3 32.8031 102.212 32.769 102.121 32.7349C102.03 32.7009 101.931 32.6668 101.823 32.6328C101.715 32.593 101.587 32.5448 101.44 32.488C100.997 32.3347 100.665 32.1445 100.443 31.9174C100.228 31.6847 100.12 31.3384 100.12 30.8785C100.12 30.5663 100.179 30.3023 100.299 30.0866C100.418 29.8652 100.58 29.6835 100.784 29.5416C100.988 29.3996 101.23 29.2974 101.508 29.235C101.786 29.1669 102.084 29.1328 102.402 29.1328C102.686 29.1328 102.995 29.1754 103.33 29.2605C103.665 29.34 104.003 29.4564 104.344 29.6097L104.054 30.606C103.662 30.4584 103.347 30.3477 103.109 30.2739C102.87 30.1944 102.635 30.1547 102.402 30.1547C102.061 30.1547 101.814 30.2257 101.661 30.3676C101.508 30.5095 101.431 30.6827 101.431 30.887C101.431 31.0403 101.479 31.1624 101.576 31.2532C101.678 31.3384 101.823 31.415 102.01 31.4831C102.141 31.5342 102.257 31.5796 102.359 31.6194C102.462 31.6535 102.558 31.6875 102.649 31.7216C102.74 31.7556 102.831 31.7897 102.921 31.8238C103.012 31.8578 103.114 31.8919 103.228 31.926C103.421 31.9941 103.603 32.0707 103.773 32.1559C103.943 32.241 104.091 32.3461 104.216 32.471C104.346 32.5959 104.449 32.7463 104.522 32.9223C104.596 33.0983 104.633 33.3112 104.633 33.561C104.633 34.1457 104.44 34.6056 104.054 34.9405C103.674 35.2755 103.075 35.4429 102.257 35.4429C101.905 35.4429 101.55 35.3918 101.193 35.2896C100.835 35.1875 100.472 35.0427 100.103 34.8553L100.511 33.842C100.67 33.9215 100.821 33.9953 100.963 34.0634C101.11 34.1258 101.252 34.1826 101.389 34.2337C101.525 34.2848 101.661 34.3274 101.797 34.3614C101.939 34.3955 102.093 34.4125 102.257 34.4125Z" fill="#F5F5F0"/>
<path d="M99.0604 29.2607V30.2315H96.676C96.5113 30.2315 96.4006 30.2656 96.3439 30.3337C96.2928 30.3962 96.2672 30.4927 96.2672 30.6232V31.7814H98.9922V32.7607H96.2672V33.9529C96.2672 34.0891 96.2928 34.1885 96.3439 34.2509C96.4006 34.3134 96.5113 34.3446 96.676 34.3446H99.12V35.3154H96.2502C95.813 35.3154 95.4951 35.2302 95.2964 35.0599C95.1034 34.8896 95.0069 34.583 95.0069 34.1402V30.4359C95.0069 29.9988 95.1034 29.695 95.2964 29.5247C95.4951 29.3487 95.813 29.2607 96.2502 29.2607H99.0604Z" fill="#F5F5F0"/>
<path d="M91.7199 29.2607C92.1344 29.2607 92.4807 29.3005 92.7588 29.38C93.037 29.4594 93.2584 29.5758 93.4231 29.7291C93.5934 29.8824 93.7126 30.0754 93.7807 30.3082C93.8488 30.5353 93.8829 30.7992 93.8829 31.1001C93.8829 31.6054 93.7892 31.9971 93.6019 32.2753C93.4202 32.5535 93.1335 32.7437 92.7418 32.8458C92.8497 32.948 92.9462 33.0701 93.0313 33.212C93.1165 33.3539 93.2073 33.5186 93.3038 33.7059L94.0703 35.3154H92.7844L92.2394 34.1062C92.1145 33.845 91.9754 33.6009 91.8221 33.3738C91.6745 33.1411 91.473 32.9991 91.2175 32.948H90.5873V35.3154H89.327V30.4359C89.327 29.9988 89.4235 29.695 89.6166 29.5247C89.8153 29.3487 90.1332 29.2607 90.5703 29.2607H91.7199ZM91.6092 30.2315H90.9961C90.8315 30.2315 90.7208 30.2656 90.664 30.3337C90.6129 30.3962 90.5873 30.4927 90.5873 30.6232V31.9772H91.5922C91.9555 31.9772 92.2138 31.9148 92.3671 31.7899C92.5204 31.6593 92.597 31.4294 92.597 31.1001C92.597 30.7765 92.5204 30.5523 92.3671 30.4274C92.2195 30.2968 91.9669 30.2315 91.6092 30.2315Z" fill="#F5F5F0"/>
<path d="M88.2203 32.3432C88.2203 32.8655 88.1721 33.3197 88.0756 33.7057C87.9847 34.0918 87.8343 34.4125 87.6242 34.668C87.4142 34.9291 87.136 35.1222 86.7897 35.2471C86.4434 35.372 86.0205 35.4344 85.5209 35.4344C85.0043 35.4344 84.5728 35.3691 84.2265 35.2385C83.8859 35.108 83.6105 34.9093 83.4005 34.6425C83.1961 34.3756 83.0513 34.0435 82.9662 33.6461C82.881 33.243 82.8384 32.7718 82.8384 32.2325C82.8384 31.75 82.8782 31.3157 82.9577 30.9296C83.0371 30.5436 83.1791 30.22 83.3834 29.9588C83.5878 29.692 83.8632 29.4876 84.2095 29.3457C84.5558 29.2038 84.9957 29.1328 85.5294 29.1328C86.063 29.1328 86.503 29.2038 86.8493 29.3457C87.1956 29.482 87.471 29.6835 87.6753 29.9503C87.874 30.2228 88.0131 30.5606 88.0926 30.9637C88.1778 31.3611 88.2203 31.8209 88.2203 32.3432ZM85.5294 34.4125C85.9722 34.4125 86.31 34.2649 86.5428 33.9697C86.7755 33.6688 86.8919 33.1267 86.8919 32.3432C86.8919 31.9288 86.8635 31.5825 86.8067 31.3043C86.7557 31.0261 86.6762 30.8019 86.5683 30.6316C86.4548 30.4613 86.3128 30.3392 86.1425 30.2654C85.9722 30.1916 85.7678 30.1547 85.5294 30.1547C85.3023 30.1547 85.1036 30.1916 84.9333 30.2654C84.763 30.3335 84.6211 30.4471 84.5075 30.606C84.394 30.7707 84.3088 30.9864 84.252 31.2532C84.1953 31.5144 84.1669 31.8408 84.1669 32.2325C84.1669 33.05 84.2747 33.6177 84.4905 33.9357C84.7062 34.2536 85.0525 34.4125 85.5294 34.4125Z" fill="#F5F5F0"/>
<path d="M78.0837 30.4359C78.0837 29.9988 78.1802 29.695 78.3732 29.5247C78.5719 29.3487 78.8898 29.2607 79.327 29.2607H81.9839V30.2315H79.7528C79.5881 30.2315 79.4774 30.2656 79.4206 30.3337C79.3695 30.3962 79.344 30.4927 79.344 30.6232V31.7814H81.7625V32.7607H79.344V35.3154H78.0837V30.4359Z" fill="#F5F5F0"/>
<path fill-rule="evenodd" clip-rule="evenodd" d="M59.0167 0.0038008C57.9313 -0.0796862 55.1596 1.18097 52.7551 6.89148C51.7478 9.28398 50.6759 12.7272 49.6906 16.2984C50.1628 16.7664 50.5181 17.2027 50.7515 17.536C51.6281 18.7883 54.0075 23.2966 53.757 26.8031C53.5285 30.0024 51.7533 32.4385 50.3758 33.4403C49.895 33.7899 49.3517 34.1145 48.7652 34.4063C49.2162 34.6519 49.7488 34.8386 50.3758 34.9431C53.9824 35.5442 60.6447 36.1954 64.652 35.9449C67.5323 35.6945 70.2624 34.2418 70.6631 32.9394C71.0243 31.7656 70.5649 29.7238 70.2568 28.3542C70.223 28.2041 70.191 28.0621 70.1622 27.9302L65.6539 8.76993C64.819 5.84788 62.3227 0.0038008 59.0167 0.0038008Z" fill="#698137"/>
<path fill-rule="evenodd" clip-rule="evenodd" d="M19.0681 4.88776C17.5654 5.88961 16.9392 11.6502 16.814 14.4053L16.8081 14.5271C17.325 15.3528 17.7086 16.1646 17.9411 16.7847L22.1989 29.433C22.4076 30.2261 22.6998 32.1379 22.1989 33.4403C22.0024 33.9512 21.4236 34.3758 20.5204 34.7218C20.6175 34.7532 20.7178 34.7852 20.8214 34.8179C23.2007 35.5693 26.582 35.8197 30.0884 35.6945C32.4733 35.6093 33.5837 34.1917 34.3259 32.4661C33.8934 32.0885 33.4825 31.6999 33.094 31.3114C31.2907 29.5081 30.9233 26.1352 30.9651 24.6742C30.8816 23.9228 31.1905 21.5685 33.094 18.1622C33.7919 16.9133 34.8871 15.9236 36.0994 15.1648L36.0995 15.0315C35.9325 13.2782 35.4733 9.19571 34.9724 6.89147C34.4715 4.58723 33.0105 3.59372 32.3426 3.385C31.466 3.00931 28.8612 2.38315 25.4549 2.88408C21.1971 3.51023 20.9466 3.63546 19.0681 4.88776Z" fill="#A5B548"/>
<path fill-rule="evenodd" clip-rule="evenodd" d="M41.9853 35.9449C38.9796 35.8413 36.4028 34.2794 34.3259 32.4661C34.6063 31.8142 34.8341 31.1184 35.0582 30.4339C35.1131 30.2663 35.1677 30.0993 35.2229 29.9339C35.9166 27.8526 36.0957 19.3086 36.0994 15.1648C38.1935 13.8541 40.637 13.2323 41.9853 13.153C45.5916 13.0581 48.2131 14.8337 49.6906 16.2984C48.3242 21.251 47.1242 26.4497 46.4936 29.433C46.3212 30.7435 46.6217 33.2392 48.7652 34.4063C46.7541 35.4068 44.2346 36.0225 41.9853 35.9449Z" fill="#6DA13C"/>
<path fill-rule="evenodd" clip-rule="evenodd" d="M11.5543 10.7736C10.7612 10.6484 8.89942 10.8237 7.79739 12.5268C6.69536 14.2299 4.66664 18.4127 3.91526 20.5416L0.15833 30.8105C-0.0503878 31.5201 -0.217362 33.1398 0.784482 33.9413C2.03679 34.9431 4.04049 36.0702 10.5525 35.9449C15.0208 35.859 18.5458 35.4783 20.5204 34.7218C18.3877 34.0331 17.794 33.6581 17.3149 32.9394C16.814 32.188 16.5635 28.932 16.4383 26.8031C16.3393 25.1199 16.6398 17.9978 16.8081 14.5271C15.6546 12.6846 13.8373 10.7736 11.5543 10.7736Z" fill="#446A37"/>
<path d="M22.1989 33.4403C22.0024 33.9512 21.4236 34.3758 20.5204 34.7218C18.3877 34.0331 17.794 33.6581 17.3149 32.9394C16.814 32.188 16.5635 28.932 16.4383 26.8031C16.3393 25.1199 16.6398 17.9978 16.8081 14.5271C17.325 15.3528 17.7086 16.1646 17.9411 16.7847L22.1989 29.433C22.4076 30.2261 22.6998 32.1379 22.1989 33.4403Z" fill="#38572E"/>
<path d="M36.0994 15.1648C36.0957 19.3086 35.9166 27.8526 35.2229 29.9339C35.1677 30.0993 35.1131 30.2663 35.0582 30.4339C34.8341 31.1184 34.6063 31.8142 34.3259 32.4661C33.8934 32.0885 33.4825 31.6999 33.094 31.3114C31.2907 29.5081 30.9233 26.1352 30.9651 24.6742C30.8816 23.9228 31.1905 21.5685 33.094 18.1622C33.7919 16.9133 34.8871 15.9236 36.0994 15.1648Z" fill="#538435"/>
<path fill-rule="evenodd" clip-rule="evenodd" d="M48.7652 34.4063C46.6217 33.2392 46.3212 30.7435 46.4936 29.433C47.1242 26.4497 48.3242 21.251 49.6906 16.2984C50.1628 16.7664 50.5181 17.2027 50.7515 17.536C51.6281 18.7883 54.0075 23.2966 53.757 26.8031C53.5285 30.0024 51.7533 32.4385 50.3758 33.4403C49.895 33.7899 49.3517 34.1145 48.7652 34.4063Z" fill="#446A37"/>
</svg>
