<svg xmlns="http://www.w3.org/2000/svg" width="67" height="67" viewBox="0 0 67 67">
  <g id="그룹_3" data-name="그룹 3" transform="translate(499 -9655)">
    <path id="패스_14" data-name="패스 14" d="M0,0H67V67H0Z" transform="translate(-499 9655)" fill="none"/>
    <path id="패스_9" data-name="패스 9" d="M376.724,175.873v3.671H371.93l1.021.764c2.566,2.22,3.277,5.214.867,7.906-4.761,5.318-19.16,5.325-23.769-.2-2.581-3.1-.986-6.47,1.99-8.465H346.99l-.153-.153v-3.518Zm-16.239,4.619c-2.338.172-7.316,1.5-5.976,4.792,1.115,2.743,6.824,3.092,9.311,2.824,2.284-.245,7-1.576,5.713-4.791-1.087-2.711-6.617-3-9.047-2.826" transform="translate(-809.928 9515.075)" fill="#121b60"/>
    <path id="패스_10" data-name="패스 10" d="M372.766,0V3.06h11.629V6.63H380.62l1.039,1.562c1.271,2.726-.293,5.076-2.577,6.537-3.834,2.451-9.984,2.7-14.294,1.56-4.573-1.21-9.16-4.908-5.18-9.659h-3.774V3.06H367.36V0ZM369.175,6.66c-1.979.129-6.1.936-5.768,3.665s5.363,3.246,7.471,3.137c2.031-.105,6.852-1.189,5.8-4.161-.841-2.365-5.388-2.778-7.5-2.64" transform="translate(-818.006 9672.999)" fill="#121b60"/>
    <path id="패스_11" data-name="패스 11" d="M21.727,29.979V33.65h-7.65c.276,4.926,2.513,9.291,7.344,11.015l-2.349,2.807c-.238.107-.984-.254-1.257-.375A15.065,15.065,0,0,1,12.3,42.513l-1.181-2.031a8.585,8.585,0,0,1-2.911,3.668,18.061,18.061,0,0,1-5.814,3.378L0,44.665a13.437,13.437,0,0,0,6.749-5.44A14.88,14.88,0,0,0,8.364,33.65H.612V29.979Z" transform="translate(-498.486 9646.08)" fill="#121b60"/>
    <path id="패스_12" data-name="패스 12" d="M43.385,218.843v6.527h20.3v3.671H39.254c-.465,0-1.275-.709-1.275-1.173v-9.025Z" transform="translate(-532.59 9476.49)" fill="#121b60"/>
    <path id="패스_13" data-name="패스 13" d="M242.294,24.982v20.8H237.04l-.153-.153V24.982Z" transform="translate(-711.199 9650.567)" fill="#121b60"/>
  </g>
</svg>
