<svg width="176" height="53" viewBox="0 0 176 53" fill="none" xmlns="http://www.w3.org/2000/svg">
<path d="M102.63 15.5234C102.76 14.4092 103.801 13.9068 104.582 14.016C107.943 14.3437 115.729 14.4092 119.048 14.016C119.915 13.9068 120.913 14.3874 121.021 15.5889C121.13 16.7905 120.24 17.3585 119.481 17.4896C118.961 17.5551 118.115 17.6206 117.117 17.6643V21.7715C117.117 22.5798 116.098 23.0822 115.274 23.0822C114.45 23.0822 113.474 22.5798 113.474 21.7715V17.7517C112.454 17.7736 111.413 17.7736 110.394 17.7736V21.7715C110.394 22.5798 109.375 23.0822 108.551 23.0822C107.726 23.0822 106.75 22.5798 106.75 21.7715V17.6862C105.666 17.6425 104.777 17.577 104.17 17.4896C103.345 17.3585 102.478 16.7468 102.63 15.5234ZM111.739 13.0985C107.596 13.0985 104.668 11.2852 104.668 7.96458C104.668 4.40363 107.813 2.85254 111.76 2.85254C115.99 2.85254 118.809 4.75317 118.809 7.96458C118.809 11.176 115.881 13.0985 111.739 13.0985ZM111.717 6.28241C109.461 6.28241 108.269 6.87226 108.269 7.96458C108.269 9.16612 109.57 9.66859 111.717 9.66859C113.994 9.66859 115.209 9.10059 115.209 7.96458C115.209 6.82857 114.103 6.28241 111.717 6.28241Z" fill="#1D1D1D"/>
<path d="M132.06 7.26541V8.16111C132.06 14.7805 127.983 19.1061 123.298 20.0455C122.561 20.1984 121.346 19.7397 121.281 18.4944C121.216 17.4021 122.04 16.7467 122.777 16.5064C126.009 15.4141 128.46 13.0984 128.46 8.79465C128.46 8.13926 128.395 8.03003 127.527 8.03003H122.821C122.279 8.03003 121.433 7.46202 121.433 6.30417C121.433 5.14631 122.322 4.57831 122.908 4.57831H129.522C130.976 4.57831 132.06 5.60509 132.06 7.26541ZM137.829 20.4588C137.699 21.3326 136.788 22.0535 135.855 21.9662C134.793 21.8569 134.164 21.0049 134.207 20.1311C134.489 16.8104 134.532 8.46513 134.207 5.1008C134.077 4.18326 134.923 3.3094 135.79 3.22202C136.788 3.11279 137.699 3.79002 137.829 4.70757C138.241 7.70051 138.067 18.0338 137.829 20.4588Z" fill="#1D1D1D"/>
<path d="M144.834 7.81161C145.832 7.96454 147.545 8.07377 148.868 8.07377C150.647 8.07377 152.468 7.81161 153.987 7.37469C154.767 7.15622 155.722 7.35284 155.982 8.24854C156.22 9.0787 155.83 9.82147 155.136 10.1273C153.77 10.739 151.905 10.9793 150.191 11.0667V11.7221C152.317 11.7003 154.312 11.6129 155.613 11.4599C156.416 11.3944 157.522 11.6784 157.565 12.9018C157.609 14.0378 156.784 14.5621 156.025 14.6932C153.444 15.0209 143.707 15.1083 140.714 14.6932C139.889 14.5621 139.065 14.0597 139.174 12.8363C139.26 11.7658 140.367 11.3944 141.126 11.4599C142.449 11.591 144.422 11.6784 146.548 11.7221V11.0449C145.029 10.9575 143.511 10.7609 142.665 10.4113C142.037 10.1492 141.191 9.51562 140.996 8.53254C140.757 7.41838 140.822 5.75806 140.952 4.79682C141.082 3.96666 141.993 3.26758 142.579 3.26758H154.16C154.789 3.26758 155.526 3.83558 155.526 4.73128C155.526 5.62698 154.963 6.26052 154.16 6.26052H144.791C144.531 6.26052 144.401 6.43529 144.401 6.69745V7.35284C144.422 7.615 144.552 7.74607 144.834 7.81161ZM148.369 23.0585C144.357 23.0585 140.432 22.4905 140.432 19.301C140.432 16.1114 144.357 15.5434 148.369 15.5434C152.382 15.5434 156.307 16.1332 156.307 19.301C156.307 22.4687 152.382 23.0585 148.369 23.0585ZM148.348 18.6474C145.398 18.6474 144.075 18.7785 144.075 19.3246C144.075 19.8271 145.398 19.98 148.348 19.98C151.297 19.98 152.664 19.8489 152.664 19.3246C152.664 18.7348 151.319 18.6474 148.348 18.6474Z" fill="#1D1D1D"/>
<path d="M168.627 14.147H172.4C173.42 14.147 174.114 14.7587 174.222 15.5015C174.396 16.6157 174.331 17.5551 174.179 18.2542C174.005 19.0843 173.225 19.6086 172.574 19.6086H162.684V19.98C162.684 20.0674 162.749 20.1329 162.901 20.1548C163.942 20.3077 165.937 20.3951 167.369 20.3951C169.147 20.3951 171.359 20.264 172.964 19.9363C173.637 19.8052 174.417 19.9363 174.634 20.7446C174.83 21.4437 174.244 22.0336 173.658 22.2083C171.923 22.7326 169.234 22.8419 167.217 22.8419C165.2 22.8419 162.229 22.7763 160.928 22.3176C160.299 22.0773 159.453 21.5311 159.258 20.7009C159.041 19.7834 159.214 18.7785 159.279 18.4071C159.453 17.5114 160.277 17.1618 160.732 17.1618H170.774V16.7686C170.774 16.6812 170.687 16.5938 170.579 16.5938H160.732C160.125 16.5938 159.474 16.0695 159.474 15.3486C159.474 14.715 160.06 14.147 160.732 14.147H164.983V13.5135C162.554 13.5135 160.32 13.4261 159.149 13.2732C158.325 13.1421 157.501 12.727 157.609 11.5692C157.696 10.5861 158.802 10.3021 159.561 10.3458C162.945 10.6735 170.731 10.7609 174.049 10.3458C174.851 10.3021 175.957 10.4987 176.001 11.6347C176.044 12.7052 175.22 13.1421 174.461 13.2732C173.398 13.4043 171.143 13.4917 168.627 13.5135V14.147ZM166.762 10.0836C165.265 10.0836 162.164 9.75593 161.275 9.3627C160.667 9.0787 159.756 8.53254 159.648 7.59315C159.518 6.50083 159.474 5.86729 159.626 4.90605C159.778 3.96666 160.732 3.26758 161.318 3.26758H172.227C172.813 3.26758 173.854 3.96666 174.005 4.94974C174.136 6.02021 174.114 6.63191 173.984 7.54946C173.832 8.57623 172.943 9.03501 172.422 9.34085C171.359 9.86517 168.15 10.0836 166.762 10.0836ZM170.123 5.88914H163.422C163.053 5.88914 163.031 6.15129 163.031 6.26052V6.45714C163.053 6.76299 163.161 6.91591 163.422 6.95961C164.202 7.11253 165.547 7.22176 166.892 7.22176C168.15 7.22176 169.342 7.09068 170.058 7.0033C170.405 6.93776 170.535 6.76299 170.557 6.45714V6.23868C170.557 6.12945 170.557 5.88914 170.123 5.88914Z" fill="#1D1D1D"/>
<path d="M114.949 35.6874C115.317 35.6219 115.491 35.4034 115.512 35.032C115.643 33.2188 115.447 31.0997 115.296 30.0074C115.187 29.1772 115.664 28.1942 116.9 28.0412C117.985 27.9102 118.809 28.6092 118.939 29.5268C119.134 31.1434 119.286 34.9665 118.939 36.8234C118.744 37.7191 118.028 38.3964 117.204 38.7022C116.445 39.0081 115.1 39.2265 113.647 39.3358V41.6952C115.773 41.6733 117.746 41.5859 119.048 41.433C119.915 41.3238 120.978 41.8918 121.021 43.006C121.065 44.142 120.24 44.7755 119.481 44.9066C116.9 45.2343 107.163 45.3217 104.17 44.9066C103.345 44.7755 102.478 44.0109 102.63 42.9404C102.782 41.8918 103.801 41.3238 104.582 41.433C105.883 41.5641 107.878 41.6515 110.004 41.6952V39.3358C108.529 39.2484 107.206 39.0081 106.425 38.7022C105.601 38.3964 104.907 37.7191 104.712 36.8234C104.365 34.9665 104.517 31.1434 104.712 29.5268C104.842 28.6092 105.731 27.9102 106.729 28.0412C107.878 28.1942 108.442 29.1554 108.355 29.9856C108.334 30.204 108.29 30.4443 108.247 30.7283H113.192C113.821 30.7283 114.536 31.5803 114.536 32.4323C114.536 33.1751 114.059 34.18 113.192 34.18H108.073C108.095 34.5077 108.117 34.8354 108.138 35.1413C108.16 35.4471 108.334 35.6001 108.572 35.6437C109.353 35.7967 110.546 35.9059 111.825 35.9059C112.997 35.9059 114.146 35.8185 114.949 35.6874Z" fill="#1D1D1D"/>
<path d="M132.082 40.2751V41.9135C134.207 41.8917 136.181 41.8043 137.482 41.6514C138.35 41.5422 139.412 42.0009 139.456 43.1151C139.499 44.2511 138.675 44.7754 137.916 44.9065C135.335 45.2342 125.597 45.3216 122.604 44.9065C121.78 44.7754 120.912 44.12 121.064 43.0496C121.216 42.0009 122.235 41.5422 123.016 41.6514C124.318 41.7825 126.313 41.8699 128.438 41.9135V40.2969C125.966 40.0129 123.407 39.0735 123.407 36.3864C123.407 33.2624 127.029 32.3449 130.238 32.3449C133.448 32.3449 137.113 33.0658 137.113 36.3646C137.113 38.9861 134.576 39.9692 132.082 40.2751ZM123.905 31.7113C123.125 31.7113 122.648 30.8375 122.648 30.0947C122.648 29.3519 123.146 28.4781 123.905 28.4781H128.438V28.0848C128.438 27.4294 129.284 26.7959 130.173 26.7959C131.062 26.7959 132.082 27.3202 132.082 28.0848V28.4781H136.55C137.309 28.4781 137.894 29.2208 137.894 30.0728C137.894 30.8156 137.395 31.7113 136.55 31.7113H123.905ZM130.282 35.4252C127.462 35.4252 127.029 35.7966 127.029 36.3646C127.029 36.9981 127.766 37.304 130.26 37.304C133.101 37.304 133.492 36.8671 133.492 36.3646C133.492 35.8184 132.863 35.4252 130.282 35.4252Z" fill="#1D1D1D"/>
<path d="M139.695 37.8505C139.283 36.9984 139.63 35.9061 140.28 35.4474C142.211 34.0929 142.601 33.2409 142.601 30.2698V28.5002C142.601 27.823 143.338 27.1895 144.228 27.1895C145.117 27.1895 146.028 27.6919 146.028 28.5002V30.379C146.028 34.3769 144.726 37.0858 142.102 38.5277C141.3 38.9646 140.107 38.6806 139.695 37.8505ZM150.17 46.8712C148.197 46.8712 145.724 46.8275 143.664 46.1721C143.013 45.9755 142.189 45.2764 141.994 44.3151C141.777 43.3321 141.799 41.9776 141.929 40.776C141.972 40.208 142.406 39.2031 143.772 39.2468C145.052 39.2905 145.551 40.3391 145.507 41.0163C145.442 41.5844 145.377 42.1961 145.399 42.7204C145.399 42.9825 145.529 43.1354 145.767 43.1791C146.982 43.4194 148.956 43.4631 150.322 43.4631C152.1 43.4631 154.096 43.1573 155.505 42.8077C156.351 42.6111 157.262 42.9607 157.566 44.053C157.761 44.7958 157.327 45.7352 156.546 46.0192C154.811 46.6527 152.187 46.8493 150.17 46.8712ZM148.695 35.6003C149.368 36.3212 149.151 37.5009 148.63 38.0689C147.936 38.8335 146.657 38.7243 146.049 38.0689L145.616 37.6101C145.117 37.064 145.16 35.9935 145.724 35.3163C146.375 34.5298 147.589 34.5298 148.262 35.1634L148.695 35.6003ZM153.098 39.8148C153.055 40.7323 152.165 41.4096 151.233 41.3659C150.257 41.3222 149.65 40.4047 149.671 39.5308C149.801 38.1108 149.845 35.9917 149.823 33.9163H148.565C147.85 33.9163 147.329 33.0424 147.329 32.2997C147.329 31.5569 147.893 30.683 148.587 30.683H149.736C149.715 30.1369 149.693 29.6126 149.671 29.1756C149.65 28.3236 150.213 27.4498 151.168 27.3624C152.122 27.275 152.968 27.9304 153.098 28.8698C153.358 31.3821 153.315 37.3899 153.098 39.8148ZM157.132 39.9259C157.089 40.8434 156.286 41.5206 155.267 41.4769C154.313 41.4332 153.684 40.5157 153.705 39.6419C153.944 36.9984 153.9 31.799 153.705 29.0682C153.684 28.2162 154.313 27.3424 155.202 27.255C156.113 27.1676 157.002 27.823 157.132 28.7624C157.392 31.2747 157.349 37.5009 157.132 39.9259Z" fill="#1D1D1D"/>
<path d="M170.555 41.6059C170.794 42.6546 169.991 43.4192 169.514 43.6158C168.43 44.162 166.695 44.4241 165.242 44.4241C163.702 44.4241 161.988 44.0746 161.143 43.7032C160.579 43.4192 159.754 42.8512 159.516 41.8681C159.126 40.0985 159.256 36.3628 159.516 34.921C159.668 34.1127 160.232 33.1951 161.143 33.1951H167.714C168.386 33.1951 169.102 33.9816 169.102 34.8773C169.102 35.62 168.516 36.625 167.714 36.625H163.398C162.943 36.625 162.921 36.8871 162.899 37.0401C162.834 38.0668 162.791 38.897 162.899 40.0985C162.921 40.4481 163.116 40.6665 163.572 40.7758C164.135 40.8632 164.613 40.9287 165.328 40.9287C166.63 40.9287 167.714 40.6665 168.343 40.4262C169.037 40.1641 170.295 40.4918 170.555 41.6059ZM160.797 32.0391C160.147 32.0391 159.539 31.3181 159.539 30.3132C159.539 29.3738 160.125 28.5874 160.797 28.5874H168.757C169.407 28.5874 170.101 29.4394 170.101 30.2914C170.101 31.0341 169.603 32.0391 168.757 32.0391H160.797ZM169.276 35.9933C169.276 35.1413 169.926 34.2892 170.685 34.2892H171.835C171.791 32.2357 171.726 30.3569 171.618 29.1335C171.488 28.216 172.334 27.3421 173.201 27.2547C174.199 27.1455 175.11 27.8227 175.24 28.7403C175.652 31.7332 175.478 42.0665 175.24 44.4915C175.11 45.3653 174.199 46.0863 173.266 45.9989C172.203 45.8896 171.574 45.0376 171.618 44.1638C171.726 42.7001 171.813 40.297 171.835 37.741H170.685C169.796 37.741 169.276 36.736 169.276 35.9933Z" fill="#1D1D1D"/>
<path d="M47.3267 34.0438C46.452 39.5818 43.6018 44.0312 39.8028 44.9159C36.4195 45.7061 32.7144 43.5669 31.6246 42.9389C27.7587 40.7087 27.2346 38.1927 25.0821 38.3256C22.9097 38.4604 22.6747 41.0728 19.1938 43.2684C19.0456 43.363 15.4255 45.5986 12.3241 45.2455C6.65268 44.5992 2.36207 35.2435 1.85782 27.783C1.35539 20.3734 4.28869 10.3951 13.3055 5.04824C21.8777 -0.0310316 31.9843 1.41629 38.169 5.70909C42.2048 8.51088 46.0923 12.6671 48.9624 22.8421C51.6011 32.1977 53.985 37.9597 58.1201 41.6226C63.5692 46.4488 72.0402 47.046 78.4002 45.2473C83.1553 43.9019 89.0274 42.0668 93.4463 32.398C98.7436 20.8085 92.2824 5.96578 89.4232 5.8875C85.8826 5.79101 87.3502 12.2248 84.941 13.2879C81.7546 14.6934 80.7606 11.0742 72.1089 11.1816C64.3627 11.2781 63.9289 13.2588 61.3914 13.2879C58.0334 13.3262 59.1449 7.25654 56.4845 6.0386C55.3712 5.52886 52.7216 7.53144 50.9089 13.3899" stroke="#1D1D1D" stroke-width="3" stroke-linecap="round" stroke-linejoin="round"/>
<path d="M30.6564 34.7209C30.6564 36.4413 28.2562 38.3219 25.294 38.3219C22.3318 38.3219 19.9316 36.4395 19.9316 34.7209C19.9316 33.0023 22.3318 31.606 25.294 31.606C28.2562 31.606 30.6564 33.0005 30.6564 34.7209Z" fill="#1D1D1D"/>
<path d="M75.3984 31.1673C75.3984 32.3361 74.2201 33.7433 72.7398 33.7433C71.2596 33.7433 70.0596 32.3088 70.0596 31.1382C70.0596 29.9676 71.2596 29.3213 72.7398 29.3213C74.2201 29.3213 75.3984 29.9967 75.3984 31.1655V31.1673Z" fill="#DD7794"/>
<path d="M12.9114 17.7908C13.9754 12.3483 12.7935 7.53073 10.2717 7.03051C7.74985 6.53029 4.84298 10.5368 3.77902 15.9794C2.71505 21.4219 3.8969 26.2395 6.41874 26.7397C8.94058 27.2399 11.8474 23.2334 12.9114 17.7908Z" fill="#1D1D1D"/>
<path d="M43.1692 26.3953C45.691 25.895 46.8728 21.0775 45.8089 15.6349C44.7449 10.1924 41.838 6.18585 39.3162 6.68607C36.7944 7.18629 35.6125 12.0039 36.6765 17.4464C37.7404 22.8889 40.6473 26.8955 43.1692 26.3953Z" fill="#1D1D1D"/>
<path d="M17.4537 27.874C18.5327 27.874 19.4075 26.9929 19.4075 25.906C19.4075 24.8191 18.5327 23.938 17.4537 23.938C16.3747 23.938 15.5 24.8191 15.5 25.906C15.5 26.9929 16.3747 27.874 17.4537 27.874Z" fill="#1D1D1D"/>
<path d="M33.152 27.874C34.231 27.874 35.1057 26.9929 35.1057 25.906C35.1057 24.8191 34.231 23.938 33.152 23.938C32.073 23.938 31.1982 24.8191 31.1982 25.906C31.1982 26.9929 32.073 27.874 33.152 27.874Z" fill="#1D1D1D"/>
<path d="M65.2389 26.5375C66.3179 26.5375 67.1926 25.6564 67.1926 24.5696C67.1926 23.4827 66.3179 22.6016 65.2389 22.6016C64.1599 22.6016 63.2852 23.4827 63.2852 24.5696C63.2852 25.6564 64.1599 26.5375 65.2389 26.5375Z" fill="#1D1D1D"/>
<path d="M80.2164 26.7817C81.2954 26.7817 82.1702 25.9006 82.1702 24.8137C82.1702 23.7268 81.2954 22.8457 80.2164 22.8457C79.1374 22.8457 78.2627 23.7268 78.2627 24.8137C78.2627 25.9006 79.1374 26.7817 80.2164 26.7817Z" fill="#1D1D1D"/>
<path d="M21 42.2432L25.3252 39L29.6505 41.9189C29.6505 41.9189 30.4369 47.4324 29.6505 48.7297C28.8641 50.027 27.6845 51 25.7185 51C23.7524 51 21.7864 50.027 21.3932 48.7297C21 47.4324 21 42.2432 21 42.2432Z" fill="#DD7794" stroke="#1D1D1D" stroke-width="3"/>
</svg>
