<svg width="177" height="48" viewBox="0 0 177 48" fill="none" xmlns="http://www.w3.org/2000/svg">
<path d="M111.957 3.53223C114.005 3.53228 115.654 3.99395 116.777 4.79199C117.883 5.5777 118.505 6.70582 118.505 8.14453C118.505 9.57676 117.861 10.7121 116.735 11.5068C115.594 12.3126 113.936 12.7783 111.935 12.7783C109.928 12.7783 108.271 12.3376 107.132 11.5459C106.012 10.7677 105.364 9.63529 105.364 8.14453C105.364 6.53867 106.061 5.41553 107.203 4.67188C108.372 3.91111 110.037 3.53223 111.957 3.53223ZM111.913 5.96191C110.756 5.96193 109.804 6.11103 109.123 6.44434C108.413 6.79222 107.965 7.36582 107.965 8.14453C107.965 8.54088 108.074 8.90201 108.296 9.20996C108.514 9.51266 108.82 9.73652 109.173 9.90039C109.866 10.2224 110.816 10.3486 111.913 10.3486C113.078 10.3486 114.041 10.2049 114.73 9.87207C115.081 9.70273 115.379 9.47589 115.589 9.17676C115.802 8.87318 115.905 8.5229 115.905 8.14453C115.905 7.7756 115.814 7.4281 115.61 7.12402C115.409 6.82305 115.119 6.5952 114.771 6.42676C114.092 6.09779 113.126 5.96191 111.913 5.96191ZM107.446 17.3857L106.967 17.3662C105.89 17.3228 105.024 17.2581 104.442 17.1748C104.115 17.1224 103.804 16.9778 103.596 16.7549C103.4 16.5457 103.264 16.2359 103.322 15.7646V15.7607C103.413 14.9863 104.141 14.611 104.709 14.6904L104.719 14.6924L104.729 14.6934C108.117 15.0236 115.941 15.0908 119.303 14.6924L119.307 14.6914C119.633 14.6504 119.973 14.7237 120.231 14.9023C120.477 15.0725 120.679 15.3569 120.72 15.8135C120.761 16.2688 120.616 16.5662 120.416 16.7695C120.205 16.9835 119.904 17.1189 119.607 17.1729C119.105 17.2357 118.278 17.3015 117.292 17.3447L116.813 17.3652V21.9512C116.813 22.121 116.709 22.3126 116.434 22.4873C116.16 22.6607 115.792 22.7617 115.47 22.7617C115.149 22.7616 114.795 22.6614 114.534 22.4912C114.274 22.3215 114.17 22.1305 114.17 21.9512V17.4209L113.659 17.4316C112.646 17.4533 111.61 17.4531 110.59 17.4531H110.09V21.9512C110.09 22.121 109.986 22.3126 109.71 22.4873C109.436 22.6606 109.069 22.7617 108.747 22.7617C108.426 22.7617 108.072 22.6613 107.812 22.4912C107.552 22.3215 107.446 22.1306 107.446 21.9512V17.3857Z" fill="#1D1D1D" stroke="#1D1D1D"/>
<path d="M136.041 3.89893C136.749 3.82144 137.36 4.26997 137.507 4.84131L137.53 4.95752C137.73 6.41264 137.791 9.70458 137.77 12.9722C137.748 16.2181 137.644 19.3715 137.528 20.5718C137.434 21.1737 136.77 21.7109 136.098 21.6479C135.308 21.5644 134.872 20.9483 134.902 20.3354C135.185 16.9784 135.229 8.62532 134.901 5.23193L134.9 5.22119L134.898 5.21045L134.891 5.104C134.887 4.85297 134.994 4.58958 135.195 4.36084C135.428 4.09756 135.746 3.92827 136.037 3.89893H136.041ZM123.104 5.2583H129.719C130.325 5.25831 130.826 5.46953 131.175 5.82764C131.524 6.18559 131.756 6.72611 131.756 7.44482V8.34033C131.756 14.7359 127.833 18.8451 123.396 19.7349L123.393 19.7358C123.156 19.7848 122.799 19.7362 122.498 19.5493C122.217 19.3746 122 19.0894 121.977 18.6479V18.644L121.975 18.5034C122.002 17.8115 122.541 17.3531 123.129 17.1616L123.134 17.1597C124.812 16.5923 126.323 15.6952 127.415 14.3491C128.512 12.9968 129.156 11.2271 129.156 8.97412C129.156 8.81303 129.153 8.6388 129.123 8.48389C129.091 8.31725 129.02 8.12341 128.845 7.97021C128.68 7.8261 128.483 7.7706 128.314 7.74365C128.145 7.7165 127.944 7.70948 127.724 7.70947H123.018C122.764 7.70947 122.129 7.37815 122.129 6.48389C122.129 5.61656 122.78 5.25855 123.104 5.2583Z" fill="#1D1D1D" stroke="#1D1D1D"/>
<path d="M148.565 16.2227C150.564 16.2227 152.473 16.3727 153.867 16.8838C154.559 17.1374 155.091 17.4679 155.448 17.8828C155.797 18.288 156.004 18.8018 156.004 19.4805C156.004 20.1592 155.797 20.6729 155.448 21.0781C155.091 21.4932 154.559 21.8245 153.867 22.0781C152.473 22.5892 150.564 22.7383 148.565 22.7383C146.566 22.7383 144.658 22.5943 143.264 22.0859C142.572 21.8337 142.04 21.5034 141.684 21.0879C141.335 20.6821 141.128 20.1656 141.128 19.4805C141.128 18.7955 141.335 18.2798 141.684 17.874C142.04 17.4584 142.572 17.1282 143.264 16.876C144.658 16.3676 146.566 16.2227 148.565 16.2227ZM148.544 18.3271C147.073 18.3271 145.97 18.359 145.23 18.4658C144.866 18.5185 144.539 18.5961 144.292 18.7256C144.032 18.862 143.772 19.1106 143.771 19.5039C143.771 19.9051 144.055 20.143 144.301 20.2656C144.544 20.3873 144.867 20.463 145.23 20.5156C145.969 20.6223 147.07 20.6602 148.544 20.6602C150.016 20.6602 151.128 20.6271 151.877 20.5234C152.245 20.4724 152.573 20.3988 152.821 20.2764C153.074 20.1517 153.36 19.9101 153.36 19.5039C153.36 19.1106 153.111 18.8531 152.837 18.708C152.584 18.5743 152.251 18.4989 151.883 18.4492C151.136 18.3484 150.022 18.3271 148.544 18.3271ZM147.244 10.7529L146.772 10.7256C145.251 10.638 143.811 10.4425 143.052 10.1289C142.501 9.89862 141.832 9.36647 141.683 8.61523L141.681 8.60742C141.46 7.57796 141.517 5.99077 141.643 5.05371C141.684 4.78774 141.862 4.50345 142.121 4.27637C142.39 4.04049 142.651 3.94727 142.775 3.94727H154.356C154.726 3.94729 155.223 4.30788 155.223 4.91113C155.223 5.25455 155.116 5.51293 154.968 5.67871C154.823 5.8405 154.618 5.94042 154.356 5.94043H144.987C144.738 5.94043 144.49 6.02914 144.313 6.23633C144.148 6.43115 144.097 6.67003 144.097 6.87695V7.55273L144.099 7.57422C144.116 7.78205 144.183 8.00181 144.354 8.18164C144.519 8.35342 144.728 8.43451 144.917 8.47852L144.936 8.48242L144.955 8.48535C145.985 8.64317 147.725 8.7539 149.064 8.75391C150.886 8.75391 152.753 8.48579 154.317 8.03613C154.628 7.94924 154.953 7.9524 155.205 8.04395C155.44 8.12906 155.616 8.28841 155.697 8.56543V8.56641C155.866 9.15389 155.598 9.64364 155.131 9.84961L155.128 9.85059C153.851 10.4222 152.065 10.6602 150.362 10.7471L149.888 10.7715V12.4072L150.393 12.4014C152.513 12.3796 154.521 12.2915 155.85 12.1367L155.851 12.1377C156.189 12.1101 156.557 12.1616 156.824 12.3125C157.06 12.4457 157.246 12.668 157.262 13.0996V13.1006C157.278 13.5305 157.135 13.8082 156.942 13.9971C156.738 14.1971 156.446 14.3244 156.142 14.3779C154.876 14.5361 151.839 14.6405 148.719 14.6514C145.589 14.6623 142.447 14.5799 140.987 14.3789H140.988C140.639 14.3234 140.34 14.1957 140.144 14C139.964 13.8212 139.826 13.5413 139.868 13.0605V13.0566C139.896 12.7148 140.076 12.488 140.342 12.3359C140.624 12.1744 140.987 12.1125 141.279 12.1377V12.1367C142.622 12.2694 144.608 12.3577 146.733 12.4014L147.244 12.4121V10.7529Z" fill="#1D1D1D" stroke="#1D1D1D"/>
<path d="M161.515 3.94727H172.423C172.554 3.94727 172.851 4.04689 173.152 4.30176C173.438 4.54342 173.65 4.85965 173.705 5.19531C173.829 6.21664 173.809 6.78406 173.685 7.65918C173.574 8.39639 172.955 8.74284 172.387 9.07617C172.181 9.17556 171.838 9.27636 171.383 9.36719C170.93 9.4575 170.402 9.53268 169.856 9.5918C168.764 9.71014 167.633 9.76367 166.958 9.76367C166.237 9.76367 165.108 9.68328 164.047 9.55371C163.518 9.48912 163.013 9.41308 162.589 9.33008C162.154 9.24487 161.84 9.15904 161.673 9.08496C161.391 8.95245 161.068 8.7716 160.808 8.53418C160.547 8.29641 160.377 8.028 160.341 7.71582V7.71387L160.263 6.9873C160.205 6.32854 160.211 5.83483 160.316 5.16504C160.37 4.83719 160.569 4.52532 160.837 4.28906C161.117 4.04168 161.389 3.94727 161.515 3.94727ZM163.618 5.56836C163.299 5.56836 163.026 5.69402 162.865 5.94141C162.731 6.14828 162.728 6.36615 162.728 6.44043V6.6543L162.729 6.67188C162.742 6.86658 162.788 7.09502 162.936 7.28906C163.092 7.49492 163.309 7.59071 163.521 7.62891V7.62988C163.526 7.63075 163.531 7.63195 163.535 7.63281V7.63184C164.361 7.79184 165.733 7.90136 167.088 7.90137C168.377 7.90137 169.594 7.76772 170.315 7.67969L170.331 7.67773L170.348 7.67383C170.586 7.62877 170.825 7.53275 171.003 7.3291C171.18 7.12624 171.237 6.88374 171.252 6.67188L171.253 6.6543V6.35156C171.249 6.25354 171.224 6.07241 171.102 5.90625C170.917 5.65523 170.622 5.56836 170.319 5.56836H163.618ZM165.68 13.1934H165.18C162.759 13.1934 160.558 13.1057 159.419 12.958C159.051 12.8989 158.751 12.785 158.56 12.6133C158.394 12.4645 158.263 12.2327 158.304 11.7959V11.793C158.328 11.5193 158.481 11.3331 158.75 11.2002C159.033 11.0605 159.405 11.0075 159.721 11.0244C163.125 11.3526 170.902 11.4401 174.279 11.0234C174.641 11.0045 175.017 11.0463 175.287 11.1777C175.417 11.2406 175.511 11.3181 175.575 11.4111C175.638 11.502 175.69 11.6332 175.697 11.833V11.835C175.713 12.2189 175.581 12.4504 175.398 12.6104C175.198 12.7866 174.902 12.9012 174.576 12.958C173.537 13.0839 171.32 13.1716 168.818 13.1934L168.323 13.1973V14.8271H172.597C173.413 14.8271 173.857 15.2987 173.924 15.7539L173.925 15.7578C174.089 16.8114 174.025 17.6894 173.887 18.3281L173.886 18.332C173.763 18.9174 173.198 19.2879 172.771 19.2881H162.381V20.1602C162.381 20.3437 162.456 20.5234 162.607 20.6523C162.741 20.766 162.898 20.8097 163.024 20.8281V20.8291C164.102 20.9874 166.127 21.0752 167.565 21.0752C169.356 21.0752 171.603 20.942 173.255 20.6055L173.256 20.6064C173.536 20.5518 173.797 20.562 173.987 20.6348C174.152 20.6979 174.283 20.8123 174.348 21.0537L174.349 21.0586C174.396 21.2291 174.357 21.3924 174.237 21.5498C174.111 21.7163 173.91 21.8499 173.712 21.9092H173.71C172.055 22.4094 169.435 22.5215 167.413 22.5215C166.409 22.5215 165.174 22.5053 164.032 22.4326C162.875 22.3589 161.872 22.2293 161.294 22.0264C161.024 21.9223 160.712 21.7546 160.452 21.5312C160.189 21.3051 160.006 21.0467 159.94 20.7666V20.7656L159.908 20.6133C159.769 19.8543 159.904 19.0392 159.967 18.6816C160.083 18.0848 160.642 17.8418 160.929 17.8418H171.47V16.9482C171.47 16.5512 171.125 16.2737 170.775 16.2734H160.929C160.561 16.2734 160.171 15.9382 160.171 15.5283C160.171 15.19 160.513 14.8271 160.929 14.8271H165.68V13.1934Z" fill="#1D1D1D" stroke="#1D1D1D"/>
<path d="M110.7 39.0439L110.229 39.0166C108.777 38.9305 107.514 38.6942 106.804 38.416L106.795 38.4131C106.103 38.156 105.552 37.5999 105.397 36.9023C105.235 36.0257 105.186 34.6527 105.205 33.2715C105.224 31.8993 105.309 30.5635 105.403 29.7764C105.494 29.1353 106.129 28.6202 106.859 28.7158V28.7168C107.721 28.8316 108.115 29.5326 108.055 30.1133L108.054 30.1162C108.034 30.3171 107.996 30.5296 107.949 30.833L107.861 31.4082H113.388C113.489 31.4082 113.697 31.4932 113.907 31.7539C114.106 32.0008 114.232 32.3198 114.232 32.6123C114.232 32.8903 114.14 33.2301 113.969 33.4883C113.801 33.7412 113.603 33.8594 113.388 33.8594H107.735L107.771 34.3926C107.792 34.72 107.814 35.0492 107.836 35.3564C107.853 35.6 107.936 35.83 108.104 36.0107C108.267 36.1875 108.475 36.2763 108.673 36.3135V36.3145C109.493 36.4751 110.72 36.5859 112.021 36.5859C113.213 36.5859 114.391 36.4967 115.226 36.3604L115.232 36.3594C115.499 36.312 115.753 36.1977 115.939 35.9766C116.123 35.7592 116.192 35.4946 116.207 35.2402C116.323 33.6124 116.185 31.7607 116.046 30.5811L115.987 30.1182C115.949 29.8176 116.017 29.4943 116.198 29.2383C116.372 28.9917 116.67 28.7774 117.155 28.7168L117.156 28.7178C117.969 28.6196 118.542 29.1255 118.639 29.7656V29.7666C118.734 30.5524 118.82 31.8936 118.839 33.2715C118.858 34.6529 118.807 36.0257 118.645 36.9023C118.501 37.5505 117.995 38.0835 117.356 38.3613L117.227 38.4131L117.214 38.418C116.532 38.6929 115.253 38.9078 113.806 39.0166L113.344 39.0518V42.3799L113.849 42.375C115.979 42.3531 117.974 42.2654 119.302 42.1094L119.307 42.1084C119.932 42.0298 120.599 42.4148 120.704 43.0703L120.718 43.2051C120.749 44.0244 120.177 44.4854 119.606 44.5898C118.346 44.7487 115.303 44.8543 112.175 44.8652C109.431 44.8748 106.677 44.8121 105.057 44.6611L104.435 44.5908C103.801 44.4851 103.22 43.9111 103.321 43.1914C103.429 42.4468 104.168 42.0318 104.709 42.1074L104.718 42.1094L104.728 42.1104C106.049 42.2435 108.061 42.3312 110.189 42.375L110.7 42.3848V39.0439Z" fill="#1D1D1D" stroke="#1D1D1D"/>
<path d="M130.478 35.1045C129.069 35.1045 128.178 35.195 127.627 35.3906C127.342 35.492 127.099 35.6379 126.935 35.8604C126.765 36.0894 126.725 36.337 126.725 36.5439C126.725 36.8104 126.807 37.075 127.011 37.2969C127.201 37.5041 127.464 37.6369 127.756 37.7285C128.332 37.9091 129.207 37.9834 130.456 37.9834C131.881 37.9834 132.77 37.8772 133.315 37.6699C133.597 37.5628 133.83 37.4125 133.987 37.1963C134.149 36.9733 134.188 36.7373 134.188 36.5439C134.187 36.301 134.114 36.0529 133.926 35.8379C133.749 35.6355 133.501 35.4969 133.215 35.3975C132.651 35.2017 131.776 35.1045 130.478 35.1045ZM130.369 27.4756C130.726 27.4756 131.111 27.5837 131.394 27.7588C131.684 27.9388 131.778 28.1258 131.778 28.2646V29.1582H136.746C137.144 29.1584 137.591 29.5834 137.591 30.2529C137.591 30.523 137.497 30.829 137.331 31.0566C137.171 31.277 136.972 31.3905 136.746 31.3906H124.102C123.919 31.3906 123.742 31.2935 123.59 31.0752C123.435 30.8522 123.344 30.549 123.344 30.2744C123.344 30.0045 123.438 29.7012 123.597 29.4756C123.754 29.2521 123.933 29.1583 124.102 29.1582H129.135V28.2646C129.135 28.1535 129.215 27.9628 129.467 27.7754C129.708 27.5959 130.038 27.4757 130.369 27.4756ZM129.135 40.0303L128.691 39.9795C127.485 39.8409 126.316 39.5471 125.461 39.001C124.634 38.4725 124.103 37.7145 124.103 36.5664C124.103 35.2526 124.841 34.3889 126.029 33.8252C127.24 33.2507 128.864 33.0244 130.435 33.0244C132.018 33.0244 133.651 33.2043 134.871 33.7529C135.475 34.0245 135.956 34.3774 136.285 34.8223C136.61 35.2612 136.81 35.8185 136.81 36.5439C136.81 37.6572 136.287 38.4125 135.458 38.9482C134.604 39.5003 133.432 39.8089 132.217 39.958L131.778 40.0127V42.5986L132.283 42.5928C134.414 42.5709 136.408 42.4842 137.736 42.3281L137.741 42.3271C138.074 42.2853 138.437 42.3555 138.707 42.5264C138.929 42.6668 139.092 42.8753 139.14 43.1787L139.152 43.3145C139.169 43.744 139.026 44.0212 138.833 44.21C138.63 44.4086 138.342 44.5366 138.039 44.5908C136.777 44.7495 133.735 44.8533 130.609 44.8643C127.865 44.8738 125.112 44.8121 123.491 44.6611L122.869 44.5908C122.552 44.5384 122.238 44.3862 122.025 44.1641C121.822 43.9521 121.704 43.6715 121.756 43.3008C121.857 42.6007 122.552 42.2435 123.144 42.3262L123.152 42.3271L123.162 42.3281C124.484 42.4613 126.496 42.549 128.624 42.5928L129.135 42.6035V40.0303Z" fill="#1D1D1D" stroke="#1D1D1D"/>
<path d="M143.951 39.9258C144.888 39.9578 145.234 40.7031 145.204 41.1641C145.141 41.7135 145.075 42.3442 145.096 42.9004H145.095C145.095 43.1133 145.149 43.339 145.303 43.5273C145.456 43.715 145.663 43.8101 145.867 43.8486V43.8496C147.137 44.1008 149.159 44.1426 150.519 44.1426C152.341 44.1425 154.373 43.8301 155.813 43.4736L155.814 43.4746C156.138 43.3994 156.45 43.4342 156.698 43.5674C156.937 43.6955 157.158 43.9365 157.277 44.3594H157.278C157.341 44.5967 157.306 44.8931 157.171 45.1641C157.036 45.433 156.822 45.6374 156.571 45.7285V45.7295C154.923 46.3314 152.373 46.528 150.361 46.5498C148.381 46.5497 145.986 46.503 144.012 45.875L144.005 45.873L143.909 45.8398C143.422 45.6497 142.824 45.1039 142.68 44.3955L142.679 44.3867L142.613 44.0312C142.484 43.1623 142.51 42.0446 142.622 41.0098L142.623 41.002V40.9941C142.638 40.7982 142.725 40.5157 142.923 40.2959C143.104 40.0944 143.409 39.9088 143.951 39.9258ZM155.446 27.9316C156.062 27.8728 156.662 28.2919 156.81 28.8887L156.833 29.0107C157.087 31.4963 157.044 37.6661 156.83 40.0605L156.829 40.0713V40.082C156.801 40.6833 156.272 41.1901 155.486 41.1572C154.875 41.1292 154.387 40.5143 154.401 39.8389C154.64 37.159 154.596 31.9748 154.401 29.2305C154.388 28.5914 154.867 27.9889 155.446 27.9316ZM151.409 28.04C152.062 27.9802 152.631 28.3941 152.775 28.9951L152.799 29.1182C153.053 31.6029 153.01 37.5561 152.796 39.9502L152.795 39.96V39.9707C152.769 40.5225 152.239 41.0141 151.585 41.0459H151.451C150.824 41.0176 150.353 40.4093 150.367 39.7295C150.498 38.2844 150.541 36.1588 150.52 34.0908L150.515 33.5957H148.762C148.622 33.5957 148.447 33.5103 148.283 33.2783C148.121 33.049 148.025 32.7447 148.025 32.4795C148.025 32.2236 148.127 31.921 148.298 31.6875C148.473 31.4485 148.655 31.3623 148.783 31.3623H150.453L150.433 30.8428L150.367 29.3301C150.356 28.6775 150.785 28.0975 151.409 28.04ZM144.424 27.8691C144.783 27.8691 145.133 27.9719 145.38 28.1367C145.621 28.2983 145.724 28.4871 145.724 28.6797V30.5586C145.724 34.4441 144.469 36.9439 142.06 38.2686C141.786 38.4176 141.421 38.4521 141.077 38.3604C140.735 38.2688 140.468 38.0673 140.339 37.8076C140.196 37.508 140.178 37.1492 140.269 36.8096C140.361 36.4644 140.552 36.186 140.765 36.0361L140.764 36.0352C141.75 35.3432 142.421 34.7284 142.816 33.8496C143.203 32.9898 143.297 31.9377 143.297 30.4492V28.6797C143.297 28.5265 143.384 28.3296 143.595 28.1562C143.802 27.9861 144.096 27.8692 144.424 27.8691ZM146.306 35.8145C146.731 35.3008 147.529 35.2607 148.021 35.6279L148.115 35.707L148.526 36.1201V36.1211C148.745 36.356 148.835 36.6817 148.808 37.0332C148.78 37.3915 148.634 37.7192 148.458 37.9111L148.456 37.9121C148.224 38.1672 147.882 38.2916 147.518 38.2812C147.147 38.2707 146.811 38.1231 146.612 37.9092L146.609 37.9053L146.175 37.4463C146.042 37.2958 145.952 37.0374 145.967 36.7148C145.981 36.3925 146.099 36.0622 146.305 35.8154L146.306 35.8145Z" fill="#1D1D1D" stroke="#1D1D1D"/>
<path d="M173.452 27.9316C174.206 27.8493 174.85 28.3635 174.94 28.9873V28.9883C175.141 30.4424 175.201 33.7358 175.18 37.0049C175.158 40.2499 175.056 43.4024 174.94 44.6035C174.847 45.2059 174.181 45.7437 173.509 45.6807H173.508C172.719 45.5968 172.283 44.9808 172.313 44.3682L172.312 44.3672C172.422 42.8874 172.51 40.4791 172.531 37.9248L172.535 37.4209H170.882C170.647 37.4209 170.431 37.2926 170.253 37.0381C170.071 36.7782 169.972 36.4416 169.972 36.1729C169.972 35.8685 170.091 35.5519 170.281 35.3154C170.474 35.0764 170.696 34.9688 170.882 34.9688H172.542L172.531 34.458C172.488 32.4056 172.423 30.5117 172.312 29.2695L172.311 29.2559L172.31 29.2432L172.301 29.1367C172.297 28.8856 172.405 28.6223 172.606 28.3936C172.839 28.1303 173.156 27.961 173.447 27.9316H173.452ZM161.339 33.875H167.91C168.056 33.875 168.275 33.9685 168.476 34.2041C168.67 34.432 168.798 34.7401 168.798 35.0566C168.798 35.3124 168.692 35.6494 168.499 35.918C168.304 36.1895 168.09 36.3047 167.91 36.3047H163.595C163.269 36.3047 162.976 36.4033 162.786 36.6504C162.626 36.8589 162.607 37.1071 162.601 37.1494L162.598 37.1689L162.597 37.1885C162.531 38.2216 162.486 39.0827 162.598 40.3232V40.3223C162.616 40.5847 162.705 40.8432 162.91 41.0547C163.109 41.2597 163.372 41.3744 163.651 41.4414L163.671 41.4463L163.691 41.4492C164.265 41.5381 164.771 41.6084 165.524 41.6084C166.888 41.6084 168.032 41.3338 168.717 41.0723C168.925 40.9943 169.276 40.9945 169.608 41.1387C169.924 41.2756 170.175 41.5216 170.264 41.8955V41.8965C170.347 42.2626 170.253 42.5775 170.083 42.833C169.905 43.1016 169.661 43.2748 169.52 43.333L169.502 43.3408L169.485 43.3486C168.501 43.8442 166.856 44.1035 165.438 44.1035C163.953 44.1035 162.316 43.7631 161.546 43.4268C161.057 43.1773 160.462 42.7443 160.238 42.0693L160.198 41.9297C160.018 41.1034 159.952 39.7804 159.968 38.457C159.984 37.1329 160.081 35.8705 160.204 35.1895L160.203 35.1885C160.267 34.8536 160.416 34.5068 160.626 34.2539C160.832 34.0056 161.07 33.875 161.339 33.875ZM160.993 29.2666H168.953C169.067 29.2666 169.274 29.3552 169.479 29.6113C169.673 29.8557 169.798 30.1742 169.798 30.4707C169.798 30.7443 169.702 31.085 169.527 31.3457C169.355 31.6035 169.155 31.7187 168.953 31.7188H160.993C160.86 31.7186 160.681 31.6432 160.519 31.4297C160.358 31.2191 160.235 30.8967 160.235 30.4932C160.235 30.1236 160.352 29.7966 160.516 29.5732C160.682 29.3461 160.862 29.2668 160.993 29.2666Z" fill="#1D1D1D" stroke="#1D1D1D"/>
<path d="M47.523 34.2234C46.6483 39.7615 43.7981 44.2109 39.9991 45.0956C36.6158 45.8857 32.9107 43.7466 31.8209 43.1185C27.955 40.8884 27.4309 38.3724 25.2784 38.5053C23.1059 38.64 22.871 41.2525 19.3901 43.4481C19.2419 43.5427 15.6218 45.7783 12.5204 45.4251C6.84897 44.7789 2.55836 35.4232 2.05411 27.9627C1.55167 20.5531 4.48498 10.5748 13.5018 5.22792C22.074 0.148656 32.1806 1.59597 38.3653 5.88878C42.401 8.69057 46.2886 12.8468 49.1587 23.0217C51.7974 32.3774 54.1812 38.1394 58.3164 41.8023C63.7655 46.6285 72.2365 47.2256 78.5965 45.427C83.3516 44.0816 89.2236 42.2465 93.6426 32.5777C98.9399 20.9882 92.4787 6.14547 89.6195 6.06719C86.0789 5.9707 87.5464 12.4044 85.1373 13.4676C81.9509 14.8731 80.9569 11.2539 72.3052 11.3613C64.559 11.4578 64.1252 13.4385 61.5877 13.4676C58.2297 13.5059 59.3412 7.43622 56.6808 6.21829C55.5675 5.70854 52.9179 7.71112 51.1052 13.5696" stroke="#1D1D1D" stroke-width="3" stroke-linecap="round" stroke-linejoin="round"/>
<path d="M25.4902 32.2856C26.8991 32.2856 28.1499 32.6184 29.0312 33.1304C29.9251 33.6497 30.3525 34.2934 30.3525 34.9009C30.3524 35.5324 29.8969 36.3005 28.9941 36.938C28.1086 37.5633 26.8686 38.0015 25.4902 38.0015C24.112 38.0015 22.8719 37.5626 21.9863 36.937C21.0836 36.2992 20.6281 35.5313 20.6279 34.9009C20.6279 34.2944 21.0554 33.6509 21.9492 33.1313C22.8306 32.6191 24.0815 32.2857 25.4902 32.2856Z" fill="#1D1D1D" stroke="#1D1D1D"/>
<path d="M75.5947 31.347C75.5947 32.5158 74.4163 33.923 72.9361 33.923C71.4559 33.923 70.2559 32.4885 70.2559 31.3179C70.2559 30.1473 71.4559 29.501 72.9361 29.501C74.4163 29.501 75.5947 30.1764 75.5947 31.3452V31.347Z" fill="#1D1D1D"/>
<path d="M4.46573 16.2565C4.98699 13.59 5.95637 11.2996 7.07977 9.75113C8.23019 8.16551 9.41665 7.51165 10.3721 7.70117C11.3275 7.89076 12.1794 8.94892 12.6471 10.8554C13.1038 12.7173 13.1387 15.207 12.6175 17.8734C12.0962 20.5398 11.1268 22.8303 10.0034 24.3787C8.85304 25.9643 7.66652 26.6182 6.71107 26.4287C5.7556 26.2392 4.90382 25.181 4.4361 23.2744C3.97934 21.4126 3.94448 18.9229 4.46573 16.2565Z" fill="#1D1D1D" stroke="#1D1D1D"/>
<path d="M39.6085 7.35645C40.564 7.167 41.7505 7.82084 42.9009 9.40641C44.0243 10.9548 44.9936 13.2453 45.5149 15.9117C46.0362 18.5781 46.0013 21.0679 45.5446 22.9297C45.0768 24.8362 44.225 25.8944 43.2696 26.084C42.3141 26.2735 41.1277 25.6196 39.9772 24.034C38.8538 22.4856 37.8845 20.1951 37.3632 17.5287C36.8419 14.8622 36.8768 12.3726 37.3336 10.5107C37.8013 8.60415 38.6531 7.54597 39.6085 7.35645Z" fill="#1D1D1D" stroke="#1D1D1D"/>
<path d="M17.6504 24.6177C18.4496 24.6179 19.1034 25.2715 19.1035 26.0854C19.1035 26.8995 18.4497 27.553 17.6504 27.5532C16.8509 27.5532 16.1963 26.8996 16.1963 26.0854C16.1964 25.2714 16.851 24.6177 17.6504 24.6177Z" fill="#1D1D1D" stroke="#1D1D1D"/>
<path d="M33.3486 24.6177C34.1478 24.6179 34.8016 25.2715 34.8018 26.0854C34.8018 26.8995 34.1479 27.553 33.3486 27.5532C32.5492 27.5532 31.8945 26.8996 31.8945 26.0854C31.8946 25.2714 32.5493 24.6177 33.3486 24.6177Z" fill="#1D1D1D" stroke="#1D1D1D"/>
<path d="M65.4355 23.2812C66.2348 23.2815 66.8886 23.9351 66.8887 24.749C66.8887 25.5631 66.2348 26.2166 65.4355 26.2168C64.6361 26.2168 63.9814 25.5632 63.9814 24.749C63.9816 23.9349 64.6362 23.2812 65.4355 23.2812Z" fill="#1D1D1D" stroke="#1D1D1D"/>
<path d="M80.4131 23.5254C81.2123 23.5256 81.8661 24.1792 81.8662 24.9932C81.8662 25.8072 81.2124 26.4607 80.4131 26.4609C79.6136 26.4609 78.959 25.8073 78.959 24.9932C78.9591 24.1791 79.6137 23.5254 80.4131 23.5254Z" fill="#1D1D1D" stroke="#1D1D1D"/>
</svg>
