<svg width="177" height="48" viewBox="0 0 177 48" fill="none" xmlns="http://www.w3.org/2000/svg">
<path d="M111.957 3.35254C114.005 3.35259 115.654 3.81426 116.777 4.6123C117.883 5.39801 118.505 6.52613 118.505 7.96484C118.505 9.39707 117.861 10.5324 116.735 11.3271C115.594 12.1329 113.936 12.5986 111.935 12.5986C109.928 12.5986 108.271 12.1579 107.132 11.3662C106.012 10.588 105.364 9.4556 105.364 7.96484C105.364 6.35899 106.061 5.23584 107.203 4.49219C108.372 3.73142 110.037 3.35254 111.957 3.35254ZM111.913 5.78223C110.756 5.78224 109.804 5.93134 109.123 6.26465C108.413 6.61253 107.965 7.18613 107.965 7.96484C107.965 8.36119 108.074 8.72233 108.296 9.03027C108.514 9.33297 108.82 9.55684 109.173 9.7207C109.866 10.0427 110.816 10.1689 111.913 10.1689C113.078 10.1689 114.041 10.0252 114.73 9.69238C115.081 9.52304 115.379 9.2962 115.589 8.99707C115.802 8.69349 115.905 8.34322 115.905 7.96484C115.905 7.59592 115.814 7.24842 115.61 6.94434C115.409 6.64336 115.119 6.41551 114.771 6.24707C114.092 5.9181 113.126 5.78223 111.913 5.78223ZM107.446 17.2061L106.967 17.1865C105.89 17.1431 105.024 17.0784 104.442 16.9951C104.115 16.9427 103.804 16.7981 103.596 16.5752C103.4 16.366 103.264 16.0562 103.322 15.585V15.5811C103.413 14.8066 104.141 14.4313 104.709 14.5107L104.719 14.5127L104.729 14.5137C108.117 14.8439 115.941 14.9111 119.303 14.5127L119.307 14.5117C119.633 14.4707 119.973 14.544 120.231 14.7227C120.477 14.8928 120.679 15.1772 120.72 15.6338C120.761 16.0891 120.616 16.3865 120.416 16.5898C120.205 16.8038 119.904 16.9392 119.607 16.9932C119.105 17.056 118.278 17.1218 117.292 17.165L116.813 17.1855V21.7715C116.813 21.9413 116.709 22.1329 116.434 22.3076C116.16 22.481 115.792 22.582 115.47 22.582C115.149 22.5819 114.795 22.4817 114.534 22.3115C114.274 22.1418 114.17 21.9509 114.17 21.7715V17.2412L113.659 17.252C112.646 17.2737 111.61 17.2734 110.59 17.2734H110.09V21.7715C110.09 21.9413 109.986 22.1329 109.71 22.3076C109.436 22.4809 109.069 22.582 108.747 22.582C108.426 22.582 108.072 22.4816 107.812 22.3115C107.552 22.1418 107.446 21.9509 107.446 21.7715V17.2061Z" fill="white" stroke="white"/>
<path d="M136.041 3.71924C136.749 3.64175 137.36 4.09028 137.507 4.66162L137.53 4.77783C137.73 6.23295 137.791 9.5249 137.77 12.7925C137.748 16.0384 137.644 19.1918 137.528 20.3921C137.434 20.994 136.77 21.5312 136.098 21.4683C135.308 21.3847 134.872 20.7686 134.902 20.1558C135.185 16.7987 135.229 8.44563 134.901 5.05225L134.9 5.0415L134.898 5.03076L134.891 4.92432C134.887 4.67328 134.994 4.40989 135.195 4.18115C135.428 3.91787 135.746 3.74858 136.037 3.71924H136.041ZM123.104 5.07861H129.719C130.325 5.07862 130.826 5.28985 131.175 5.64795C131.524 6.0059 131.756 6.54642 131.756 7.26514V8.16064C131.756 14.5563 127.833 18.6654 123.396 19.5552L123.393 19.5562C123.156 19.6051 122.799 19.5565 122.498 19.3696C122.217 19.1949 122 18.9097 121.977 18.4683V18.4644L121.975 18.3237C122.002 17.6318 122.541 17.1734 123.129 16.9819L123.134 16.98C124.812 16.4126 126.323 15.5155 127.415 14.1694C128.512 12.8171 129.156 11.0474 129.156 8.79443C129.156 8.63335 129.153 8.45911 129.123 8.3042C129.091 8.13756 129.02 7.94372 128.845 7.79053C128.68 7.64641 128.483 7.59091 128.314 7.56396C128.145 7.53682 127.944 7.52979 127.724 7.52979H123.018C122.764 7.52979 122.129 7.19846 122.129 6.3042C122.129 5.43687 122.78 5.07886 123.104 5.07861Z" fill="white" stroke="white"/>
<path d="M148.565 16.043C150.564 16.043 152.473 16.193 153.867 16.7041C154.559 16.9577 155.091 17.2882 155.448 17.7031C155.797 18.1084 156.004 18.6221 156.004 19.3008C156.004 19.9795 155.797 20.4932 155.448 20.8984C155.091 21.3135 154.559 21.6448 153.867 21.8984C152.473 22.4095 150.564 22.5586 148.565 22.5586C146.566 22.5586 144.658 22.4146 143.264 21.9062C142.572 21.654 142.04 21.3237 141.684 20.9082C141.335 20.5024 141.128 19.9859 141.128 19.3008C141.128 18.6159 141.335 18.1001 141.684 17.6943C142.04 17.2788 142.572 16.9485 143.264 16.6963C144.658 16.1879 146.566 16.043 148.565 16.043ZM148.544 18.1475C147.073 18.1475 145.97 18.1793 145.23 18.2861C144.866 18.3388 144.539 18.4164 144.292 18.5459C144.032 18.6823 143.772 18.9309 143.771 19.3242C143.771 19.7254 144.055 19.9633 144.301 20.0859C144.544 20.2076 144.867 20.2834 145.23 20.3359C145.969 20.4427 147.07 20.4805 148.544 20.4805C150.016 20.4805 151.128 20.4474 151.877 20.3438C152.245 20.2927 152.573 20.2191 152.821 20.0967C153.074 19.972 153.36 19.7304 153.36 19.3242C153.36 18.9309 153.111 18.6734 152.837 18.5283C152.584 18.3946 152.251 18.3192 151.883 18.2695C151.136 18.1687 150.022 18.1475 148.544 18.1475ZM147.244 10.5732L146.772 10.5459C145.251 10.4583 143.811 10.2628 143.052 9.94922C142.501 9.71893 141.832 9.18678 141.683 8.43555L141.681 8.42773C141.46 7.39828 141.517 5.81109 141.643 4.87402C141.684 4.60805 141.862 4.32377 142.121 4.09668C142.323 3.91975 142.52 3.82335 142.658 3.78613L142.775 3.76758H154.356C154.726 3.7676 155.223 4.12819 155.223 4.73145C155.223 5.07487 155.116 5.33324 154.968 5.49902C154.823 5.66082 154.618 5.76073 154.356 5.76074H144.987C144.738 5.76074 144.49 5.84945 144.313 6.05664C144.148 6.25146 144.097 6.49034 144.097 6.69727V7.37305L144.099 7.39453C144.116 7.60236 144.183 7.82212 144.354 8.00195C144.519 8.17373 144.728 8.25482 144.917 8.29883L144.936 8.30273L144.955 8.30566C145.985 8.46349 147.725 8.57421 149.064 8.57422C150.886 8.57422 152.753 8.3061 154.317 7.85645C154.628 7.76956 154.953 7.77271 155.205 7.86426C155.44 7.94937 155.616 8.10872 155.697 8.38574V8.38672C155.866 8.97421 155.598 9.46395 155.131 9.66992L155.128 9.6709C153.851 10.2425 152.065 10.4805 150.362 10.5674L149.888 10.5918V12.2275L150.393 12.2217C152.513 12.1999 154.521 12.1118 155.85 11.957L155.851 11.958C156.189 11.9304 156.557 11.982 156.824 12.1328C157.06 12.266 157.246 12.4883 157.262 12.9199V12.9209C157.278 13.3508 157.135 13.6286 156.942 13.8174C156.738 14.0174 156.446 14.1447 156.142 14.1982C154.876 14.3565 151.839 14.4608 148.719 14.4717C145.589 14.4826 142.447 14.4003 140.987 14.1992H140.988C140.639 14.1437 140.34 14.016 140.144 13.8203C139.964 13.6415 139.826 13.3616 139.868 12.8809V12.877C139.896 12.5351 140.076 12.3083 140.342 12.1562C140.624 11.9947 140.987 11.9328 141.279 11.958V11.957C142.622 12.0897 144.608 12.178 146.733 12.2217L147.244 12.2324V10.5732Z" fill="white" stroke="white"/>
<path d="M161.515 3.76758H172.423C172.554 3.76758 172.851 3.8672 173.152 4.12207C173.438 4.36374 173.65 4.67997 173.705 5.01562C173.829 6.03695 173.809 6.60438 173.685 7.47949C173.574 8.2167 172.955 8.56315 172.387 8.89648C172.181 8.99588 171.838 9.09667 171.383 9.1875C170.93 9.27782 170.402 9.35299 169.856 9.41211C168.764 9.53046 167.633 9.58398 166.958 9.58398C166.237 9.58398 165.108 9.50359 164.047 9.37402C163.518 9.30943 163.013 9.23339 162.589 9.15039C162.154 9.06518 161.84 8.97935 161.673 8.90527C161.391 8.77276 161.068 8.59191 160.808 8.35449C160.547 8.11672 160.377 7.84831 160.341 7.53613V7.53418L160.263 6.80762C160.205 6.14885 160.211 5.65514 160.316 4.98535C160.37 4.6575 160.569 4.34563 160.837 4.10938C161.117 3.86199 161.389 3.76758 161.515 3.76758ZM163.618 5.38867C163.299 5.38867 163.026 5.51434 162.865 5.76172C162.731 5.9686 162.728 6.18646 162.728 6.26074V6.47461L162.729 6.49219C162.742 6.6869 162.788 6.91533 162.936 7.10938C163.092 7.31524 163.309 7.41102 163.521 7.44922V7.4502C163.526 7.45106 163.531 7.45226 163.535 7.45312V7.45215C164.361 7.61215 165.733 7.72167 167.088 7.72168C168.377 7.72168 169.594 7.58803 170.315 7.5L170.331 7.49805L170.348 7.49414C170.586 7.44908 170.825 7.35306 171.003 7.14941C171.18 6.94655 171.237 6.70405 171.252 6.49219L171.253 6.47461V6.17188C171.249 6.07385 171.224 5.89272 171.102 5.72656C170.917 5.47554 170.622 5.38867 170.319 5.38867H163.618ZM165.68 13.0137H165.18C162.759 13.0137 160.558 12.926 159.419 12.7783C159.051 12.7193 158.751 12.6053 158.56 12.4336C158.394 12.2848 158.263 12.0531 158.304 11.6162V11.6133C158.328 11.3396 158.481 11.1534 158.75 11.0205C159.033 10.8808 159.405 10.8278 159.721 10.8447C163.125 11.1729 170.902 11.2604 174.279 10.8438C174.641 10.8248 175.017 10.8666 175.287 10.998C175.417 11.0609 175.511 11.1384 175.575 11.2314C175.638 11.3223 175.69 11.4535 175.697 11.6533V11.6553C175.713 12.0392 175.581 12.2707 175.398 12.4307C175.198 12.6069 174.902 12.7215 174.576 12.7783C173.537 12.9042 171.32 12.992 168.818 13.0137L168.323 13.0176V14.6475H172.597C173.413 14.6475 173.857 15.119 173.924 15.5742L173.925 15.5781C174.089 16.6317 174.025 17.5097 173.887 18.1484L173.886 18.1523C173.763 18.7377 173.198 19.1083 172.771 19.1084H162.381V19.9805C162.381 20.1641 162.456 20.3437 162.607 20.4727C162.741 20.5863 162.898 20.63 163.024 20.6484V20.6494C164.102 20.8077 166.127 20.8955 167.565 20.8955C169.356 20.8955 171.603 20.7623 173.255 20.4258L173.256 20.4268C173.536 20.3721 173.797 20.3823 173.987 20.4551C174.152 20.5182 174.283 20.6326 174.348 20.874L174.349 20.8789C174.396 21.0494 174.357 21.2127 174.237 21.3701C174.111 21.5366 173.91 21.6703 173.712 21.7295H173.71C172.055 22.2297 169.435 22.3418 167.413 22.3418C166.409 22.3418 165.174 22.3256 164.032 22.2529C162.875 22.1792 161.872 22.0497 161.294 21.8467C161.024 21.7426 160.712 21.5749 160.452 21.3516C160.189 21.1254 160.006 20.867 159.94 20.5869V20.5859L159.908 20.4336C159.769 19.6746 159.904 18.8595 159.967 18.502C160.083 17.9052 160.642 17.6621 160.929 17.6621H171.47V16.7686C171.47 16.3716 171.125 16.094 170.775 16.0938H160.929C160.561 16.0938 160.171 15.7585 160.171 15.3486C160.171 15.0103 160.513 14.6475 160.929 14.6475H165.68V13.0137Z" fill="white" stroke="white"/>
<path d="M110.7 38.8643L110.229 38.8369C108.777 38.7508 107.514 38.5145 106.804 38.2363L106.795 38.2334C106.103 37.9764 105.552 37.4202 105.397 36.7227C105.235 35.846 105.186 34.473 105.205 33.0918C105.224 31.7197 105.309 30.3838 105.403 29.5967C105.494 28.9556 106.129 28.4406 106.859 28.5361V28.5371C107.721 28.6519 108.115 29.3529 108.055 29.9336L108.054 29.9365C108.034 30.1374 107.996 30.3499 107.949 30.6533L107.861 31.2285H113.388C113.489 31.2285 113.697 31.3135 113.907 31.5742C114.106 31.8211 114.232 32.1401 114.232 32.4326C114.232 32.7107 114.14 33.0504 113.969 33.3086C113.801 33.5615 113.603 33.6797 113.388 33.6797H107.735L107.771 34.2129C107.792 34.5403 107.814 34.8695 107.836 35.1768C107.853 35.4203 107.936 35.6503 108.104 35.8311C108.267 36.0078 108.475 36.0966 108.673 36.1338V36.1348C109.493 36.2954 110.72 36.4062 112.021 36.4062C113.213 36.4062 114.391 36.3171 115.226 36.1807L115.232 36.1797C115.499 36.1323 115.753 36.018 115.939 35.7969C116.123 35.5795 116.192 35.3149 116.207 35.0605C116.323 33.4327 116.185 31.581 116.046 30.4014L115.987 29.9385C115.949 29.6379 116.017 29.3147 116.198 29.0586C116.372 28.812 116.67 28.5977 117.155 28.5371L117.156 28.5381C117.969 28.4399 118.542 28.9458 118.639 29.5859V29.5869C118.734 30.3727 118.82 31.7139 118.839 33.0918C118.858 34.4732 118.807 35.846 118.645 36.7227C118.501 37.3708 117.995 37.9038 117.356 38.1816L117.227 38.2334L117.214 38.2383C116.532 38.5132 115.253 38.7281 113.806 38.8369L113.344 38.8721V42.2002L113.849 42.1953C115.979 42.1734 117.974 42.0857 119.302 41.9297L119.307 41.9287C119.932 41.8501 120.599 42.2351 120.704 42.8906L120.718 43.0254C120.749 43.8447 120.177 44.3057 119.606 44.4102C118.346 44.569 115.303 44.6746 112.175 44.6855C109.431 44.6951 106.677 44.6324 105.057 44.4814L104.435 44.4111C103.801 44.3054 103.22 43.7314 103.321 43.0117C103.429 42.2671 104.168 41.8521 104.709 41.9277L104.718 41.9297L104.728 41.9307C106.049 42.0638 108.061 42.1516 110.189 42.1953L110.7 42.2051V38.8643Z" fill="white" stroke="white"/>
<path d="M130.478 34.9248C129.069 34.9248 128.178 35.0153 127.627 35.2109C127.342 35.3123 127.099 35.4582 126.935 35.6807C126.765 35.9098 126.725 36.1573 126.725 36.3643C126.725 36.6307 126.807 36.8953 127.011 37.1172C127.201 37.3245 127.464 37.4572 127.756 37.5488C128.332 37.7294 129.207 37.8037 130.456 37.8037C131.881 37.8037 132.77 37.6975 133.315 37.4902C133.597 37.3831 133.83 37.2328 133.987 37.0166C134.149 36.7936 134.188 36.5576 134.188 36.3643C134.187 36.1213 134.114 35.8732 133.926 35.6582C133.749 35.4558 133.501 35.3173 133.215 35.2178C132.651 35.022 131.776 34.9248 130.478 34.9248ZM130.369 27.2959C130.726 27.2959 131.111 27.404 131.394 27.5791C131.684 27.7591 131.778 27.9461 131.778 28.085V28.9785H136.746C137.144 28.9787 137.591 29.4037 137.591 30.0732C137.591 30.3433 137.497 30.6493 137.331 30.877C137.171 31.0973 136.972 31.2109 136.746 31.2109H124.102C123.919 31.2109 123.742 31.1138 123.59 30.8955C123.435 30.6725 123.344 30.3693 123.344 30.0947C123.344 29.8248 123.438 29.5215 123.597 29.2959C123.754 29.0724 123.933 28.9786 124.102 28.9785H129.135V28.085C129.135 27.9739 129.215 27.7831 129.467 27.5957C129.708 27.4162 130.038 27.296 130.369 27.2959ZM129.135 39.8506L128.691 39.7998C127.485 39.6612 126.316 39.3674 125.461 38.8213C124.634 38.2928 124.103 37.5348 124.103 36.3867C124.103 35.073 124.841 34.2092 126.029 33.6455C127.24 33.071 128.864 32.8447 130.435 32.8447C132.018 32.8447 133.651 33.0246 134.871 33.5732C135.475 33.8449 135.956 34.1977 136.285 34.6426C136.61 35.0815 136.81 35.6388 136.81 36.3643C136.81 37.4775 136.287 38.2328 135.458 38.7686C134.604 39.3206 133.432 39.6292 132.217 39.7783L131.778 39.833V42.4189L132.283 42.4131C134.414 42.3912 136.408 42.3045 137.736 42.1484L137.741 42.1475C138.074 42.1057 138.437 42.1758 138.707 42.3467C138.929 42.4871 139.092 42.6956 139.14 42.999L139.152 43.1348C139.169 43.5643 139.026 43.8415 138.833 44.0303C138.63 44.2289 138.342 44.3569 138.039 44.4111C136.777 44.5698 133.735 44.6737 130.609 44.6846C127.865 44.6941 125.112 44.6324 123.491 44.4814L122.869 44.4111C122.552 44.3587 122.238 44.2065 122.025 43.9844C121.822 43.7724 121.704 43.4918 121.756 43.1211C121.857 42.421 122.552 42.0638 123.144 42.1465L123.152 42.1475L123.162 42.1484C124.484 42.2816 126.496 42.3693 128.624 42.4131L129.135 42.4238V39.8506Z" fill="white" stroke="white"/>
<path d="M143.951 39.7461C144.888 39.7781 145.234 40.5234 145.204 40.9844C145.141 41.5338 145.075 42.1645 145.096 42.7207H145.095C145.095 42.9336 145.149 43.1593 145.303 43.3477C145.456 43.5354 145.663 43.6304 145.867 43.6689V43.6699C147.137 43.9211 149.159 43.9629 150.519 43.9629C152.341 43.9629 154.373 43.6504 155.813 43.2939L155.814 43.2949C156.138 43.2197 156.45 43.2545 156.698 43.3877C156.937 43.5158 157.158 43.7568 157.277 44.1797H157.278C157.341 44.417 157.306 44.7134 157.171 44.9844C157.036 45.2533 156.822 45.4577 156.571 45.5488V45.5498C154.923 46.1517 152.373 46.3483 150.361 46.3701C148.381 46.37 145.986 46.3233 144.012 45.6953L144.005 45.6934L143.909 45.6602C143.422 45.4701 142.824 44.9242 142.68 44.2158L142.679 44.207L142.613 43.8516C142.484 42.9826 142.51 41.8649 142.622 40.8301L142.623 40.8223V40.8145C142.638 40.6186 142.725 40.336 142.923 40.1162C143.104 39.9147 143.409 39.7291 143.951 39.7461ZM155.446 27.752C156.062 27.6931 156.662 28.1122 156.81 28.709L156.833 28.8311C157.087 31.3167 157.044 37.4865 156.83 39.8809L156.829 39.8916V39.9023C156.801 40.5036 156.272 41.0104 155.486 40.9775C154.875 40.9495 154.387 40.3347 154.401 39.6592C154.64 36.9793 154.596 31.7951 154.401 29.0508C154.388 28.4117 154.867 27.8092 155.446 27.752ZM151.409 27.8604C152.062 27.8006 152.631 28.2144 152.775 28.8154L152.799 28.9385C153.053 31.4232 153.01 37.3764 152.796 39.7705L152.795 39.7803V39.791C152.769 40.3428 152.239 40.8344 151.585 40.8662H151.451C150.824 40.8379 150.353 40.2297 150.367 39.5498C150.498 38.1047 150.541 35.9791 150.52 33.9111L150.515 33.416H148.762C148.622 33.416 148.447 33.3306 148.283 33.0986C148.121 32.8693 148.025 32.565 148.025 32.2998C148.025 32.0439 148.127 31.7413 148.298 31.5078C148.473 31.2688 148.655 31.1826 148.783 31.1826H150.453L150.433 30.6631L150.367 29.1504C150.356 28.4979 150.785 27.9178 151.409 27.8604ZM144.424 27.6895C144.783 27.6895 145.133 27.7922 145.38 27.957C145.621 28.1186 145.724 28.3074 145.724 28.5V30.3789C145.724 34.2644 144.469 36.7642 142.06 38.0889C141.786 38.2379 141.421 38.2725 141.077 38.1807C140.735 38.0891 140.468 37.8876 140.339 37.6279C140.196 37.3283 140.178 36.9696 140.269 36.6299C140.361 36.2847 140.552 36.0063 140.765 35.8564L140.764 35.8555C141.75 35.1635 142.421 34.5488 142.816 33.6699C143.203 32.8101 143.297 31.758 143.297 30.2695V28.5C143.297 28.3468 143.384 28.15 143.595 27.9766C143.802 27.8064 144.096 27.6895 144.424 27.6895ZM146.306 35.6348C146.731 35.1212 147.529 35.081 148.021 35.4482L148.115 35.5273L148.526 35.9404V35.9414C148.745 36.1763 148.835 36.502 148.808 36.8535C148.78 37.2118 148.634 37.5395 148.458 37.7314L148.456 37.7324C148.224 37.9876 147.882 38.1119 147.518 38.1016C147.147 38.091 146.811 37.9434 146.612 37.7295L146.609 37.7256L146.175 37.2666C146.042 37.1161 145.952 36.8577 145.967 36.5352C145.981 36.2128 146.099 35.8825 146.305 35.6357L146.306 35.6348Z" fill="white" stroke="white"/>
<path d="M173.452 27.752C174.206 27.6696 174.85 28.1839 174.94 28.8076V28.8086C175.141 30.2627 175.201 33.5561 175.18 36.8252C175.158 40.0702 175.056 43.2227 174.94 44.4238C174.847 45.0262 174.181 45.564 173.509 45.501H173.508C172.719 45.4172 172.283 44.8012 172.313 44.1885L172.312 44.1875C172.422 42.7077 172.51 40.2994 172.531 37.7451L172.535 37.2412H170.882C170.647 37.2412 170.431 37.113 170.253 36.8584C170.071 36.5985 169.972 36.2619 169.972 35.9932C169.972 35.6888 170.091 35.3723 170.281 35.1357C170.474 34.8967 170.696 34.7891 170.882 34.7891H172.542L172.531 34.2783C172.488 32.2259 172.423 30.332 172.312 29.0898L172.311 29.0762L172.31 29.0635L172.301 28.957C172.297 28.7059 172.405 28.4426 172.606 28.2139C172.839 27.9506 173.156 27.7813 173.447 27.752H173.452ZM161.339 33.6953H167.91C168.056 33.6953 168.275 33.7888 168.476 34.0244C168.67 34.2523 168.798 34.5604 168.798 34.877C168.798 35.1327 168.692 35.4697 168.499 35.7383C168.304 36.0098 168.09 36.125 167.91 36.125H163.595C163.269 36.125 162.976 36.2236 162.786 36.4707C162.626 36.6792 162.607 36.9274 162.601 36.9697L162.598 36.9893L162.597 37.0088C162.531 38.042 162.486 38.903 162.598 40.1436V40.1426C162.616 40.405 162.705 40.6635 162.91 40.875C163.109 41.08 163.372 41.1947 163.651 41.2617L163.671 41.2666L163.691 41.2695C164.265 41.3584 164.771 41.4287 165.524 41.4287C166.888 41.4287 168.032 41.1541 168.717 40.8926C168.925 40.8146 169.276 40.8148 169.608 40.959C169.924 41.0959 170.175 41.3419 170.264 41.7158V41.7168C170.347 42.0829 170.253 42.3978 170.083 42.6533C169.905 42.9219 169.661 43.0951 169.52 43.1533L169.502 43.1611L169.485 43.1689C168.501 43.6645 166.856 43.9238 165.438 43.9238C163.953 43.9238 162.316 43.5834 161.546 43.2471C161.057 42.9976 160.462 42.5646 160.238 41.8896L160.198 41.75C160.018 40.9237 159.952 39.6008 159.968 38.2773C159.984 36.9532 160.081 35.6908 160.204 35.0098L160.203 35.0088C160.267 34.6739 160.416 34.3271 160.626 34.0742C160.832 33.8259 161.07 33.6953 161.339 33.6953ZM160.993 29.0869H168.953C169.067 29.0869 169.274 29.1755 169.479 29.4316C169.673 29.676 169.798 29.9945 169.798 30.291C169.798 30.5646 169.702 30.9053 169.527 31.166C169.355 31.4238 169.155 31.5391 168.953 31.5391H160.993C160.86 31.5389 160.681 31.4635 160.519 31.25C160.358 31.0394 160.235 30.717 160.235 30.3135C160.235 29.9439 160.352 29.6169 160.516 29.3936C160.682 29.1664 160.862 29.0871 160.993 29.0869Z" fill="white" stroke="white"/>
<path d="M47.523 34.0438C46.6483 39.5818 43.7981 44.0312 39.9991 44.9159C36.6158 45.7061 32.9107 43.5669 31.8209 42.9389C27.955 40.7087 27.4309 38.1927 25.2784 38.3256C23.1059 38.4604 22.871 41.0728 19.3901 43.2684C19.2419 43.363 15.6218 45.5986 12.5204 45.2455C6.84897 44.5992 2.55836 35.2435 2.05411 27.783C1.55167 20.3734 4.48498 10.3951 13.5018 5.04824C22.074 -0.0310316 32.1806 1.41629 38.3653 5.70909C42.401 8.51088 46.2886 12.6671 49.1587 22.8421C51.7974 32.1977 54.1812 37.9597 58.3164 41.6226C63.7655 46.4488 72.2365 47.046 78.5965 45.2473C83.3516 43.9019 89.2236 42.0668 93.6426 32.398C98.9399 20.8085 92.4787 5.96578 89.6195 5.8875C86.0789 5.79101 87.5464 12.2248 85.1373 13.2879C81.9509 14.6934 80.9569 11.0742 72.3052 11.1816C64.559 11.2781 64.1252 13.2588 61.5877 13.2879C58.2297 13.3262 59.3412 7.25654 56.6808 6.0386C55.5675 5.52886 52.9179 7.53144 51.1052 13.3899" stroke="white" stroke-width="3" stroke-linecap="round" stroke-linejoin="round"/>
<path d="M25.4902 32.106C26.8991 32.106 28.1499 32.4387 29.0312 32.9507C29.9251 33.47 30.3525 34.1137 30.3525 34.7212C30.3524 35.3527 29.8969 36.1208 28.9941 36.7583C28.1086 37.3836 26.8686 37.8218 25.4902 37.8218C24.112 37.8218 22.8719 37.3829 21.9863 36.7573C21.0836 36.1195 20.6281 35.3517 20.6279 34.7212C20.6279 34.1147 21.0554 33.4712 21.9492 32.9517C22.8306 32.4395 24.0815 32.106 25.4902 32.106Z" fill="white" stroke="white"/>
<path d="M75.5947 31.1673C75.5947 32.3361 74.4163 33.7433 72.9361 33.7433C71.4559 33.7433 70.2559 32.3088 70.2559 31.1382C70.2559 29.9676 71.4559 29.3213 72.9361 29.3213C74.4163 29.3213 75.5947 29.9967 75.5947 31.1655V31.1673Z" fill="white"/>
<path d="M4.46573 16.0768C4.98699 13.4104 5.95637 11.1199 7.07977 9.57145C8.23019 7.98582 9.41665 7.33196 10.3721 7.52149C11.3275 7.71107 12.1794 8.76923 12.6471 10.6757C13.1038 12.5376 13.1387 15.0273 12.6175 17.6937C12.0962 20.3602 11.1268 22.6506 10.0034 24.1991C8.85304 25.7846 7.66652 26.4385 6.71107 26.249C5.7556 26.0595 4.90382 25.0013 4.4361 23.0948C3.97934 21.2329 3.94448 18.7433 4.46573 16.0768Z" fill="white" stroke="white"/>
<path d="M39.6085 7.17676C40.564 6.98731 41.7505 7.64116 42.9009 9.22672C44.0243 10.7752 44.9936 13.0656 45.5149 15.7321C46.0362 18.3984 46.0013 20.8882 45.5446 22.75C45.0768 24.6565 44.225 25.7147 43.2696 25.9043C42.3141 26.0938 41.1277 25.44 39.9772 23.8543C38.8538 22.3059 37.8845 20.0154 37.3632 17.349C36.8419 14.6825 36.8768 12.1929 37.3336 10.331C37.8013 8.42446 38.6531 7.36628 39.6085 7.17676Z" fill="white" stroke="white"/>
<path d="M17.6504 24.438C18.4496 24.4382 19.1034 25.0918 19.1035 25.9058C19.1035 26.7198 18.4497 27.3733 17.6504 27.3735C16.8509 27.3735 16.1963 26.7199 16.1963 25.9058C16.1964 25.0917 16.851 24.438 17.6504 24.438Z" fill="white" stroke="white"/>
<path d="M33.3486 24.438C34.1478 24.4382 34.8016 25.0918 34.8018 25.9058C34.8018 26.7198 34.1479 27.3733 33.3486 27.3735C32.5492 27.3735 31.8945 26.7199 31.8945 25.9058C31.8946 25.0917 32.5493 24.438 33.3486 24.438Z" fill="white" stroke="white"/>
<path d="M65.4355 23.1016C66.2348 23.1018 66.8886 23.7554 66.8887 24.5693C66.8887 25.3834 66.2348 26.0369 65.4355 26.0371C64.6361 26.0371 63.9814 25.3835 63.9814 24.5693C63.9816 23.7553 64.6362 23.1016 65.4355 23.1016Z" fill="white" stroke="white"/>
<path d="M80.4131 23.3457C81.2123 23.3459 81.8661 23.9995 81.8662 24.8135C81.8662 25.6275 81.2124 26.281 80.4131 26.2812C79.6136 26.2812 78.959 25.6277 78.959 24.8135C78.9591 23.9994 79.6137 23.3457 80.4131 23.3457Z" fill="white" stroke="white"/>
</svg>
